<svg width="21" height="21" viewBox="0 0 21 21" fill="none" xmlns="http://www.w3.org/2000/svg">
<path d="M15.7498 6.9213C15.7236 6.9213 15.7061 6.9213 15.6798 6.9213H15.6361C13.9823 6.8688 12.7486 5.59129 12.7486 4.01629C12.7486 2.40629 14.0611 1.10254 15.6623 1.10254C17.2636 1.10254 18.5761 2.41504 18.5761 4.01629C18.5673 5.60004 17.3336 6.87754 15.7586 6.93004C15.7586 6.92129 15.7586 6.9213 15.7498 6.9213ZM15.6623 2.40629C14.7786 2.40629 14.0611 3.1238 14.0611 4.00755C14.0611 4.8738 14.7348 5.5738 15.6011 5.6088C15.6098 5.60005 15.6798 5.60005 15.7586 5.6088C16.6073 5.56505 17.2636 4.86505 17.2723 4.00755C17.2723 3.1238 16.5548 2.40629 15.6623 2.40629Z" fill="#079669"/>
<path d="M15.7587 13.3701C15.4175 13.3701 15.0763 13.3438 14.735 13.2826C14.3763 13.2213 14.14 12.8801 14.2013 12.5213C14.2625 12.1626 14.6038 11.9263 14.9625 11.9876C16.0388 12.1713 17.1763 11.9701 17.9375 11.4626C18.3488 11.1913 18.5675 10.8501 18.5675 10.5088C18.5675 10.1676 18.34 9.83506 17.9375 9.56381C17.1763 9.05631 16.0213 8.85507 14.9363 9.04757C14.5775 9.11757 14.2363 8.87257 14.175 8.51382C14.1138 8.15507 14.35 7.81382 14.7088 7.75257C16.135 7.49882 17.6138 7.77006 18.6638 8.47006C19.4338 8.98631 19.88 9.72132 19.88 10.5088C19.88 11.2876 19.4425 12.0313 18.6638 12.5563C17.8675 13.0813 16.835 13.3701 15.7587 13.3701Z" fill="#079669"/>
<path d="M5.22373 6.92125C5.21498 6.92125 5.20623 6.92125 5.20623 6.92125C3.63123 6.86875 2.39748 5.59125 2.38873 4.01625C2.38873 2.40625 3.70123 1.09375 5.30248 1.09375C6.90373 1.09375 8.21623 2.40625 8.21623 4.0075C8.21623 5.59125 6.98248 6.86875 5.40748 6.92125L5.22373 6.265L5.28498 6.92125C5.26748 6.92125 5.24123 6.92125 5.22373 6.92125ZM5.31123 5.60875C5.36373 5.60875 5.40748 5.60875 5.45998 5.6175C6.23873 5.5825 6.92123 4.8825 6.92123 4.01625C6.92123 3.1325 6.20373 2.415 5.31998 2.415C4.43623 2.415 3.71873 3.1325 3.71873 4.01625C3.71873 4.87375 4.38373 5.565 5.23248 5.6175C5.24123 5.60875 5.27623 5.60875 5.31123 5.60875Z" fill="#079669"/>
<path d="M5.215 13.3701C4.13875 13.3701 3.10625 13.0813 2.31 12.5563C1.54 12.0401 1.09375 11.2963 1.09375 10.5088C1.09375 9.73007 1.54 8.98631 2.31 8.47006C3.36 7.77006 4.83875 7.49882 6.265 7.75257C6.62375 7.81382 6.86 8.15507 6.79875 8.51382C6.7375 8.87257 6.39625 9.11757 6.0375 9.04757C4.9525 8.85507 3.80625 9.05631 3.03625 9.56381C2.625 9.83506 2.40625 10.1676 2.40625 10.5088C2.40625 10.8501 2.63375 11.1913 3.03625 11.4626C3.7975 11.9701 4.935 12.1713 6.01125 11.9876C6.37 11.9263 6.71125 12.1713 6.7725 12.5213C6.83375 12.8801 6.5975 13.2213 6.23875 13.2826C5.8975 13.3438 5.55625 13.3701 5.215 13.3701Z" fill="#079669"/>
<path d="M10.4998 13.4574C10.4736 13.4574 10.4561 13.4574 10.4298 13.4574H10.3861C8.73235 13.4049 7.4986 12.1274 7.4986 10.5524C7.4986 8.94242 8.8111 7.63867 10.4123 7.63867C12.0136 7.63867 13.3261 8.95117 13.3261 10.5524C13.3173 12.1362 12.0836 13.4137 10.5086 13.4662C10.5086 13.4574 10.5086 13.4574 10.4998 13.4574ZM10.4123 8.94243C9.5286 8.94243 8.8111 9.65993 8.8111 10.5437C8.8111 11.4099 9.48485 12.1099 10.3511 12.1449C10.3598 12.1362 10.4298 12.1362 10.5086 12.1449C11.3573 12.1012 12.0136 11.4012 12.0223 10.5437C12.0223 9.66868 11.3048 8.94243 10.4123 8.94243Z" fill="#079669"/>
<path d="M10.4998 19.9149C9.44981 19.9149 8.39981 19.6436 7.58606 19.0924C6.81606 18.5761 6.36981 17.8411 6.36981 17.0536C6.36981 16.2749 6.80731 15.5224 7.58606 15.0061C9.22231 13.9211 11.7861 13.9211 13.4136 15.0061C14.1836 15.5224 14.6298 16.2574 14.6298 17.0449C14.6298 17.8236 14.1923 18.5761 13.4136 19.0924C12.5998 19.6349 11.5498 19.9149 10.4998 19.9149ZM8.31231 16.1086C7.90106 16.3799 7.68231 16.7211 7.68231 17.0624C7.68231 17.4036 7.90981 17.7361 8.31231 18.0074C9.49356 18.8036 11.4973 18.8036 12.6786 18.0074C13.0898 17.7361 13.3086 17.3949 13.3086 17.0536C13.3086 16.7124 13.0811 16.3799 12.6786 16.1086C11.5061 15.3124 9.50231 15.3211 8.31231 16.1086Z" fill="#079669"/>
</svg>
