<svg width="10" height="10" viewBox="0 0 10 10" fill="none" xmlns="http://www.w3.org/2000/svg">
<path d="M8.76491 6.00912C8.69049 6.30353 8.58159 6.57943 8.43822 6.83684C8.26238 7.18392 8.02448 7.50552 7.7522 7.76949C6.84759 8.67625 5.49772 9.0985 4.15448 8.75894C3.20685 8.51939 2.44192 7.94425 1.94675 7.19263C1.73121 6.88365 1.56409 6.53799 1.45916 6.17867C1.25829 5.54059 1.23022 4.83853 1.40466 4.14851C1.65584 3.15488 2.2817 2.34407 3.09318 1.84445C3.93923 1.32421 4.98465 1.1382 6.01509 1.39869C7.10073 1.67313 7.96654 2.39122 8.43825 3.3131C8.86194 4.11517 9.00214 5.07069 8.76491 6.00912Z" stroke="#079669" stroke-width="0.759179" stroke-miterlimit="10" stroke-linecap="round" stroke-linejoin="round"/>
<path d="M6.4614 5.40731L3.71973 4.71423" stroke="#079669" stroke-width="0.759179" stroke-miterlimit="10" stroke-linecap="round" stroke-linejoin="round"/>
<path d="M5.42969 3.71741L4.73429 6.46829" stroke="#079669" stroke-width="0.759179" stroke-miterlimit="10" stroke-linecap="round" stroke-linejoin="round"/>
</svg>
