<svg width="1427" height="230" viewBox="0 0 1427 230" fill="none" xmlns="http://www.w3.org/2000/svg">
<g opacity="0.1">
<path d="M196.828 72.4553C196.828 89.2176 193.345 103.451 186.474 114.83L26.0699 110.623C20.6981 110.383 15.4511 112.556 11.4039 116.698C7.35673 120.84 4.81574 126.636 4.30157 132.9L3.10978 145.499C2.21012 145.195 1.41973 144.556 0.858485 143.679C0.297239 142.802 -0.0041802 141.734 4.37969e-05 140.638V12.3156C0.0681559 9.47234 0.83066 6.7114 2.19735 4.35952C3.12624 3.01522 4.29718 1.92747 5.62657 1.1739C6.95595 0.420319 8.41101 0.0194849 9.88797 0L116.253 4.88264C153.012 5.66736 196.828 17.9176 196.828 72.4553Z" fill="white"/>
<path d="M286.987 241.125C286.987 242.341 286.987 243.622 286.987 244.86C286.299 269.782 277.908 293.513 263.438 311.46C248.967 329.406 229.447 340.293 208.654 342.013L9.5133 358.895C9.13361 358.897 8.76842 358.721 8.49655 358.404C8.38486 358.246 8.30178 358.062 8.25265 357.864C8.20352 357.665 8.18933 357.457 8.21106 357.251L28.4765 138.913C28.5568 138.042 28.9073 137.238 29.459 136.661C30.0107 136.084 30.7233 135.776 31.4558 135.797L171.584 139.532L204.605 140.386C226.61 141.009 247.541 151.888 262.94 170.706C278.338 189.523 286.986 214.791 287.04 241.125H286.987Z" fill="white"/>
<path d="M516.01 163.576C527.485 179.325 533.077 199.887 533.077 225.261C533.077 250.635 527.485 271.197 516.01 286.946C504.534 302.695 489.61 310.395 471.217 310.395C451.644 310.395 436.865 300.836 426.697 281.74C426.446 281.238 426.069 280.845 425.619 280.621C425.17 280.397 424.673 280.353 424.201 280.495C423.729 280.637 423.307 280.958 422.998 281.411C422.689 281.863 422.509 282.423 422.484 283.009L421.486 302.98C421.453 303.684 421.198 304.346 420.772 304.83C420.347 305.314 419.783 305.584 419.198 305.583H404.146C403.844 305.583 403.545 305.511 403.267 305.371C402.988 305.231 402.735 305.026 402.522 304.768C402.309 304.509 402.141 304.203 402.027 303.866C401.913 303.529 401.856 303.168 401.858 302.805V51.2527C401.858 50.5217 402.1 49.8207 402.529 49.3038C402.958 48.7869 403.539 48.4966 404.146 48.4966H420.887C421.495 48.4966 422.079 48.7862 422.511 49.3024C422.943 49.8187 423.188 50.5197 423.193 51.2527V166.223C423.19 166.818 423.348 167.398 423.643 167.875C423.939 168.352 424.355 168.7 424.83 168.865C425.304 169.031 425.811 169.006 426.272 168.794C426.734 168.581 427.125 168.193 427.387 167.688C432.176 159.025 438.697 151.952 446.35 147.12C454.003 142.288 462.542 139.853 471.181 140.04C489.61 140.127 504.553 147.849 516.01 163.576ZM467.477 287.58C473.525 287.77 479.533 286.343 485.068 283.4C490.603 280.458 495.527 276.073 499.487 270.562C507.748 258.991 511.743 243.898 511.743 225.261C511.743 206.624 507.748 191.531 499.487 180.288C495.475 174.834 490.548 170.467 485.032 167.477C479.515 164.486 473.535 162.94 467.486 162.94C461.437 162.94 455.456 164.486 449.94 167.477C444.424 170.467 439.497 174.834 435.485 180.288C427.223 191.531 423.229 206.537 423.229 225.261C423.229 243.985 427.223 258.991 435.485 270.562C439.441 276.072 444.362 280.457 449.894 283.4C455.426 286.342 461.431 287.77 467.477 287.58Z" fill="white"/>
<path d="M582.28 51.3043V307.565C582.28 308.315 582 309.035 581.501 309.566C581.003 310.097 580.326 310.395 579.621 310.395H560.315C559.967 310.395 559.622 310.322 559.301 310.179C558.979 310.037 558.687 309.828 558.442 309.565C558.197 309.302 558.003 308.989 557.872 308.646C557.74 308.303 557.674 307.935 557.677 307.565V51.3043C557.677 50.5597 557.955 49.8455 558.45 49.319C558.944 48.7924 559.615 48.4966 560.315 48.4966H579.621C580.323 48.4966 580.996 48.7917 581.494 49.3176C581.992 49.8435 582.275 50.5576 582.28 51.3043Z" fill="white"/>
<path d="M672.495 310.395C653.034 310.395 637.04 302.477 625.04 286.35C613.04 270.222 606.886 249.115 606.886 223.096C606.886 197.077 613.004 175.992 625.04 159.842C637.076 143.692 653.034 135.796 672.495 135.796C691.956 135.796 707.877 143.714 719.95 159.842C732.023 175.969 738.104 197.077 738.104 223.096C738.104 249.115 731.968 270.2 719.95 286.35C707.932 302.5 691.956 310.395 672.495 310.395ZM672.495 287C678.54 287.198 684.545 285.736 690.076 282.718C695.608 279.7 700.529 275.202 704.483 269.549C712.761 257.684 716.755 242.207 716.755 223.096C716.755 203.985 712.761 188.508 704.483 176.979C700.473 171.386 695.548 166.909 690.034 163.843C684.52 160.777 678.542 159.191 672.495 159.191C666.448 159.191 660.47 160.777 654.956 163.843C649.442 166.909 644.517 171.386 640.507 176.979C632.247 188.508 628.235 203.895 628.235 223.096C628.235 242.296 632.247 257.684 640.507 269.549C644.463 275.2 649.384 279.696 654.915 282.713C660.446 285.731 666.45 287.195 672.495 287Z" fill="white"/>
<path d="M865.722 200.037C865.167 200.033 864.632 199.785 864.215 199.34C863.798 198.895 863.527 198.283 863.451 197.615C860.369 173.681 846.839 159.191 828.197 159.191C801.913 159.191 784.286 184.897 784.286 223.096C784.286 261.295 801.913 287 828.197 287C845.584 287 859.225 275.785 866.792 257.594C867.056 256.927 867.525 256.412 868.098 256.16C868.671 255.908 869.302 255.94 869.856 256.248L884.383 264.704C884.944 265.034 885.376 265.619 885.586 266.332C885.797 267.045 885.769 267.829 885.509 268.518C875.135 294.941 854.463 310.395 828.289 310.395C808.503 310.395 792.795 302.477 780.595 286.35C768.671 270.2 762.709 249.115 762.709 223.096C762.709 197.077 768.64 175.992 780.502 159.842C792.703 143.714 808.41 135.796 828.197 135.796C860.627 135.796 880.746 159.169 885.066 196.785C885.11 197.191 885.083 197.604 884.986 197.996C884.888 198.388 884.723 198.75 884.501 199.058C884.279 199.366 884.005 199.613 883.698 199.782C883.391 199.951 883.058 200.038 882.721 200.037H865.722Z" fill="white"/>
<path d="M918.759 258.195C919.056 258.051 919.376 257.976 919.699 257.975C920.022 257.974 920.342 258.047 920.64 258.19C920.938 258.333 921.208 258.542 921.435 258.806C921.661 259.07 921.839 259.383 921.958 259.727C928.802 278.148 941.908 287.358 961.743 287.358C983.406 287.358 994.231 277.911 994.218 259.017C994.343 255.565 993.823 252.122 992.693 248.919C991.563 245.715 989.849 242.825 987.665 240.44C979.405 231.296 966.028 231.296 951.215 227.723C943.809 226.081 936.984 224.128 930.431 222.175C917.906 217.936 908.503 204.575 908.503 183.402C908.231 171.018 912.496 159.921 921.318 150.467C930.14 141.012 942.393 135.796 958.621 135.796C974.558 135.796 986.812 141.012 995.071 151.443C1002.65 160.72 1006.88 170.84 1007.52 181.76C1007.53 182.141 1007.48 182.521 1007.36 182.878C1007.24 183.234 1007.06 183.559 1006.83 183.833C1006.59 184.107 1006.32 184.324 1006.01 184.471C1005.7 184.619 1005.37 184.693 1005.04 184.689H987.141C986.516 184.679 985.919 184.394 985.472 183.895C985.025 183.395 984.762 182.719 984.737 182.004C983.69 166.468 973.453 157.324 958.621 157.324C940.396 157.324 931.284 168.732 931.284 183.957C931.284 204.153 952.921 202.866 973.938 208.37C980.991 210.127 987.934 212.418 994.722 215.228C1007.25 220.444 1016.94 235.757 1016.94 258.906C1016.94 277.793 1006.68 310.395 961.685 310.395C932.719 310.395 913.097 296.613 902.337 269.359C902.07 268.664 902.055 267.877 902.295 267.169C902.535 266.462 903.01 265.892 903.617 265.586L918.759 258.195Z" fill="white"/>
<path d="M1162.09 305.483H1144.98C1144.44 305.482 1143.92 305.258 1143.5 304.85C1143.08 304.441 1142.8 303.873 1142.68 303.24L1136.22 268.697C1136.11 268.122 1135.86 267.603 1135.49 267.212C1135.13 266.821 1134.67 266.578 1134.18 266.519C1133.69 266.459 1133.2 266.586 1132.77 266.88C1132.35 267.174 1132.01 267.622 1131.81 268.159C1121.89 293.864 1103.79 310.395 1081.91 310.395C1066.56 310.395 1054.49 305.124 1045.99 294.918C1041.87 289.948 1038.63 284.031 1036.46 277.521C1034.29 271.012 1033.24 264.043 1033.36 257.033C1033.19 250.965 1034.22 244.934 1036.37 239.436C1038.51 233.939 1041.72 229.13 1045.71 225.406C1054.21 217.488 1064.39 213.54 1076.7 213.54H1123.16C1123.51 213.54 1123.86 213.445 1124.18 213.263C1124.5 213.08 1124.77 212.814 1125 212.485C1125.22 212.156 1125.37 211.771 1125.45 211.36C1125.53 210.949 1125.54 210.521 1125.46 210.109L1121.72 189.495C1120.23 180.942 1116.33 173.265 1110.69 167.748C1105.04 162.232 1097.99 159.211 1090.71 159.191C1079.13 159.191 1070.16 162.803 1063.79 170.407C1063.35 170.929 1062.76 171.221 1062.14 171.221C1061.52 171.221 1060.93 170.929 1060.49 170.407L1050.74 159.191C1050.29 158.653 1050.04 157.923 1050.04 157.161C1050.04 156.4 1050.29 155.67 1050.74 155.132C1061.23 142.346 1075.02 135.796 1092.43 135.796C1116.31 135.796 1136.05 150.309 1142.37 182.9L1164.5 302.006C1164.58 302.433 1164.58 302.876 1164.5 303.301C1164.41 303.727 1164.25 304.123 1164.01 304.459C1163.78 304.795 1163.49 305.062 1163.15 305.24C1162.82 305.418 1162.46 305.501 1162.09 305.483ZM1110.46 274.08C1119.1 265.34 1125.24 253.576 1128.04 240.435C1128.13 240.011 1128.14 239.566 1128.07 239.136C1128 238.705 1127.85 238.3 1127.63 237.951C1127.41 237.603 1127.12 237.32 1126.79 237.124C1126.47 236.929 1126.11 236.826 1125.74 236.823H1080.55C1063.74 236.823 1055.31 243.732 1055.31 257.908C1055.31 275.022 1066.28 286.888 1083.02 286.888C1092.34 287.023 1101.4 282.739 1110.46 274.26V274.08Z" fill="white"/>
<path d="M1268.06 145.497H1285.27C1285.65 145.497 1286.01 145.602 1286.34 145.801C1286.67 146 1286.96 146.289 1287.17 146.642C1287.38 146.995 1287.52 147.402 1287.56 147.828C1287.61 148.255 1287.56 148.687 1287.43 149.09L1239.4 298.942C1239.24 299.454 1238.95 299.898 1238.56 300.211C1238.17 300.525 1237.71 300.694 1237.24 300.696H1214.9C1214.43 300.694 1213.97 300.525 1213.58 300.211C1213.2 299.898 1212.9 299.454 1212.74 298.942L1164.71 149.09C1164.58 148.687 1164.53 148.255 1164.58 147.828C1164.63 147.402 1164.76 146.995 1164.97 146.642C1165.19 146.289 1165.47 146 1165.8 145.801C1166.13 145.602 1166.5 145.497 1166.87 145.497H1183.99C1184.46 145.497 1184.92 145.664 1185.31 145.973C1185.69 146.283 1185.99 146.722 1186.15 147.23L1224.02 265.59C1224.19 266.103 1224.48 266.545 1224.87 266.857C1225.26 267.169 1225.73 267.336 1226.2 267.336C1226.67 267.336 1227.14 267.169 1227.53 266.857C1227.92 266.545 1228.21 266.103 1228.38 265.59L1265.99 147.23C1266.15 146.736 1266.43 146.308 1266.8 145.999C1267.17 145.69 1267.61 145.516 1268.06 145.497Z" fill="white"/>
<path d="M1410.17 277.624L1417.86 293.169C1418.19 293.809 1418.29 294.578 1418.14 295.309C1418 296.04 1417.63 296.674 1417.1 297.072C1405.2 306.044 1391.04 310.395 1375.05 310.395C1353.72 310.395 1336.5 302.477 1323.38 286.35C1310.26 270.222 1303.98 249.115 1303.98 223.096C1303.98 197.077 1310.26 175.992 1323.12 159.842C1335.98 143.692 1352.64 135.796 1373.67 135.796C1407.31 135.796 1426.98 158.227 1426.98 194.116C1427.19 202.21 1425.72 210.239 1422.72 217.483C1419.71 224.726 1415.26 230.956 1409.76 235.612C1398.28 245.511 1383.8 250.454 1366.3 250.439C1354.24 250.683 1342.29 247.615 1331.36 241.466C1330.95 241.252 1330.49 241.182 1330.05 241.266C1329.61 241.35 1329.19 241.583 1328.85 241.94C1328.51 242.297 1328.26 242.762 1328.14 243.281C1328.01 243.801 1328 244.354 1328.12 244.876C1334.19 271.187 1351.43 287.09 1375.05 287.09C1386.27 287.353 1397.32 283.792 1406.93 276.817C1407.19 276.612 1407.48 276.47 1407.78 276.399C1408.08 276.329 1408.39 276.331 1408.69 276.406C1408.99 276.481 1409.28 276.628 1409.53 276.837C1409.79 277.046 1410 277.314 1410.17 277.624ZM1325.95 217.062C1325.91 217.672 1326.03 218.281 1326.29 218.804C1326.56 219.326 1326.95 219.737 1327.42 219.978C1339.18 226.039 1351.85 229.094 1364.64 228.95C1375.81 228.95 1385.12 225.989 1393.07 219.731C1401.01 213.473 1405.09 204.905 1405.09 194.699C1405.09 174.511 1392.06 159.124 1373.65 159.124C1346.61 159.191 1327.94 182.272 1325.95 217.062Z" fill="white"/>
</g>
</svg>
