<svg width="520" height="535" viewBox="0 0 520 535" fill="none" xmlns="http://www.w3.org/2000/svg">
<g clip-path="url(#clip0_659_7729)">
<path d="M447.725 192.091L447.266 428.138C447.249 433.307 445.592 436.95 442.928 438.672C467.472 422.879 492.026 407.09 516.572 391.304C519.234 389.589 520.897 385.944 520.908 380.774L521.363 144.728L447.719 192.085L447.725 192.091Z" fill="#8ACDB4"/>
<path d="M294.472 -19.1759C290.333 -21.8137 286.592 -22.0625 283.882 -20.3261L210.24 27.0313C212.944 25.295 216.691 25.5437 220.828 28.187L432.894 163.679L506.528 116.316L294.472 -19.1759Z" fill="#8ACDB4"/>
<path d="M518.805 132.402C517.355 128.78 515.366 125.318 513.037 122.387C511.08 119.905 508.865 117.809 506.522 116.316L432.889 163.679C435.227 165.166 437.436 167.268 439.395 169.745C441.724 172.67 443.706 176.137 445.161 179.759C446.785 183.846 447.736 188.126 447.725 192.091L521.367 144.734C521.384 140.769 520.433 136.483 518.805 132.402Z" fill="#077753"/>
<path d="M432.896 163.679C441.109 168.926 447.761 181.64 447.726 192.091L447.266 428.138C447.241 438.555 440.55 442.773 432.33 437.521L220.27 302.028C212.05 296.776 205.429 284.052 205.459 273.628L205.924 37.5878C205.949 27.1364 212.614 22.9281 220.834 28.187L432.9 163.679H432.896Z" fill="#C1E6D8"/>
<path d="M338.093 228.801C349.917 220.789 349.288 195.832 336.686 173.057C324.085 150.283 304.285 138.316 292.461 146.329C280.636 154.341 281.266 179.299 293.867 202.073C306.468 224.847 326.268 236.813 338.093 228.801Z" fill="#077753"/>
<path d="M254.416 271.299L374.989 349.814L375.004 346.125C375.199 304.965 348.366 254.025 315.067 232.342C281.773 210.66 254.625 226.453 254.431 267.613L254.416 271.299Z" fill="#077753"/>
<path d="M341.983 255.556L341.523 491.602C341.507 496.774 339.85 500.416 337.186 502.136C361.729 486.343 386.284 470.556 410.83 454.768C413.492 453.053 415.157 449.41 415.165 444.24L415.621 208.194L341.977 255.552L341.983 255.556Z" fill="#8ACDB4"/>
<path d="M188.73 44.2897C184.592 41.6519 180.85 41.4032 178.141 43.1395L104.498 90.4969C107.201 88.7606 110.949 89.0093 115.086 91.6526L327.152 227.144L400.786 179.781L188.73 44.2897Z" fill="#8ACDB4"/>
<path d="M413.063 195.868C411.614 192.245 409.626 188.784 407.297 185.853C405.338 183.37 403.123 181.274 400.78 179.781L327.146 227.144C329.485 228.632 331.694 230.733 333.653 233.211C335.982 236.136 337.966 239.603 339.418 243.225C341.043 247.312 341.993 251.593 341.983 255.556L415.625 208.199C415.642 204.234 414.691 199.949 413.063 195.868Z" fill="#077753"/>
<path d="M327.152 227.144C335.365 232.393 342.017 245.105 341.982 255.556L341.522 491.602C341.497 502.021 334.806 506.24 326.586 500.987L114.526 365.495C106.306 360.242 99.6851 347.517 99.7149 337.095L100.18 101.053C100.205 90.602 106.871 86.3939 115.09 91.6527L327.156 227.144H327.152Z" fill="#C1E6D8"/>
<path d="M232.35 292.273C244.175 284.261 243.545 259.302 230.944 236.528C218.342 213.754 198.542 201.788 186.718 209.8C174.894 217.812 175.524 242.769 188.125 265.545C200.726 288.319 220.526 300.286 232.35 292.273Z" fill="#077753"/>
<path d="M148.672 334.772L269.245 413.284L269.26 409.596C269.454 368.436 242.621 317.496 209.323 295.813C176.03 274.13 148.882 289.924 148.687 331.084L148.672 334.772Z" fill="#077753"/>
<path d="M242.307 325.57L241.847 561.616C241.833 566.785 240.174 570.43 237.512 572.15C262.056 556.356 286.61 540.568 311.154 524.782C313.818 523.067 315.481 519.424 315.492 514.252L315.947 278.207L242.303 325.563L242.307 325.57Z" fill="#8ACDB4"/>
<path d="M89.0558 114.303C84.9184 111.665 81.1757 111.416 78.4676 113.153L4.82422 160.51C7.52751 158.773 11.2751 159.022 15.4125 161.666L227.479 297.157L301.111 249.795L89.0558 114.303Z" fill="#8ACDB4"/>
<path d="M313.389 265.88C311.939 262.26 309.95 258.798 307.621 255.866C305.664 253.383 303.449 251.288 301.106 249.795L227.473 297.157C229.811 298.644 232.02 300.747 233.979 303.223C236.308 306.148 238.29 309.616 239.745 313.239C241.369 317.324 242.317 321.604 242.309 325.57L315.951 278.211C315.966 274.247 315.017 269.963 313.389 265.88Z" fill="#077753"/>
<path d="M227.478 297.157C235.692 302.404 242.344 315.119 242.309 325.57L241.849 561.616C241.824 572.033 235.133 576.253 226.913 570.999L14.8478 435.508C6.62804 430.254 0.00722976 417.53 0.0372108 407.106L0.501916 171.067C0.526902 160.615 7.19268 156.407 15.4125 161.666L227.478 297.157Z" fill="#C1E6D8"/>
<path d="M132.678 362.28C144.502 354.268 143.873 329.312 131.272 306.535C118.671 283.761 98.8703 271.794 87.0462 279.807C75.2221 287.819 75.8519 312.778 88.453 335.552C101.054 358.326 120.855 370.293 132.678 362.28Z" fill="#077753"/>
<path d="M48.9941 404.779L169.568 483.291L169.583 479.603C169.778 438.445 142.945 387.503 109.646 365.82C76.3518 344.14 49.204 359.931 49.0091 401.091L48.9941 404.779Z" fill="#077753"/>
</g>
<defs>
<clipPath id="clip0_659_7729">
<rect width="519.962" height="550.206" fill="white" transform="translate(0.0371094 0.803955)"/>
</clipPath>
</defs>
</svg>
