<svg width="1440" height="348" viewBox="0 0 1440 348" fill="none" xmlns="http://www.w3.org/2000/svg">
<g clip-path="url(#clip0_696_933)">
<g clip-path="url(#clip1_696_933)">
<path d="M757.826 469.531C740.973 470.117 726.625 456.949 725.355 439.732L719.206 316.648L802.281 322.606L791.473 437.433C788.905 455.605 774.676 468.946 757.823 469.532L757.826 469.531Z" fill="#6A3636"/>
<g filter="url(#filter0_d_696_933)">
<path d="M700.643 437.699C683.79 438.285 669.442 425.118 668.172 407.901L662.023 284.817L745.097 290.775L734.291 405.601C731.723 423.774 717.494 437.115 700.64 437.701L700.643 437.699Z" fill="#6A3636"/>
</g>
<g filter="url(#filter1_d_696_933)">
<path d="M874.016 206.913L811.641 169.398L775.627 147.738L755.313 135.523C733.021 122.115 704.451 128.831 690.255 150.818L642.275 225.132L642.124 225.366L631.21 242.268C629.496 244.92 628.659 248.07 628.817 251.256L633.601 347.153C634.87 364.37 649.219 377.536 666.075 376.949C682.931 376.361 697.165 363.017 699.732 344.847L707.294 264.559L789.398 313.94L837.259 521.4L956.747 456.643L916.876 271.765L915.804 266.499C910.724 241.517 895.537 219.86 874.011 206.916L874.016 206.913Z" fill="#6A3636"/>
</g>
<path d="M645.448 324.112L639.192 308.577C637.642 304.73 635.501 301.155 632.85 297.996L631.38 296.243L631.26 295.997L633.805 347.012C633.958 349.076 634.3 351.085 634.811 353.021L634.903 352.974C645.276 347.7 649.874 335.111 645.446 324.116L645.448 324.112Z" fill="#FFC4CA"/>
</g>
<path d="M713 191C764.538 191 806 149.538 806 98C806 46.4622 764.538 5 713 5C661.462 5 620 46.4622 620 98C620 149.538 661.462 191 713 191Z" fill="#2775CA"/>
<path d="M738.575 112.725C738.575 99.1625 730.438 94.5125 714.163 92.5753C702.538 91.025 700.213 87.9253 700.213 82.4997C700.213 77.074 704.088 73.5875 711.838 73.5875C718.813 73.5875 722.688 75.9125 724.625 81.725C725.013 82.8875 726.175 83.6622 727.338 83.6622H733.537C735.088 83.6622 736.25 82.4997 736.25 80.9503V80.5625C734.7 72.0372 727.725 65.45 718.813 64.6753V55.3753C718.813 53.825 717.65 52.6625 715.713 52.2747H709.9C708.35 52.2747 707.188 53.4372 706.8 55.3753V64.2875C695.175 65.8378 687.813 73.5875 687.813 83.2753C687.813 96.0628 695.563 101.1 711.838 103.038C722.688 104.975 726.175 107.3 726.175 113.5C726.175 119.701 720.75 123.963 713.388 123.963C703.312 123.963 699.825 119.7 698.662 113.887C698.275 112.338 697.113 111.562 695.95 111.562H689.362C687.813 111.562 686.65 112.725 686.65 114.275V114.663C688.2 124.35 694.4 131.325 707.188 133.263V142.563C707.188 144.112 708.35 145.275 710.287 145.662H716.1C717.65 145.662 718.813 144.5 719.2 142.563V133.263C730.825 131.325 738.575 123.187 738.575 112.725V112.725Z" fill="white"/>
<path d="M730.825 34.0627C731.212 32.5126 732.762 31.7376 734.312 32.512C755.624 39.487 772.675 56.15 779.65 78.2375C791.275 115.05 771.124 154.188 734.312 165.813C733.924 166.199 733.15 166.199 732.762 166.199C731.212 165.813 730.437 164.65 730.437 163.1V157.675C730.437 155.737 731.212 154.575 732.762 153.8C748.649 147.988 761.437 135.588 767.25 119.313C778.488 89.4748 762.987 55.7628 732.762 44.9133C731.6 44.1377 730.437 42.5877 730.437 41.0374V35.6125C730.437 34.8372 730.437 34.4505 730.825 34.0627ZM693.237 32.1252C694.787 32.5121 695.562 33.6746 695.562 35.2249V40.6497C695.562 42.5878 694.787 43.75 693.237 44.5247C677.35 50.3371 664.562 62.737 658.75 79.012C647.512 108.85 663.012 142.563 693.237 153.412C694.399 154.188 695.562 155.737 695.562 156.9V162.325C695.562 163.1 695.562 163.488 695.174 163.874C694.788 165.424 693.237 166.2 691.687 165.425C669.987 158.45 653.324 141.787 646.349 120.087C634.725 83.2751 654.875 44.1369 691.687 32.512C692.075 32.1254 692.849 32.1252 693.237 32.1252Z" fill="white"/>
<path d="M765.977 137.683C752.917 113.49 723.456 103.86 699.139 116.223C674.821 128.586 664.632 158.375 675.718 183.571L675.701 183.579L743.529 400.355C748.613 416.607 758.502 430.867 771.823 441.157L824.082 481.538L910.033 437.84L907.807 370.421C907.285 354.606 902.316 339.259 893.498 326.223L765.979 137.678L765.977 137.683Z" fill="url(#paint0_linear_696_933)"/>
<path d="M703.839 125.775C684.101 135.809 676.126 160.355 686.024 180.601C691.675 192.157 701.927 199.811 713.356 202.388C713.564 202.435 713.773 202.479 713.981 202.52L757.846 180.22C757.937 180.024 758.03 179.827 758.118 179.632C762.978 168.772 763.153 155.816 757.505 144.263C747.606 124.017 723.58 115.74 703.842 125.773L703.839 125.775Z" fill="#FFC4CA"/>
<path d="M757.834 180.272C757.925 180.076 758.016 179.879 758.106 179.685C749.518 177.747 740.264 178.677 731.801 182.982C723.338 187.285 717.04 194.264 713.388 202.425C713.596 202.472 713.805 202.516 714.012 202.556L757.836 180.271L757.834 180.272Z" fill="#FFFAF3"/>
</g>
<defs>
<filter id="filter0_d_696_933" x="592.237" y="198.925" width="297.803" height="367.63" filterUnits="userSpaceOnUse" color-interpolation-filters="sRGB">
<feFlood flood-opacity="0" result="BackgroundImageFix"/>
<feColorMatrix in="SourceAlpha" type="matrix" values="0 0 0 0 0 0 0 0 0 0 0 0 0 0 0 0 0 0 127 0" result="hardAlpha"/>
<feOffset dx="37.5776" dy="21.4729"/>
<feGaussianBlur stdDeviation="53.6822"/>
<feColorMatrix type="matrix" values="0 0 0 0 0.176471 0 0 0 0 0.0823529 0 0 0 0 0.286275 0 0 0 0.3 0"/>
<feBlend mode="normal" in2="BackgroundImageFix" result="effect1_dropShadow_696_933"/>
<feBlend mode="normal" in="SourceGraphic" in2="effect1_dropShadow_696_933" result="shape"/>
</filter>
<filter id="filter1_d_696_933" x="559.012" y="42.7403" width="542.677" height="607.497" filterUnits="userSpaceOnUse" color-interpolation-filters="sRGB">
<feFlood flood-opacity="0" result="BackgroundImageFix"/>
<feColorMatrix in="SourceAlpha" type="matrix" values="0 0 0 0 0 0 0 0 0 0 0 0 0 0 0 0 0 0 127 0" result="hardAlpha"/>
<feOffset dx="37.5776" dy="21.4729"/>
<feGaussianBlur stdDeviation="53.6822"/>
<feColorMatrix type="matrix" values="0 0 0 0 0.176471 0 0 0 0 0.0823529 0 0 0 0 0.286275 0 0 0 0.3 0"/>
<feBlend mode="normal" in2="BackgroundImageFix" result="effect1_dropShadow_696_933"/>
<feBlend mode="normal" in="SourceGraphic" in2="effect1_dropShadow_696_933" result="shape"/>
</filter>
<linearGradient id="paint0_linear_696_933" x1="865.859" y1="460.302" x2="692.611" y2="119.542" gradientUnits="userSpaceOnUse">
<stop offset="0.19" stop-color="#6A3636"/>
<stop offset="1" stop-color="#462E2C"/>
</linearGradient>
<clipPath id="clip0_696_933">
<rect width="1440" height="348" fill="white"/>
</clipPath>
<clipPath id="clip1_696_933">
<rect width="516.681" height="585.649" fill="white" transform="matrix(-0.489188 0.872178 -0.859646 -0.51089 1153.21 267.362)"/>
</clipPath>
</defs>
</svg>
