<svg width="420" height="387" viewBox="0 0 420 387" fill="none" xmlns="http://www.w3.org/2000/svg">
<g clip-path="url(#clip0_659_7412)">
<rect y="141.253" width="387.643" height="245.22" rx="8.09291" transform="rotate(-1.38782 0 141.253)" fill="white"/>
<rect x="34.9922" y="322.236" width="329.381" height="32.3716" rx="8.09291" transform="rotate(-1.38782 34.9922 322.236)" fill="#079669"/>
<path d="M171.456 339.648L171.264 331.719L176.531 331.591L176.564 332.95L172.769 333.042L172.816 334.968L176.327 334.883L176.36 336.242L172.849 336.327L172.928 339.612L171.456 339.648ZM177.119 337.187L177.035 333.732L178.451 333.698L178.532 337.039C178.541 337.409 178.661 337.709 178.893 337.937C179.133 338.158 179.438 338.264 179.808 338.255C180.178 338.246 180.473 338.126 180.694 337.894C180.923 337.654 181.033 337.349 181.024 336.979L180.943 333.638L182.359 333.603L182.498 339.38L181.196 339.412L181.069 338.848L181.012 338.849C180.924 338.965 180.799 339.081 180.635 339.199C180.294 339.433 179.896 339.556 179.443 339.567C178.786 339.583 178.237 339.374 177.796 338.939C177.362 338.496 177.136 337.912 177.119 337.187ZM183.627 339.353L183.487 333.576L184.789 333.545L184.916 334.108L184.973 334.107C185.061 333.991 185.186 333.875 185.35 333.758C185.692 333.523 186.089 333.4 186.542 333.389C187.199 333.373 187.745 333.586 188.178 334.029C188.62 334.464 188.849 335.044 188.867 335.769L188.95 339.224L187.534 339.258L187.453 335.917C187.445 335.547 187.32 335.251 187.081 335.03C186.848 334.802 186.547 334.692 186.177 334.701C185.807 334.71 185.508 334.834 185.28 335.074C185.059 335.306 184.953 335.607 184.962 335.977L185.043 339.318L183.627 339.353ZM191.524 337.529C191.803 337.817 192.162 337.956 192.6 337.945C193.038 337.935 193.389 337.779 193.654 337.478C193.918 337.169 194.044 336.747 194.031 336.211C194.018 335.675 193.872 335.262 193.593 334.975C193.314 334.679 192.955 334.537 192.517 334.547C192.079 334.558 191.728 334.718 191.463 335.026C191.199 335.327 191.073 335.746 191.086 336.282C191.099 336.818 191.245 337.234 191.524 337.529ZM194.271 339.095L194.142 338.475L194.086 338.476C193.976 338.622 193.843 338.75 193.687 338.86C193.33 339.11 192.903 339.241 192.405 339.253C191.649 339.272 191.008 339.011 190.482 338.473C189.962 337.926 189.692 337.207 189.67 336.316C189.648 335.425 189.884 334.698 190.377 334.134C190.876 333.563 191.504 333.269 192.259 333.25C192.712 333.239 193.131 333.354 193.514 333.594C193.675 333.696 193.81 333.813 193.919 333.947L193.976 333.945L193.909 331.17L195.325 331.136L195.517 339.065L194.271 339.095ZM200.159 338.952L197.985 331.071L199.627 331.032L201.121 336.549L201.347 336.543L202.629 330.959L204.328 330.918L205.878 336.434L206.104 336.428L207.329 330.845L208.972 330.805L207.181 338.782L205.143 338.831L203.652 333.428L203.425 333.433L202.198 338.903L200.159 338.952ZM213.025 338.64L212.898 338.077L212.842 338.078C212.747 338.201 212.617 338.318 212.454 338.428C212.097 338.663 211.684 338.786 211.216 338.798C210.582 338.813 210.068 338.655 209.674 338.325C209.289 337.994 209.09 337.584 209.078 337.093C209.064 336.504 209.256 336.031 209.655 335.673C210.055 335.316 210.64 335.128 211.41 335.11L212.712 335.078L212.71 334.965C212.702 334.64 212.601 334.382 212.408 334.19C212.222 333.998 211.974 333.906 211.664 333.913C211.37 333.921 211.134 334.002 210.956 334.157C210.786 334.312 210.688 334.485 210.663 334.674L209.247 334.709C209.302 334.186 209.533 333.738 209.94 333.366C210.346 332.993 210.912 332.798 211.637 332.781C212.362 332.763 212.952 332.96 213.408 333.373C213.871 333.784 214.11 334.304 214.125 334.93L214.215 338.612L213.025 338.64ZM212.743 336.324L212.738 336.154L211.549 336.183C210.832 336.2 210.479 336.454 210.491 336.945C210.496 337.172 210.58 337.351 210.742 337.483C210.904 337.608 211.128 337.666 211.415 337.659C211.845 337.649 212.175 337.528 212.403 337.296C212.639 337.056 212.752 336.732 212.743 336.324ZM215.345 338.584L215.153 330.656L216.569 330.621L216.761 338.55L215.345 338.584ZM218.003 338.52L217.811 330.591L219.227 330.557L219.419 338.486L218.003 338.52ZM221.654 335.031L224.599 334.96C224.522 334.577 224.356 334.267 224.101 334.031C223.853 333.796 223.537 333.682 223.152 333.692C222.744 333.702 222.411 333.831 222.153 334.079C221.902 334.319 221.736 334.637 221.654 335.031ZM224.414 336.665L225.887 336.629C225.852 336.773 225.781 336.937 225.672 337.121C225.57 337.298 225.42 337.498 225.222 337.722C225.03 337.938 224.763 338.122 224.419 338.274C224.075 338.418 223.692 338.495 223.269 338.506C222.415 338.526 221.703 338.264 221.13 337.719C220.565 337.166 220.272 336.451 220.251 335.575C220.23 334.699 220.488 333.975 221.026 333.403C221.571 332.823 222.27 332.523 223.123 332.502C223.916 332.483 224.591 332.746 225.148 333.292C225.713 333.83 226.005 334.507 226.025 335.322C226.027 335.39 226.018 335.526 226.001 335.731L225.982 335.89L221.678 335.994C221.748 336.4 221.926 336.725 222.211 336.967C222.497 337.21 222.84 337.326 223.24 337.316C223.542 337.309 223.797 337.239 224.005 337.105C224.214 336.964 224.35 336.817 224.414 336.665ZM227.144 336.938L227.07 333.88L226.164 333.902L226.131 332.543L227.037 332.521L226.997 330.879L228.413 330.844L228.453 332.487L229.756 332.455L229.789 333.814L228.486 333.846L228.553 336.621C228.56 336.885 228.695 337.014 228.959 337.008L229.865 336.986L229.896 338.232L228.65 338.262C228.174 338.273 227.805 338.165 227.542 337.937C227.287 337.702 227.155 337.369 227.144 336.938Z" fill="white"/>
<rect x="31.4062" y="174.179" width="329.381" height="131.914" rx="8.09291" transform="rotate(-1.38782 31.4062 174.179)" fill="#ECFDF5"/>
<path d="M44.5089 197.776L45.5283 197.751C45.5363 198.081 45.6953 198.363 46.0053 198.595C46.3218 198.827 46.7227 198.937 47.2082 198.925C47.7389 198.912 48.1283 198.812 48.3763 198.625C48.6242 198.431 48.7444 198.179 48.7368 197.868C48.7248 197.37 48.3286 197.055 47.5483 196.925L46.2317 196.714C45.6986 196.63 45.2924 196.436 45.013 196.132C44.7401 195.828 44.5979 195.436 44.5863 194.957C44.5725 194.387 44.7811 193.91 45.2121 193.524C45.643 193.131 46.2274 192.926 46.9652 192.908C47.7808 192.888 48.4168 193.08 48.8735 193.483C49.3364 193.88 49.5756 194.396 49.5909 195.03L48.5715 195.055C48.5635 194.725 48.4143 194.443 48.1237 194.211C47.8331 193.978 47.4548 193.868 46.9888 193.879C46.5486 193.89 46.2048 193.998 45.9572 194.205C45.716 194.405 45.5988 194.648 45.6057 194.932C45.6173 195.411 45.9646 195.711 46.6475 195.83L47.7201 195.998C48.4092 196.105 48.916 196.306 49.2405 196.603C49.5713 196.892 49.7432 197.306 49.7562 197.843C49.7704 198.426 49.5587 198.91 49.1212 199.296C48.6835 199.676 48.0537 199.876 47.2317 199.896C46.4097 199.916 45.7542 199.724 45.2652 199.322C44.7762 198.919 44.5241 198.404 44.5089 197.776ZM50.5318 197.776L50.4612 194.863L51.4321 194.84L51.5026 197.752C51.5103 198.07 51.627 198.342 51.8527 198.57C52.0847 198.791 52.3658 198.897 52.6959 198.889C53.0519 198.881 53.3469 198.76 53.5808 198.528C53.8212 198.289 53.9375 198.011 53.9298 197.694L53.8592 194.781L54.8301 194.757L54.9477 199.612L54.0739 199.633L53.9651 199.15L53.9165 199.151C53.8092 199.264 53.6918 199.364 53.5644 199.451C53.2584 199.653 52.9112 199.758 52.5229 199.768C51.9339 199.782 51.457 199.612 51.0922 199.258C50.7338 198.898 50.547 198.404 50.5318 197.776ZM55.9193 199.588L55.8017 194.734L56.6755 194.713L56.7843 195.196L56.8329 195.195C56.921 195.089 57.0319 194.989 57.1656 194.895C57.4586 194.694 57.7637 194.589 58.0809 194.582C58.4822 194.572 58.8247 194.677 59.1085 194.897C59.2343 195.01 59.3342 195.121 59.408 195.229L59.4566 195.228C59.538 195.116 59.6615 195 59.827 194.879C60.1839 194.644 60.589 194.521 61.042 194.51C61.5469 194.498 61.9687 194.665 62.3074 195.013C62.6459 195.355 62.8219 195.801 62.8352 196.351L62.9095 199.419L61.9387 199.442L61.8646 196.384C61.8571 196.074 61.7605 195.83 61.5749 195.653C61.3956 195.469 61.1603 195.381 60.869 195.388C60.5713 195.396 60.3212 195.499 60.1188 195.698C59.9164 195.897 59.8187 196.142 59.8258 196.434L59.8999 199.492L58.929 199.515L58.8549 196.457C58.8474 196.146 58.7508 195.903 58.5652 195.726C58.3859 195.542 58.1506 195.454 57.8593 195.461C57.5616 195.468 57.3115 195.572 57.1091 195.771C56.9067 195.97 56.809 196.215 56.8161 196.506L56.8902 199.565L55.9193 199.588ZM63.8292 199.397L63.7116 194.542L64.5854 194.521L64.6942 195.004L64.7428 195.003C64.8309 194.897 64.9418 194.797 65.0755 194.704C65.3685 194.502 65.6736 194.398 65.9908 194.39C66.3921 194.38 66.7346 194.485 67.0184 194.705C67.1442 194.819 67.244 194.929 67.3179 195.038L67.3664 195.037C67.4479 194.925 67.5714 194.808 67.7369 194.688C68.0938 194.452 68.4988 194.329 68.9519 194.318C69.4568 194.306 69.8785 194.474 70.2173 194.822C70.5558 195.163 70.7318 195.609 70.7451 196.159L70.8194 199.227L69.8486 199.251L69.7745 196.193C69.7669 195.882 69.6704 195.638 69.4847 195.461C69.3054 195.278 69.0702 195.19 68.7789 195.197C68.4812 195.204 68.2311 195.307 68.0287 195.506C67.8263 195.705 67.7286 195.951 67.7357 196.242L67.8097 199.3L66.8389 199.324L66.7648 196.265C66.7573 195.955 66.6607 195.711 66.4751 195.534C66.2958 195.351 66.0605 195.263 65.7692 195.27C65.4715 195.277 65.2214 195.38 65.019 195.579C64.8166 195.778 64.7189 196.024 64.726 196.315L64.8001 199.373L63.8292 199.397ZM74.8944 199.129L74.7844 198.597L74.7358 198.598C74.6417 198.723 74.5278 198.833 74.3941 198.927C74.0884 199.142 73.722 199.254 73.2948 199.264C72.7641 199.277 72.3368 199.148 72.0129 198.878C71.689 198.607 71.5216 198.249 71.5108 197.802C71.4987 197.304 71.6543 196.908 71.9775 196.615C72.3072 196.322 72.8021 196.168 73.4623 196.152L74.6758 196.122L74.6735 196.025C74.6658 195.708 74.5692 195.461 74.3835 195.284C74.1979 195.107 73.9465 195.023 73.6294 195.031C73.3187 195.038 73.081 195.115 72.9161 195.262C72.7511 195.402 72.6546 195.559 72.6264 195.735L71.6556 195.758C71.6711 195.331 71.8534 194.97 72.2025 194.677C72.5514 194.377 73.0204 194.22 73.6094 194.205C74.2372 194.19 74.7299 194.343 75.0874 194.665C75.4449 194.987 75.6306 195.432 75.6444 196.002L75.7196 199.109L74.8944 199.129ZM74.6994 197.093L74.6947 196.899L73.5296 196.927C73.1736 196.936 72.9068 197.014 72.729 197.16C72.5577 197.307 72.4748 197.497 72.4805 197.73C72.486 197.956 72.5647 198.133 72.7167 198.258C72.8687 198.384 73.0871 198.444 73.3719 198.437C73.812 198.426 74.1459 198.305 74.3734 198.073C74.6007 197.834 74.7094 197.507 74.6994 197.093ZM76.6435 199.086L76.5259 194.232L77.3511 194.212L77.4588 194.646L77.5073 194.645C77.5136 194.639 77.5325 194.615 77.5639 194.576C77.6018 194.536 77.6238 194.51 77.63 194.497C77.6426 194.483 77.668 194.46 77.706 194.427C77.7439 194.387 77.7756 194.36 77.8012 194.347C77.8268 194.333 77.862 194.316 77.9068 194.296C77.9515 194.269 77.9964 194.251 78.0416 194.244C78.093 194.229 78.1511 194.218 78.2156 194.21C78.28 194.196 78.3478 194.188 78.419 194.186L79.2928 194.165L79.314 195.039L78.5373 195.057C77.8577 195.074 77.526 195.419 77.5424 196.092L77.6143 199.063L76.6435 199.086ZM79.8492 200.951L79.8281 200.078L80.7989 200.054C80.8831 200.052 80.9535 200.018 81.0102 199.952C81.067 199.892 81.1043 199.826 81.122 199.755L81.2667 199.314L79.1506 194.168L80.17 194.144L81.6671 197.799L81.8613 197.794L83.0341 194.074L84.0535 194.049L82.0622 200.072C81.9656 200.359 81.8282 200.57 81.6501 200.704C81.4786 200.844 81.2181 200.918 80.8686 200.927L79.8492 200.951Z" fill="#6B788E"/>
<path d="M44.6223 218.481L46.9333 211.625L48.4867 211.588L51.1271 218.324L50.0106 218.351L49.3892 216.763L46.2825 216.838L45.7388 218.454L44.6223 218.481ZM46.5999 215.908L49.0271 215.849L47.8353 212.769L47.6412 212.774L46.5999 215.908ZM51.4661 218.315L51.3485 213.461L52.2223 213.44L52.3311 213.923L52.3797 213.922C52.4678 213.816 52.5787 213.716 52.7124 213.622C53.0054 213.421 53.3105 213.316 53.6277 213.309C54.029 213.299 54.3715 213.404 54.6553 213.624C54.7811 213.737 54.8809 213.848 54.9548 213.957L55.0034 213.955C55.0848 213.843 55.2083 213.727 55.3738 213.606C55.7307 213.371 56.1357 213.248 56.5888 213.237C57.0937 213.225 57.5154 213.393 57.8542 213.741C58.1927 214.082 58.3687 214.528 58.382 215.078L58.4563 218.146L57.4855 218.17L57.4114 215.111C57.4038 214.801 57.3073 214.557 57.1217 214.38C56.9424 214.197 56.7071 214.108 56.4158 214.116C56.1181 214.123 55.868 214.226 55.6656 214.425C55.4632 214.624 55.3655 214.87 55.3726 215.161L55.4466 218.219L54.4758 218.243L54.4017 215.184C54.3942 214.874 54.2976 214.63 54.112 214.453C53.9327 214.27 53.6974 214.181 53.4061 214.188C53.1084 214.196 52.8583 214.299 52.6559 214.498C52.4535 214.697 52.3558 214.942 52.3629 215.234L52.437 218.292L51.4661 218.315ZM60.4823 216.873C60.7678 217.164 61.1209 217.304 61.5416 217.294C61.9623 217.284 62.305 217.127 62.5696 216.822C62.8406 216.511 62.97 216.107 62.9579 215.608C62.9459 215.11 62.7971 214.715 62.5115 214.424C62.2323 214.127 61.8824 213.983 61.4616 213.993C61.0409 214.003 60.6951 214.164 60.4242 214.475C60.1595 214.779 60.0333 215.181 60.0453 215.679C60.0574 216.177 60.2031 216.575 60.4823 216.873ZM63.2837 217.427C62.8419 217.904 62.2683 218.151 61.5628 218.168C60.8573 218.185 60.2691 217.966 59.7983 217.511C59.3339 217.056 59.0927 216.453 59.0745 215.703C59.0563 214.952 59.2681 214.338 59.7099 213.861C60.1581 213.384 60.735 213.137 61.4405 213.119C62.146 213.102 62.7309 213.321 63.1953 213.776C63.6661 214.231 63.9106 214.834 63.9288 215.585C63.947 216.336 63.732 216.95 63.2837 217.427ZM64.6695 216.053L64.5989 213.14L65.5698 213.117L65.6403 216.029C65.648 216.346 65.7647 216.619 65.9904 216.846C66.2224 217.067 66.5035 217.174 66.8336 217.166C67.1896 217.157 67.4846 217.037 67.7185 216.805C67.9589 216.566 68.0752 216.288 68.0675 215.97L67.9969 213.058L68.9678 213.034L69.0854 217.889L68.2116 217.91L68.1028 217.427L68.0542 217.428C67.9469 217.541 67.8295 217.641 67.7021 217.728C67.3961 217.93 67.0489 218.035 66.6606 218.044C66.0716 218.059 65.5947 217.889 65.2299 217.535C64.8715 217.175 64.6847 216.681 64.6695 216.053ZM70.057 217.865L69.9394 213.011L70.8132 212.99L70.922 213.473L70.9706 213.471C71.0779 213.359 71.1953 213.259 71.3227 213.172C71.6287 212.97 71.9759 212.864 72.3642 212.855C72.9532 212.841 73.4269 213.014 73.7854 213.374C74.1501 213.728 74.3401 214.219 74.3553 214.847L74.4259 217.759L73.455 217.783L73.3845 214.87C73.3768 214.553 73.2569 214.284 73.0249 214.063C72.7992 213.835 72.5213 213.725 72.1912 213.733C71.8352 213.742 71.5371 213.866 71.2968 214.105C71.0628 214.337 70.9496 214.612 70.9573 214.929L71.0279 217.842L70.057 217.865ZM75.5241 216.713L75.4536 213.8L74.6769 213.819L74.6545 212.896L75.4312 212.878L75.3983 211.518L76.3692 211.495L76.4021 212.854L77.5186 212.827L77.5409 213.749L76.4244 213.776L76.4915 216.543C76.4962 216.738 76.5956 216.832 76.7898 216.828L77.615 216.808L77.6362 217.681L76.6168 217.706C76.2737 217.714 76.0062 217.63 75.8141 217.454C75.6285 217.277 75.5318 217.03 75.5241 216.713ZM80.7725 216.585L80.7019 213.673L79.9252 213.692L79.9029 212.769L80.6796 212.751L80.6467 211.391L81.6175 211.368L81.6505 212.727L82.7669 212.7L82.7893 213.622L81.6728 213.649L81.7398 216.416C81.7445 216.61 81.844 216.705 82.0381 216.7L82.8634 216.681L82.8845 217.554L81.8651 217.579C81.5221 217.587 81.2545 217.503 81.0624 217.326C80.8768 217.15 80.7802 216.903 80.7725 216.585ZM84.5802 216.289C84.8657 216.58 85.2188 216.721 85.6395 216.71C86.0602 216.7 86.4029 216.543 86.6675 216.239C86.9385 215.928 87.0679 215.523 87.0558 215.025C87.0438 214.526 86.895 214.132 86.6094 213.841C86.3302 213.543 85.9803 213.399 85.5595 213.409C85.1388 213.42 84.793 213.58 84.5221 213.891C84.2574 214.195 84.1312 214.597 84.1432 215.095C84.1553 215.594 84.301 215.992 84.5802 216.289ZM87.3816 216.843C86.9398 217.32 86.3662 217.567 85.6607 217.584C84.9552 217.601 84.367 217.382 83.8962 216.927C83.4318 216.472 83.1906 215.87 83.1724 215.119C83.1542 214.368 83.366 213.754 83.8078 213.277C84.256 212.8 84.8329 212.553 85.5384 212.536C86.2439 212.519 86.8288 212.738 87.2932 213.193C87.764 213.647 88.0085 214.25 88.0267 215.001C88.0449 215.752 87.8299 216.366 87.3816 216.843ZM91.1964 217.353L91.1012 213.421L90.3245 213.44L90.3021 212.517L91.0788 212.499L91.0577 211.625C91.0506 211.334 91.1418 211.088 91.3313 210.89C91.5207 210.691 91.7611 210.588 92.0524 210.581L93.0232 210.557L93.0444 211.431L92.3163 211.449C92.1221 211.453 92.0273 211.553 92.0321 211.747L92.0497 212.475L93.0691 212.45L93.0914 213.373L92.072 213.397L92.1673 217.329L91.1964 217.353ZM93.7218 215.349L93.6512 212.436L94.6221 212.413L94.6927 215.325C94.7003 215.642 94.817 215.915 95.0427 216.143C95.2748 216.364 95.5558 216.47 95.8859 216.462C96.2419 216.454 96.5369 216.333 96.7709 216.101C97.0112 215.862 97.1275 215.584 97.1198 215.267L97.0493 212.354L98.0201 212.33L98.1377 217.185L97.264 217.206L97.1551 216.723L97.1066 216.724C96.9992 216.837 96.8818 216.937 96.7544 217.024C96.4484 217.226 96.1013 217.331 95.7129 217.341C95.1239 217.355 94.6471 217.185 94.2823 216.831C93.9238 216.471 93.737 215.977 93.7218 215.349ZM99.1094 217.161L98.9917 212.307L99.8655 212.286L99.9744 212.769L100.023 212.768C100.13 212.655 100.248 212.555 100.375 212.468C100.681 212.266 101.028 212.16 101.417 212.151C102.006 212.137 102.479 212.31 102.838 212.67C103.202 213.024 103.392 213.515 103.408 214.143L103.478 217.055L102.507 217.079L102.437 214.166C102.429 213.849 102.309 213.58 102.077 213.359C101.852 213.131 101.574 213.021 101.244 213.029C100.888 213.038 100.589 213.162 100.349 213.401C100.115 213.633 100.002 213.908 100.01 214.225L100.08 217.138L99.1094 217.161ZM108.043 216.945L107.932 216.365L107.883 216.366C107.551 216.827 107.055 217.066 106.395 217.082C105.748 217.098 105.208 216.881 104.776 216.431C104.345 215.982 104.119 215.375 104.101 214.612C104.082 213.848 104.278 213.231 104.688 212.761C105.097 212.292 105.626 212.049 106.273 212.033C106.558 212.026 106.818 212.072 107.053 212.17C107.295 212.261 107.452 212.342 107.525 212.411C107.598 212.474 107.688 212.562 107.794 212.676L107.843 212.675L107.781 210.151L108.752 210.128L108.917 216.924L108.043 216.945ZM105.499 215.773C105.778 216.07 106.118 216.214 106.52 216.205C106.921 216.195 107.25 216.035 107.508 215.724C107.773 215.413 107.899 215.012 107.887 214.52C107.875 214.028 107.73 213.633 107.451 213.336C107.178 213.038 106.841 212.894 106.44 212.904C106.038 212.913 105.705 213.074 105.441 213.384C105.183 213.695 105.06 214.096 105.072 214.588C105.084 215.08 105.226 215.475 105.499 215.773Z" fill="#121212"/>
<path d="M48.6764 285.574L48.6176 283.147L46.036 278.838L47.1622 278.81L49.0251 281.922L49.2192 281.918L50.8806 278.72L52.0069 278.693L49.637 283.122L49.6958 285.549L48.6764 285.574ZM52.9952 284.245C53.2808 284.536 53.6339 284.677 54.0546 284.666C54.4753 284.656 54.818 284.499 55.0826 284.195C55.3535 283.884 55.483 283.479 55.4709 282.981C55.4588 282.482 55.31 282.088 55.0245 281.797C54.7453 281.499 54.3953 281.355 53.9746 281.365C53.5539 281.376 53.2081 281.536 52.9371 281.847C52.6725 282.151 52.5462 282.553 52.5583 283.051C52.5704 283.55 52.716 283.948 52.9952 284.245ZM55.7967 284.799C55.3549 285.276 54.7812 285.523 54.0758 285.54C53.3703 285.557 52.7821 285.338 52.3113 284.883C51.8469 284.428 51.6056 283.826 51.5874 283.075C51.5693 282.324 51.781 281.71 52.2228 281.233C52.6711 280.756 53.248 280.509 53.9534 280.492C54.6589 280.475 55.2439 280.694 55.7082 281.149C56.1791 281.603 56.4236 282.206 56.4418 282.957C56.46 283.708 56.2449 284.322 55.7967 284.799ZM57.1824 283.425L57.1119 280.512L58.0827 280.489L58.1533 283.401C58.161 283.718 58.2777 283.991 58.5034 284.219C58.7354 284.44 59.0165 284.546 59.3466 284.538C59.7025 284.53 59.9975 284.409 60.2315 284.177C60.4718 283.938 60.5881 283.66 60.5805 283.343L60.5099 280.43L61.4808 280.406L61.5984 285.261L60.7246 285.282L60.6157 284.799L60.5672 284.8C60.4598 284.913 60.3424 285.013 60.215 285.1C59.9091 285.302 59.5619 285.407 59.1735 285.417C58.5846 285.431 58.1077 285.261 57.7429 284.907C57.3845 284.547 57.1976 284.053 57.1824 283.425ZM62.3067 280.386L62.4539 278.44L63.5218 278.414L63.132 280.366L62.3067 280.386ZM64.5079 285.19L64.3433 278.394L65.3141 278.371L65.4788 285.167L64.5079 285.19ZM66.549 285.141L66.3844 278.345L67.3552 278.321L67.5199 285.117L66.549 285.141ZM70.5352 285.044L70.4176 280.19L71.2429 280.17L71.3505 280.604L71.3991 280.603C71.4054 280.597 71.4243 280.574 71.4557 280.534C71.4936 280.494 71.5156 280.468 71.5218 280.455C71.5344 280.441 71.5597 280.418 71.5978 280.385C71.6357 280.345 71.6674 280.318 71.693 280.305C71.7186 280.291 71.7538 280.274 71.7986 280.254C71.8433 280.227 71.8882 280.209 71.9334 280.202C71.9848 280.188 72.0428 280.176 72.1074 280.168C72.1718 280.154 72.2396 280.146 72.3108 280.144L73.1846 280.123L73.2058 280.997L72.4291 281.015C71.7495 281.032 71.4178 281.377 71.4341 282.05L71.5061 285.021L70.5352 285.044ZM74.2128 282.138L77.0769 282.069C77.0155 281.675 76.8557 281.362 76.5975 281.128C76.3393 280.895 76.0192 280.783 75.6374 280.792C75.2361 280.802 74.9153 280.929 74.6752 281.175C74.4349 281.414 74.2808 281.735 74.2128 282.138ZM76.8683 283.482L77.8877 283.458C77.7547 283.849 77.5042 284.205 77.1364 284.525C76.7748 284.838 76.3092 285.002 75.7397 285.015C75.0342 285.032 74.446 284.813 73.9752 284.359C73.5108 283.904 73.2695 283.301 73.2514 282.55C73.2332 281.799 73.445 281.185 73.8867 280.708C74.335 280.231 74.9119 279.984 75.6174 279.967C76.2776 279.951 76.8364 280.164 77.294 280.606C77.7516 281.048 77.9886 281.609 78.0051 282.289C78.0065 282.347 77.9996 282.464 77.9844 282.639L77.9683 282.776L74.2305 282.866C74.2923 283.279 74.4588 283.605 74.7302 283.845C75.0015 284.084 75.3313 284.199 75.7197 284.19C75.9915 284.183 76.2294 284.113 76.4334 283.978C76.6437 283.837 76.7887 283.672 76.8683 283.482ZM82.204 283.062L83.1748 283.038C83.1344 283.24 83.0647 283.439 82.9659 283.636C82.8735 283.832 82.7422 284.026 82.572 284.218C82.4083 284.41 82.1887 284.568 81.9132 284.691C81.6377 284.814 81.3284 284.88 80.9854 284.888C80.2799 284.905 79.6917 284.686 79.2209 284.232C78.7565 283.776 78.5152 283.174 78.4971 282.423C78.4789 281.672 78.6907 281.058 79.1324 280.581C79.5807 280.104 80.1576 279.857 80.8631 279.84C81.5103 279.824 82.0229 279.996 82.4007 280.356C82.7784 280.71 83.0243 281.102 83.1384 281.533L82.1675 281.557C81.9463 280.979 81.5185 280.698 80.8842 280.713C80.4635 280.724 80.1177 280.884 79.8468 281.195C79.5821 281.5 79.4558 281.901 79.4679 282.399C79.48 282.898 79.6256 283.296 79.9048 283.593C80.1904 283.884 80.5435 284.025 80.9642 284.014C81.3137 284.006 81.593 283.905 81.802 283.712C82.0111 283.52 82.1451 283.303 82.204 283.062ZM84.5525 281.887L87.4166 281.818C87.3552 281.425 87.1954 281.111 86.9372 280.878C86.679 280.644 86.3589 280.532 85.9771 280.542C85.5758 280.551 85.255 280.679 85.0149 280.924C84.7746 281.163 84.6205 281.484 84.5525 281.887ZM87.2079 283.232L88.2274 283.207C88.0944 283.599 87.8439 283.955 87.4761 284.274C87.1145 284.588 86.6489 284.751 86.0794 284.765C85.3739 284.782 84.7857 284.563 84.3149 284.108C83.8505 283.653 83.6092 283.05 83.5911 282.299C83.5729 281.549 83.7847 280.935 84.2264 280.458C84.6747 279.981 85.2516 279.733 85.9571 279.716C86.6172 279.7 87.1761 279.913 87.6337 280.356C88.0913 280.798 88.3283 281.359 88.3448 282.038C88.3462 282.097 88.3393 282.213 88.3241 282.389L88.308 282.525L84.5702 282.616C84.632 283.029 84.7985 283.355 85.0699 283.594C85.3412 283.834 85.671 283.949 86.0594 283.94C86.3312 283.933 86.5691 283.862 86.7731 283.728C86.9834 283.587 87.1284 283.421 87.2079 283.232ZM89.1383 284.594L89.0207 279.739L89.9915 279.716L90.1091 284.57L89.1383 284.594ZM88.9498 278.818L88.9251 277.799L89.993 277.773L90.0177 278.792L88.9498 278.818ZM92.201 284.519L90.3844 279.706L91.4038 279.681L92.8062 283.436L93.0004 283.431L94.2193 279.613L95.2388 279.589L93.6573 284.484L92.201 284.519ZM96.3075 281.603L99.1716 281.533C99.1103 281.14 98.9505 280.826 98.6922 280.593C98.434 280.36 98.114 280.248 97.7321 280.257C97.3308 280.266 97.0101 280.394 96.7699 280.64C96.5296 280.878 96.3755 281.2 96.3075 281.603ZM98.963 282.947L99.9824 282.922C99.8494 283.314 99.599 283.67 99.2311 283.99C98.8695 284.303 98.404 284.466 97.8344 284.48C97.1289 284.497 96.5408 284.278 96.0699 283.823C95.6056 283.368 95.3643 282.765 95.3461 282.015C95.3279 281.264 95.5397 280.65 95.9815 280.173C96.4297 279.696 97.0066 279.449 97.7121 279.432C98.3723 279.416 98.9312 279.629 99.3887 280.071C99.8463 280.513 100.083 281.074 100.1 281.754C100.101 281.812 100.094 281.929 100.079 282.104L100.063 282.24L96.3252 282.331C96.387 282.744 96.5536 283.07 96.8249 283.31C97.0962 283.549 97.4261 283.664 97.8144 283.655C98.0863 283.648 98.3242 283.578 98.5282 283.443C98.7384 283.302 98.8834 283.137 98.963 282.947Z" fill="#121212"/>
<path d="M45.7821 236.263L45.6174 229.467L49.9863 229.361L50.0098 230.332L46.6603 230.413L46.7074 232.354L49.8627 232.278L49.8862 233.249L46.7309 233.325L46.8015 236.238L45.7821 236.263ZM51.2019 233.314L54.0659 233.245C54.0046 232.851 53.8448 232.538 53.5866 232.304C53.3284 232.071 53.0083 231.959 52.6264 231.968C52.2251 231.978 51.9044 232.105 51.6643 232.351C51.424 232.59 51.2698 232.911 51.2019 233.314ZM53.8573 234.658L54.8767 234.634C54.7437 235.025 54.4933 235.381 54.1254 235.701C53.7639 236.014 53.2983 236.178 52.7287 236.191C52.0233 236.208 51.4351 235.99 50.9643 235.535C50.4999 235.08 50.2586 234.477 50.2404 233.726C50.2222 232.975 50.434 232.361 50.8758 231.884C51.3241 231.407 51.9009 231.16 52.6064 231.143C53.2666 231.127 53.8255 231.34 54.2831 231.782C54.7407 232.225 54.9777 232.785 54.9941 233.465C54.9955 233.523 54.9887 233.64 54.9735 233.815L54.9574 233.952L51.2195 234.042C51.2813 234.455 51.4479 234.781 51.7192 235.021C51.9906 235.261 52.3204 235.376 52.7088 235.366C52.9806 235.36 53.2185 235.289 53.4225 235.155C53.6328 235.013 53.7777 234.848 53.8573 234.658ZM56.4476 233.187L59.3116 233.118C59.2503 232.724 59.0905 232.411 58.8323 232.177C58.5741 231.944 58.254 231.832 57.8721 231.841C57.4708 231.851 57.1501 231.978 56.91 232.224C56.6697 232.463 56.5155 232.784 56.4476 233.187ZM59.103 234.531L60.1224 234.507C59.9894 234.898 59.739 235.254 59.3711 235.574C59.0096 235.887 58.544 236.051 57.9744 236.064C57.2689 236.081 56.6808 235.863 56.21 235.408C55.7456 234.953 55.5043 234.35 55.4861 233.599C55.4679 232.848 55.6797 232.234 56.1215 231.757C56.5698 231.28 57.1466 231.033 57.8521 231.016C58.5123 231 59.0712 231.213 59.5288 231.655C59.9864 232.097 60.2234 232.658 60.2398 233.338C60.2412 233.396 60.2344 233.513 60.2192 233.688L60.2031 233.825L56.4652 233.915C56.527 234.328 56.6936 234.654 56.9649 234.894C57.2363 235.133 57.5661 235.248 57.9545 235.239C58.2263 235.232 58.4642 235.162 58.6682 235.028C58.8785 234.886 59.0234 234.721 59.103 234.531Z" fill="#121212"/>
<path d="M46.2137 254.062L46.0491 247.266L47.5539 247.229L50.449 252.453L50.6432 252.449L50.515 247.157L51.5344 247.133L51.6991 253.929L50.1942 253.965L47.2991 248.741L47.1049 248.746L47.2331 254.037L46.2137 254.062ZM53.4255 251.07L56.2895 251C56.2282 250.607 56.0684 250.293 55.8101 250.06C55.5519 249.827 55.2319 249.715 54.85 249.724C54.4487 249.734 54.128 249.861 53.8878 250.107C53.6475 250.346 53.4934 250.667 53.4255 251.07ZM56.0809 252.414L57.1003 252.389C56.9673 252.781 56.7169 253.137 56.349 253.457C55.9875 253.77 55.5219 253.933 54.9523 253.947C54.2468 253.964 53.6587 253.745 53.1878 253.29C52.7235 252.835 52.4822 252.232 52.464 251.482C52.4458 250.731 52.6576 250.117 53.0994 249.64C53.5476 249.163 54.1245 248.916 54.83 248.899C55.4902 248.883 56.0491 249.096 56.5066 249.538C56.9642 249.98 57.2012 250.541 57.2177 251.221C57.2191 251.279 57.2122 251.396 57.197 251.571L57.1809 251.707L53.4431 251.798C53.5049 252.211 53.6715 252.537 53.9428 252.777C54.2141 253.016 54.544 253.131 54.9323 253.122C55.2042 253.115 55.4421 253.045 55.6461 252.91C55.8564 252.769 56.0013 252.604 56.0809 252.414ZM58.1852 252.752L58.1147 249.839L57.338 249.858L57.3156 248.935L58.0923 248.917L58.0594 247.557L59.0303 247.534L59.0632 248.893L60.1797 248.866L60.202 249.788L59.0855 249.815L59.1526 252.582C59.1573 252.777 59.2567 252.871 59.4509 252.867L60.2761 252.847L60.2973 253.72L59.2779 253.745C58.9349 253.753 58.6673 253.669 58.4752 253.493C58.2896 253.316 58.1929 253.069 58.1852 252.752ZM62.4389 253.669L64.7499 246.813L66.3033 246.775L68.9437 253.511L67.8272 253.538L67.2059 251.95L64.0991 252.025L63.5554 253.641L62.4389 253.669ZM64.4165 251.095L66.8437 251.036L65.6519 247.956L65.4578 247.961L64.4165 251.095ZM69.2827 253.503L69.1651 248.648L70.0389 248.627L70.1477 249.11L70.1963 249.109C70.2844 249.003 70.3953 248.904 70.529 248.81C70.8221 248.608 71.1271 248.504 71.4443 248.496C71.8456 248.486 72.1881 248.591 72.4719 248.811C72.5977 248.925 72.6976 249.036 72.7714 249.144L72.82 249.143C72.9014 249.031 73.0249 248.914 73.1904 248.794C73.5473 248.558 73.9524 248.435 74.4054 248.424C74.9103 248.412 75.3321 248.58 75.6708 248.928C76.0093 249.269 76.1853 249.715 76.1986 250.265L76.2729 253.333L75.3021 253.357L75.228 250.299C75.2205 249.988 75.1239 249.744 74.9383 249.567C74.759 249.384 74.5237 249.296 74.2324 249.303C73.9347 249.31 73.6846 249.413 73.4822 249.612C73.2798 249.812 73.1821 250.057 73.1892 250.348L73.2633 253.406L72.2924 253.43L72.2183 250.372C72.2108 250.061 72.1142 249.817 71.9286 249.64C71.7493 249.457 71.514 249.369 71.2227 249.376C70.925 249.383 70.6749 249.486 70.4725 249.685C70.2701 249.885 70.1724 250.13 70.1795 250.421L70.2536 253.479L69.2827 253.503ZM78.2989 252.06C78.5844 252.351 78.9375 252.492 79.3582 252.481C79.7789 252.471 80.1216 252.314 80.3862 252.01C80.6572 251.699 80.7866 251.294 80.7745 250.796C80.7625 250.297 80.6137 249.903 80.3281 249.612C80.0489 249.314 79.699 249.17 79.2783 249.181C78.8576 249.191 78.5117 249.351 78.2408 249.662C77.9762 249.967 77.8499 250.368 77.8619 250.866C77.874 251.365 78.0197 251.763 78.2989 252.06ZM81.1003 252.614C80.6585 253.091 80.0849 253.338 79.3794 253.355C78.6739 253.372 78.0857 253.153 77.6149 252.699C77.1505 252.244 76.9093 251.641 76.8911 250.89C76.8729 250.139 77.0847 249.525 77.5265 249.048C77.9747 248.571 78.5516 248.324 79.2571 248.307C79.9626 248.29 80.5475 248.509 81.0119 248.964C81.4827 249.419 81.7272 250.021 81.7454 250.772C81.7636 251.523 81.5486 252.137 81.1003 252.614ZM82.4861 251.24L82.4155 248.327L83.3864 248.304L83.4569 251.216C83.4646 251.534 83.5813 251.806 83.807 252.034C84.039 252.255 84.3201 252.361 84.6502 252.353C85.0062 252.345 85.3012 252.224 85.5352 251.992C85.7755 251.753 85.8918 251.475 85.8841 251.158L85.8135 248.245L86.7844 248.222L86.902 253.076L86.0282 253.097L85.9194 252.614L85.8708 252.615C85.7635 252.728 85.6461 252.828 85.5187 252.915C85.2127 253.117 84.8655 253.222 84.4772 253.232C83.8882 253.246 83.4113 253.076 83.0466 252.722C82.6881 252.362 82.5013 251.868 82.4861 251.24ZM87.8736 253.052L87.756 248.198L88.6298 248.177L88.7386 248.66L88.7872 248.659C88.8946 248.546 89.0119 248.446 89.1393 248.359C89.4453 248.157 89.7925 248.052 90.1808 248.042C90.7698 248.028 91.2435 248.201 91.602 248.561C91.9668 248.915 92.1567 249.406 92.1719 250.034L92.2425 252.947L91.2716 252.97L91.2011 250.057C91.1934 249.74 91.0735 249.471 90.8415 249.25C90.6158 249.022 90.3379 248.913 90.0078 248.921C89.6518 248.929 89.3537 249.053 89.1134 249.292C88.8794 249.524 88.7662 249.799 88.7739 250.116L88.8445 253.029L87.8736 253.052ZM93.3408 251.9L93.2702 248.987L92.4935 249.006L92.4712 248.084L93.2478 248.065L93.2149 246.706L94.1858 246.682L94.2187 248.041L95.3352 248.014L95.3575 248.937L94.2411 248.964L94.3081 251.731C94.3128 251.925 94.4122 252.02 94.6064 252.015L95.4316 251.995L95.4528 252.869L94.4334 252.893C94.0904 252.902 93.8228 252.818 93.6307 252.641C93.4451 252.464 93.3484 252.217 93.3408 251.9Z" fill="#121212"/>
<path d="M291.452 213.693L291.26 205.764L293.015 205.721L296.393 211.816L296.62 211.811L296.47 205.638L297.659 205.609L297.851 213.537L296.096 213.58L292.718 207.485L292.492 207.491L292.641 213.664L291.452 213.693ZM305.325 213.356L305.187 212.34L305.131 212.341C304.977 212.541 304.778 212.735 304.533 212.922C303.998 213.313 303.376 213.517 302.666 213.534C301.602 213.56 300.694 213.2 299.943 212.455C299.192 211.711 298.802 210.742 298.773 209.548C298.744 208.355 299.087 207.369 299.801 206.588C300.515 205.808 301.404 205.405 302.469 205.379C303.405 205.356 304.193 205.605 304.833 206.126C305.48 206.647 305.903 207.275 306.103 208.011L304.857 208.041C304.648 207.54 304.333 207.158 303.911 206.897C303.496 206.627 303.025 206.499 302.496 206.512C301.741 206.53 301.125 206.813 300.647 207.361C300.169 207.909 299.941 208.629 299.962 209.52C299.984 210.411 300.247 211.118 300.75 211.643C301.254 212.167 301.884 212.42 302.639 212.401C303.303 212.385 303.868 212.156 304.334 211.714C304.806 211.265 305.036 210.776 305.023 210.247L305.022 210.19L302.813 210.244L302.79 209.281L306.188 209.199L306.288 213.333L305.325 213.356ZM307.53 213.303L307.338 205.374L309.094 205.332L312.471 211.427L312.698 211.421L312.548 205.248L313.738 205.219L313.93 213.148L312.174 213.19L308.796 207.096L308.57 207.101L308.719 213.274L307.53 213.303ZM318.689 213.033L318.545 207.086L316.903 207.126L316.875 205.993L318.178 205.962C318.404 205.956 318.515 205.84 318.509 205.614L318.497 205.104L319.686 205.075L319.878 213.004L318.689 213.033ZM325.483 211.089C325.856 210.566 326.031 209.833 326.008 208.889C325.985 207.945 325.775 207.224 325.377 206.728C324.98 206.224 324.505 205.978 323.954 205.992C323.403 206.005 322.941 206.273 322.568 206.796C322.195 207.311 322.02 208.041 322.043 208.985C322.066 209.929 322.276 210.653 322.674 211.157C323.071 211.653 323.546 211.895 324.097 211.882C324.648 211.868 325.11 211.604 325.483 211.089ZM321.699 206.012C322.293 205.265 323.036 204.881 323.927 204.859C324.818 204.837 325.578 205.185 326.207 205.903C326.837 206.621 327.167 207.606 327.197 208.86C327.227 210.113 326.946 211.114 326.352 211.861C325.758 212.608 325.015 212.993 324.124 213.014C323.233 213.036 322.473 212.688 321.844 211.97C321.214 211.253 320.884 210.267 320.854 209.013C320.824 207.76 321.105 206.76 321.699 206.012ZM332.621 210.916C332.993 210.393 333.168 209.66 333.145 208.716C333.122 207.772 332.912 207.052 332.515 206.555C332.117 206.051 331.643 205.805 331.092 205.819C330.541 205.832 330.079 206.1 329.706 206.623C329.333 207.138 329.158 207.868 329.181 208.812C329.204 209.756 329.414 210.48 329.812 210.984C330.209 211.48 330.683 211.722 331.234 211.709C331.786 211.695 332.248 211.431 332.621 210.916ZM328.837 205.839C329.431 205.092 330.173 204.708 331.064 204.686C331.955 204.665 332.716 205.013 333.345 205.73C333.974 206.448 334.304 207.433 334.335 208.687C334.365 209.94 334.083 210.941 333.489 211.688C332.895 212.435 332.153 212.82 331.262 212.841C330.371 212.863 329.611 212.515 328.981 211.797C328.352 211.08 328.022 210.094 327.992 208.841C327.961 207.587 328.243 206.587 328.837 205.839ZM339.758 210.743C340.131 210.22 340.306 209.487 340.283 208.543C340.26 207.599 340.05 206.879 339.653 206.382C339.255 205.878 338.781 205.633 338.229 205.646C337.678 205.659 337.216 205.927 336.844 206.45C336.471 206.965 336.296 207.695 336.319 208.639C336.341 209.583 336.552 210.307 336.949 210.811C337.347 211.308 337.821 211.549 338.372 211.536C338.923 211.522 339.385 211.258 339.758 210.743ZM335.975 205.666C336.568 204.919 337.311 204.535 338.202 204.513C339.093 204.492 339.853 204.84 340.483 205.557C341.112 206.275 341.442 207.26 341.472 208.514C341.503 209.767 341.221 210.768 340.627 211.515C340.033 212.262 339.291 212.647 338.4 212.668C337.509 212.69 336.748 212.342 336.119 211.624C335.49 210.907 335.16 209.921 335.129 208.668C335.099 207.414 335.381 206.414 335.975 205.666ZM346.896 210.57C347.269 210.047 347.443 209.314 347.421 208.37C347.398 207.426 347.188 206.706 346.79 206.209C346.393 205.705 345.918 205.46 345.367 205.473C344.816 205.486 344.354 205.754 343.981 206.277C343.608 206.792 343.433 207.522 343.456 208.466C343.479 209.41 343.689 210.134 344.087 210.638C344.484 211.135 344.958 211.376 345.51 211.363C346.061 211.349 346.523 211.085 346.896 210.57ZM343.112 205.494C343.706 204.746 344.449 204.362 345.34 204.34C346.231 204.319 346.991 204.667 347.62 205.384C348.25 206.102 348.579 207.088 348.61 208.341C348.64 209.595 348.358 210.595 347.765 211.342C347.171 212.09 346.428 212.474 345.537 212.496C344.646 212.517 343.886 212.169 343.257 211.451C342.627 210.734 342.297 209.748 342.267 208.495C342.237 207.241 342.518 206.241 343.112 205.494Z" fill="#121212"/>
<path d="M347.145 229.992C347.518 229.47 347.693 228.736 347.67 227.792C347.647 226.848 347.437 226.128 347.039 225.632C346.642 225.127 346.167 224.882 345.616 224.895C345.065 224.909 344.603 225.177 344.23 225.7C343.857 226.215 343.682 226.944 343.705 227.888C343.728 228.832 343.938 229.556 344.336 230.06C344.733 230.557 345.208 230.799 345.759 230.785C346.31 230.772 346.772 230.508 347.145 229.992ZM343.361 224.916C343.955 224.169 344.698 223.784 345.589 223.763C346.48 223.741 347.24 224.089 347.869 224.807C348.499 225.524 348.829 226.51 348.859 227.763C348.889 229.017 348.608 230.017 348.014 230.765C347.42 231.512 346.677 231.896 345.786 231.918C344.895 231.94 344.135 231.591 343.506 230.874C342.876 230.156 342.546 229.171 342.516 227.917C342.486 226.664 342.767 225.663 343.361 224.916Z" fill="#121212"/>
<path d="M292.393 252.527L292.201 244.598L293.957 244.556L297.335 250.65L297.561 250.645L297.411 244.472L298.601 244.443L298.793 252.372L297.037 252.414L293.66 246.319L293.433 246.325L293.583 252.498L292.393 252.527ZM306.267 252.191L306.129 251.174L306.072 251.175C305.918 251.376 305.719 251.569 305.474 251.757C304.94 252.147 304.318 252.351 303.608 252.368C302.543 252.394 301.635 252.035 300.884 251.29C300.133 250.545 299.743 249.576 299.714 248.383C299.686 247.19 300.028 246.203 300.742 245.423C301.456 244.642 302.345 244.239 303.41 244.213C304.346 244.191 305.135 244.44 305.774 244.961C306.422 245.481 306.845 246.11 307.044 246.845L305.798 246.875C305.589 246.374 305.274 245.993 304.852 245.731C304.438 245.461 303.966 245.333 303.438 245.346C302.682 245.364 302.066 245.647 301.588 246.195C301.11 246.743 300.882 247.463 300.904 248.354C300.925 249.245 301.188 249.953 301.692 250.477C302.196 251.001 302.825 251.254 303.58 251.236C304.245 251.22 304.81 250.991 305.275 250.549C305.748 250.099 305.978 249.61 305.965 249.081L305.963 249.025L303.755 249.078L303.731 248.115L307.129 248.033L307.23 252.167L306.267 252.191ZM308.471 252.137L308.279 244.209L310.035 244.166L313.413 250.261L313.639 250.255L313.49 244.082L314.679 244.054L314.871 251.982L313.115 252.025L309.738 245.93L309.511 245.935L309.661 252.109L308.471 252.137ZM319.631 251.867L319.486 245.92L317.844 245.96L317.817 244.828L319.119 244.796C319.346 244.791 319.456 244.674 319.451 244.448L319.438 243.938L320.628 243.909L320.82 251.838L319.631 251.867ZM326.424 249.923C326.797 249.4 326.972 248.667 326.949 247.723C326.926 246.779 326.716 246.059 326.319 245.562C325.921 245.058 325.447 244.813 324.896 244.826C324.344 244.839 323.882 245.107 323.51 245.63C323.137 246.146 322.962 246.875 322.985 247.819C323.008 248.763 323.218 249.487 323.615 249.991C324.013 250.488 324.487 250.729 325.038 250.716C325.59 250.703 326.052 250.438 326.424 249.923ZM322.641 244.847C323.235 244.099 323.977 243.715 324.868 243.693C325.759 243.672 326.519 244.02 327.149 244.737C327.778 245.455 328.108 246.441 328.138 247.694C328.169 248.948 327.887 249.948 327.293 250.695C326.699 251.443 325.957 251.827 325.066 251.849C324.175 251.87 323.414 251.522 322.785 250.805C322.156 250.087 321.826 249.101 321.795 247.848C321.765 246.594 322.047 245.594 322.641 244.847ZM333.562 249.75C333.935 249.227 334.11 248.494 334.087 247.55C334.064 246.606 333.854 245.886 333.456 245.389C333.059 244.885 332.584 244.64 332.033 244.653C331.482 244.666 331.02 244.935 330.647 245.457C330.274 245.973 330.099 246.702 330.122 247.646C330.145 248.59 330.355 249.314 330.753 249.818C331.15 250.315 331.625 250.556 332.176 250.543C332.727 250.53 333.189 250.265 333.562 249.75ZM329.778 244.674C330.372 243.926 331.115 243.542 332.006 243.52C332.897 243.499 333.657 243.847 334.286 244.565C334.916 245.282 335.246 246.268 335.276 247.521C335.306 248.775 335.025 249.775 334.431 250.522C333.837 251.27 333.094 251.654 332.203 251.676C331.312 251.697 330.552 251.349 329.923 250.632C329.293 249.914 328.963 248.928 328.933 247.675C328.903 246.421 329.184 245.421 329.778 244.674ZM340.7 249.577C341.072 249.054 341.247 248.321 341.224 247.377C341.201 246.433 340.991 245.713 340.594 245.216C340.196 244.712 339.722 244.467 339.171 244.48C338.62 244.494 338.158 244.762 337.785 245.284C337.412 245.8 337.237 246.529 337.26 247.473C337.283 248.417 337.493 249.141 337.891 249.645C338.288 250.142 338.762 250.383 339.314 250.37C339.865 250.357 340.327 250.092 340.7 249.577ZM336.916 244.501C337.51 243.754 338.252 243.369 339.143 243.348C340.034 243.326 340.795 243.674 341.424 244.392C342.053 245.109 342.383 246.095 342.414 247.348C342.444 248.602 342.162 249.602 341.568 250.349C340.974 251.097 340.232 251.481 339.341 251.503C338.45 251.524 337.69 251.176 337.06 250.459C336.431 249.741 336.101 248.755 336.071 247.502C336.04 246.249 336.322 245.248 336.916 244.501ZM347.837 249.404C348.21 248.881 348.385 248.148 348.362 247.204C348.339 246.26 348.129 245.54 347.732 245.043C347.334 244.539 346.86 244.294 346.308 244.307C345.757 244.321 345.295 244.589 344.923 245.112C344.55 245.627 344.375 246.356 344.398 247.3C344.42 248.244 344.631 248.968 345.028 249.472C345.426 249.969 345.9 250.211 346.451 250.197C347.002 250.184 347.464 249.92 347.837 249.404ZM344.054 244.328C344.647 243.581 345.39 243.196 346.281 243.175C347.172 243.153 347.932 243.501 348.562 244.219C349.191 244.936 349.521 245.922 349.551 247.175C349.582 248.429 349.3 249.429 348.706 250.177C348.112 250.924 347.37 251.308 346.479 251.33C345.588 251.351 344.827 251.003 344.198 250.286C343.569 249.568 343.239 248.583 343.208 247.329C343.178 246.076 343.46 245.075 344.054 244.328Z" fill="#121212"/>
<path d="M297.68 277.151C297.437 277.406 297.32 277.734 297.33 278.134C297.34 278.534 297.472 278.86 297.728 279.11C297.99 279.353 298.322 279.47 298.722 279.46C299.122 279.451 299.444 279.318 299.687 279.063C299.938 278.8 300.058 278.468 300.048 278.068C300.039 277.668 299.903 277.346 299.64 277.103C299.384 276.853 299.057 276.732 298.656 276.742C298.256 276.752 297.931 276.888 297.68 277.151ZM296.323 276.345L298.504 272.779L300.203 272.738L298.623 275.383L298.737 275.38C299.499 275.361 300.148 275.61 300.681 276.126C301.223 276.634 301.502 277.27 301.521 278.033C301.54 278.803 301.287 279.455 300.764 279.989C300.24 280.523 299.571 280.8 298.755 280.82C297.94 280.839 297.257 280.595 296.709 280.087C296.16 279.579 295.876 278.94 295.858 278.17C295.841 277.483 295.996 276.874 296.323 276.345ZM302.378 280.618L302.339 279.033L303.925 278.994L303.964 280.58L302.378 280.618ZM304.583 278.185L306.055 278.149C306.063 278.451 306.19 278.705 306.436 278.911C306.691 279.109 307.025 279.202 307.441 279.192C307.856 279.182 308.175 279.08 308.397 278.886C308.618 278.692 308.726 278.444 308.718 278.141C308.711 277.817 308.587 277.559 308.348 277.368C308.11 277.178 307.771 277.088 307.333 277.098L306.824 277.111L306.792 275.808L307.302 275.796C307.717 275.786 308.024 275.684 308.224 275.49C308.43 275.296 308.53 275.048 308.523 274.746C308.516 274.482 308.409 274.269 308.201 274.108C307.993 273.939 307.697 273.86 307.312 273.869C306.919 273.878 306.615 273.973 306.4 274.152C306.186 274.331 306.082 274.567 306.089 274.862L304.617 274.897C304.6 274.225 304.84 273.657 305.335 273.191C305.837 272.718 306.503 272.472 307.334 272.452C308.112 272.433 308.744 272.64 309.23 273.074C309.724 273.501 309.979 274.046 309.995 274.711C310.008 275.224 309.837 275.659 309.483 276.015C309.313 276.178 309.139 276.299 308.959 276.379L308.96 276.436C309.189 276.528 309.389 276.648 309.559 276.795C309.967 277.14 310.179 277.615 310.194 278.219C310.209 278.861 309.966 279.415 309.463 279.88C308.961 280.346 308.298 280.588 307.475 280.608C306.614 280.629 305.921 280.412 305.396 279.956C304.871 279.493 304.6 278.902 304.583 278.185ZM312.931 278.379C313.289 278.824 313.725 279.04 314.239 279.028C314.752 279.015 315.177 278.778 315.514 278.317C315.85 277.848 316.008 277.183 315.987 276.322C315.966 275.461 315.776 274.808 315.418 274.364C315.059 273.912 314.623 273.692 314.11 273.704C313.596 273.717 313.172 273.957 312.835 274.426C312.499 274.888 312.341 275.549 312.362 276.41C312.383 277.271 312.573 277.927 312.931 278.379ZM311.758 273.444C312.367 272.696 313.139 272.311 314.076 272.288C315.012 272.266 315.802 272.613 316.447 273.33C317.091 274.04 317.429 275.025 317.459 276.286C317.49 277.547 317.2 278.552 316.591 279.299C315.982 280.039 315.21 280.421 314.273 280.444C313.337 280.466 312.547 280.123 311.902 279.413C311.258 278.696 310.92 277.707 310.89 276.446C310.859 275.184 311.148 274.184 311.758 273.444ZM320.931 276.939L320.817 272.238L322.289 272.203L322.403 276.903C322.417 277.462 322.602 277.918 322.958 278.272C323.314 278.627 323.749 278.797 324.262 278.785C324.776 278.772 325.202 278.581 325.54 278.21C325.879 277.839 326.041 277.374 326.028 276.815L325.914 272.115L327.386 272.079L327.5 276.78C327.525 277.799 327.246 278.618 326.664 279.237C326.083 279.855 325.293 280.177 324.296 280.201C323.3 280.225 322.496 279.942 321.885 279.353C321.273 278.763 320.955 277.958 320.931 276.939ZM328.365 277.496L329.837 277.46C329.846 277.815 330.011 278.109 330.334 278.343C330.665 278.569 331.094 278.676 331.623 278.663C332.159 278.65 332.553 278.55 332.806 278.363C333.065 278.167 333.191 277.915 333.184 277.605C333.171 277.077 332.729 276.748 331.857 276.618L330.492 276.424C329.165 276.237 328.487 275.536 328.458 274.32C328.441 273.64 328.692 273.068 329.209 272.602C329.727 272.136 330.439 271.892 331.345 271.87C332.327 271.846 333.088 272.069 333.628 272.54C334.168 273.01 334.448 273.631 334.466 274.401L332.994 274.437C332.985 274.082 332.838 273.791 332.553 273.563C332.268 273.328 331.876 273.217 331.378 273.229C330.887 273.241 330.519 273.344 330.275 273.539C330.037 273.726 329.923 273.975 329.93 274.284C329.936 274.526 330.02 274.72 330.182 274.867C330.344 275.007 330.626 275.106 331.028 275.164L332.279 275.361C333.091 275.485 333.686 275.723 334.065 276.077C334.443 276.423 334.641 276.92 334.656 277.57C334.674 278.28 334.423 278.86 333.905 279.311C333.387 279.761 332.637 279.999 331.656 280.022C330.659 280.047 329.864 279.824 329.271 279.355C328.685 278.878 328.383 278.258 328.365 277.496ZM335.728 279.81L335.536 271.882L338.424 271.812C339.504 271.786 340.423 272.145 341.182 272.89C341.948 273.627 342.344 274.558 342.371 275.683C342.399 276.808 342.048 277.761 341.319 278.542C340.597 279.315 339.696 279.714 338.616 279.74L335.728 279.81ZM337.166 278.359L338.582 278.325C339.269 278.308 339.83 278.06 340.264 277.581C340.706 277.102 340.917 276.481 340.899 275.718C340.88 274.956 340.639 274.346 340.175 273.889C339.718 273.431 339.146 273.211 338.459 273.228L337.043 273.262L337.166 278.359ZM348.967 276.656L350.496 276.619C350.455 276.832 350.393 277.052 350.308 277.281C350.23 277.51 350.097 277.77 349.907 278.062C349.725 278.346 349.512 278.6 349.268 278.825C349.025 279.05 348.704 279.243 348.308 279.404C347.911 279.557 347.475 279.639 346.999 279.651C345.912 279.677 344.989 279.314 344.23 278.562C343.471 277.81 343.078 276.844 343.049 275.666C343.021 274.488 343.367 273.505 344.088 272.717C344.81 271.929 345.714 271.522 346.801 271.495C347.247 271.485 347.66 271.543 348.041 271.669C348.429 271.788 348.754 271.947 349.016 272.144C349.278 272.342 349.51 272.575 349.713 272.842C349.916 273.101 350.073 273.35 350.184 273.59C350.296 273.829 350.381 274.065 350.439 274.297L348.91 274.334C348.75 273.945 348.496 273.608 348.149 273.322C347.81 273.035 347.372 272.898 346.836 272.911C346.141 272.928 345.577 273.187 345.143 273.689C344.709 274.183 344.502 274.83 344.522 275.631C344.541 276.431 344.779 277.071 345.237 277.551C345.694 278.024 346.27 278.252 346.965 278.235C347.508 278.222 347.943 278.06 348.268 277.75C348.6 277.44 348.833 277.075 348.967 276.656Z" fill="#121212"/>
<path d="M45.7969 266.926L350.81 259.537" stroke="#1FCB4F" stroke-opacity="0.11" stroke-width="0.809291"/>
</g>
<rect x="0.414327" y="141.648" width="386.834" height="244.41" rx="7.68826" transform="rotate(-1.38782 0.414327 141.648)" stroke="#EFF1F4" stroke-width="0.809291"/>
<g clip-path="url(#clip1_659_7412)">
<rect x="67.4453" y="0.45459" width="363.647" height="201.182" rx="7.59179" transform="rotate(14.1867 67.4453 0.45459)" fill="white"/>
<path d="M207.711 72.0053L209.051 72.344C208.969 72.6668 209.045 72.9746 209.278 73.2674C209.52 73.555 209.881 73.7596 210.362 73.8812C210.849 74.0045 211.231 74.0132 211.506 73.9074C211.79 73.7964 211.967 73.6001 212.039 73.3185C212.16 72.8376 211.843 72.4286 211.088 72.0915L209.904 71.5728C208.752 71.0697 208.316 70.2652 208.595 69.1592C208.752 68.5409 209.122 68.0865 209.707 67.7959C210.292 67.5052 210.997 67.4641 211.821 67.6725C212.715 67.8983 213.346 68.2918 213.716 68.853C214.085 69.4142 214.182 70.0451 214.005 70.7458L212.665 70.4072C212.747 70.0843 212.687 69.7843 212.487 69.5071C212.288 69.223 211.962 69.0237 211.509 68.909C211.062 68.7962 210.704 68.7969 210.434 68.9114C210.172 69.0207 210.006 69.2162 209.935 69.4978C209.879 69.7176 209.906 69.9145 210.016 70.0883C210.127 70.2553 210.357 70.4157 210.705 70.5696L211.787 71.0622C212.489 71.3786 212.967 71.7442 213.22 72.159C213.475 72.5669 213.528 73.0663 213.378 73.6571C213.215 74.3028 212.843 74.7641 212.261 75.041C211.679 75.3179 210.942 75.3435 210.049 75.1177C209.142 74.8885 208.48 74.4872 208.062 73.9138C207.653 73.3353 207.536 72.6991 207.711 72.0053ZM215.491 73.0949L218.17 73.7722C218.197 73.4062 218.125 73.0847 217.954 72.8075C217.789 72.5321 217.532 72.3501 217.182 72.2616C216.811 72.1678 216.477 72.2004 216.181 72.3595C215.894 72.5134 215.664 72.7585 215.491 73.0949ZM217.573 75.2657L218.913 75.6044C218.846 75.7262 218.74 75.8565 218.595 75.9954C218.459 76.1291 218.273 76.2721 218.037 76.4244C217.81 76.5716 217.522 76.6705 217.173 76.7211C216.825 76.7649 216.459 76.7382 216.075 76.6409C215.298 76.4447 214.72 76.0282 214.341 75.3913C213.969 74.7493 213.884 74.0299 214.086 73.233C214.287 72.4361 214.703 71.8469 215.333 71.4653C215.972 71.0786 216.679 70.9834 217.455 71.1796C218.177 71.362 218.72 71.7698 219.086 72.4032C219.461 73.0315 219.555 73.7165 219.367 74.4584C219.351 74.5203 219.31 74.6413 219.242 74.8216L219.185 74.9606L215.27 73.9708C215.231 74.3556 215.31 74.6935 215.507 74.9845C215.704 75.2754 215.984 75.4669 216.348 75.559C216.623 75.6284 216.871 75.6291 217.093 75.5609C217.317 75.4859 217.477 75.3875 217.573 75.2657ZM219.5 77.3971L221.323 70.184L222.611 70.5096L220.788 77.7227L219.5 77.3971ZM223.678 75.1645L226.357 75.8417C226.384 75.4757 226.311 75.1542 226.14 74.8771C225.976 74.6017 225.719 74.4197 225.368 74.3311C224.998 74.2373 224.664 74.27 224.368 74.429C224.081 74.5829 223.851 74.8281 223.678 75.1645ZM225.76 77.3353L227.1 77.6739C227.032 77.7958 226.926 77.9261 226.782 78.0649C226.645 78.1986 226.46 78.3416 226.224 78.4939C225.996 78.6411 225.708 78.74 225.359 78.7907C225.012 78.8345 224.646 78.8077 224.261 78.7105C223.485 78.5142 222.907 78.0977 222.527 77.4608C222.156 76.8189 222.071 76.0994 222.273 75.3026C222.474 74.5057 222.89 73.9165 223.52 73.5349C224.158 73.1482 224.866 73.0529 225.642 73.2492C226.363 73.4315 226.907 73.8394 227.273 74.4727C227.648 75.101 227.741 75.7861 227.554 76.528C227.538 76.5898 227.497 76.7109 227.429 76.8911L227.372 77.0302L223.456 76.0403C223.418 76.4252 223.497 76.7631 223.693 77.054C223.89 77.345 224.171 77.5365 224.535 77.6285C224.81 77.698 225.058 77.6986 225.28 77.6305C225.503 77.5554 225.664 77.457 225.76 77.3353ZM231.736 78.4075L233.024 78.7331C232.917 78.9545 232.781 79.1612 232.615 79.3532C232.457 79.547 232.257 79.7304 232.016 79.9033C231.777 80.0694 231.482 80.1812 231.131 80.2387C230.789 80.2911 230.422 80.2678 230.03 80.1688C229.254 79.9725 228.676 79.556 228.296 78.9191C227.925 78.2772 227.84 77.5577 228.041 76.7609C228.243 75.964 228.659 75.3748 229.289 74.9932C229.927 74.6065 230.635 74.5112 231.411 74.7075C231.802 74.8065 232.135 74.9637 232.41 75.1793C232.693 75.3897 232.9 75.6248 233.032 75.8846C233.163 76.1445 233.254 76.3939 233.303 76.6329C233.359 76.8736 233.383 77.11 233.376 77.342L232.088 77.0164C232.021 76.4147 231.695 76.0401 231.111 75.8925C230.72 75.7935 230.353 75.8544 230.013 76.0752C229.672 76.296 229.444 76.6331 229.329 77.0865C229.215 77.5399 229.255 77.9447 229.45 78.3009C229.645 78.6572 229.938 78.8848 230.33 78.9838C230.934 79.1366 231.403 78.9445 231.736 78.4075ZM233.977 79.7414L234.681 76.9592L233.856 76.7509L234.169 75.5143L234.993 75.7227L235.371 74.2286L236.659 74.5542L236.281 76.0483L237.466 76.3479L237.154 77.5844L235.969 77.2849L235.331 79.8094C235.27 80.0499 235.36 80.2005 235.6 80.2612L236.424 80.4696L236.138 81.6031L235.004 81.3166C234.572 81.2072 234.265 81.0165 234.086 80.7445C233.914 80.4673 233.878 80.133 233.977 79.7414ZM239.329 82.4097L241.152 75.1966L244.501 76.0432C245.119 76.1995 245.57 76.5109 245.854 76.9774C246.138 77.4438 246.205 77.9759 246.054 78.5735C245.941 79.0201 245.722 79.3812 245.396 79.6571C245.233 79.7838 245.081 79.8771 244.942 79.9369L244.929 79.9884C245.057 80.1159 245.163 80.2743 245.247 80.4635C245.435 80.8765 245.469 81.3199 245.349 81.7939C245.198 82.3916 244.887 82.8281 244.415 83.1036C243.944 83.379 243.399 83.4386 242.781 83.2823L239.329 82.4097ZM241.736 78.5235L243.591 78.9924C243.852 79.0584 244.081 79.0324 244.279 78.9143C244.486 78.7911 244.622 78.599 244.688 78.338C244.761 78.0494 244.739 77.8028 244.623 77.598C244.507 77.3931 244.315 77.2569 244.047 77.1892L242.192 76.7203L241.736 78.5235ZM240.968 81.5633L242.926 82.0582C243.159 82.1173 243.384 82.0792 243.601 81.944C243.825 81.8106 243.97 81.6133 244.036 81.3523C244.102 81.0912 244.068 80.8488 243.935 80.6251C243.808 80.403 243.628 80.2625 243.394 80.2035L241.437 79.7085L240.968 81.5633ZM249.016 84.8587L249.043 84.3174L248.992 84.3044C248.875 84.3917 248.729 84.4644 248.553 84.5223C248.171 84.6451 247.767 84.6526 247.342 84.5449C246.765 84.3991 246.34 84.1273 246.068 83.7296C245.802 83.3336 245.726 82.9124 245.839 82.4659C245.974 81.93 246.268 81.551 246.718 81.3288C247.169 81.1066 247.745 81.084 248.446 81.2611L249.631 81.5607L249.657 81.4577C249.731 81.1623 249.706 80.9036 249.579 80.6815C249.459 80.4612 249.259 80.3155 248.977 80.2443C248.709 80.1766 248.475 80.1906 248.276 80.2863C248.083 80.3837 247.951 80.5149 247.88 80.6796L246.592 80.354C246.774 79.8957 247.095 79.5494 247.556 79.3151C248.018 79.0809 248.578 79.0472 249.237 79.2139C249.897 79.3806 250.381 79.7075 250.689 80.1947C251.004 80.6836 251.089 81.2131 250.945 81.7833L250.098 85.1322L249.016 84.8587ZM249.344 82.6942L249.383 82.5396L248.301 82.2661C247.649 82.1011 247.266 82.2419 247.153 82.6884C247.101 82.8945 247.131 83.0776 247.244 83.2377C247.359 83.391 247.547 83.5006 247.808 83.5666C248.2 83.6656 248.528 83.6389 248.793 83.4867C249.067 83.3293 249.25 83.0651 249.344 82.6942ZM251.075 85.3791L252.404 80.1239L253.589 80.4235L253.561 80.9647L253.613 80.9778C253.721 80.8956 253.864 80.822 254.041 80.7572C254.41 80.631 254.8 80.62 255.212 80.7242C255.81 80.8753 256.249 81.2055 256.529 81.7149C256.818 82.2192 256.879 82.8011 256.713 83.4606L255.918 86.6034L254.63 86.2778L255.399 83.238C255.484 82.9014 255.446 82.6031 255.285 82.3432C255.133 82.0782 254.888 81.9031 254.552 81.818C254.215 81.7329 253.913 81.7699 253.647 81.9291C253.388 82.083 253.217 82.3283 253.132 82.6649L252.363 85.7047L251.075 85.3791ZM256.946 86.8632L258.769 79.6501L260.057 79.9757L258.963 84.3036L261.52 82.4285L263.014 82.8062L260.199 84.8353L261.789 88.0875L260.295 87.7098L258.859 84.7157L258.234 87.1888L256.946 86.8632Z" fill="#121212"/>
<g clip-path="url(#clip2_659_7412)">
<path d="M398.227 107.565L394.927 102.033M394.927 102.033L391.627 96.5002M394.927 102.033L400.459 98.733M394.927 102.033L389.394 105.333" stroke="#8B91AC" stroke-width="1.51836" stroke-linecap="round" stroke-linejoin="round"/>
</g>
<rect x="58.5801" y="146.212" width="308.986" height="30.3671" rx="7.59179" transform="rotate(14.1867 58.5801 146.212)" fill="#079669"/>
<path d="M189.175 196.195L190.566 196.547C190.476 196.729 190.364 196.913 190.229 197.098C190.102 197.285 189.915 197.486 189.671 197.702C189.435 197.913 189.178 198.089 188.901 198.231C188.624 198.373 188.286 198.467 187.887 198.512C187.49 198.551 187.075 198.515 186.643 198.406C185.653 198.156 184.911 197.595 184.415 196.724C183.919 195.853 183.806 194.882 184.077 193.81C184.348 192.739 184.908 191.938 185.759 191.407C186.609 190.877 187.529 190.736 188.518 190.987C188.923 191.089 189.282 191.245 189.594 191.456C189.915 191.661 190.169 191.886 190.356 192.131C190.542 192.375 190.694 192.644 190.81 192.936C190.928 193.222 191.007 193.487 191.047 193.731C191.088 193.975 191.106 194.21 191.1 194.435L189.709 194.083C189.662 193.691 189.517 193.322 189.276 192.976C189.041 192.632 188.68 192.398 188.193 192.275C187.561 192.115 186.985 192.207 186.467 192.551C185.951 192.888 185.601 193.421 185.416 194.149C185.232 194.877 185.287 195.516 185.579 196.065C185.873 196.607 186.336 196.958 186.968 197.118C187.463 197.243 187.896 197.206 188.268 197.008C188.646 196.811 188.949 196.54 189.175 196.195ZM192.455 198.154C192.65 198.51 192.943 198.738 193.335 198.837C193.726 198.936 194.092 198.875 194.433 198.654C194.774 198.433 195.002 198.096 195.116 197.643C195.231 197.189 195.191 196.784 194.996 196.428C194.801 196.072 194.508 195.844 194.116 195.745C193.724 195.646 193.358 195.707 193.017 195.928C192.677 196.149 192.449 196.486 192.334 196.939C192.22 197.393 192.26 197.797 192.455 198.154ZM192.293 194.846C192.932 194.459 193.639 194.364 194.416 194.56C195.192 194.757 195.766 195.176 196.137 195.818C196.517 196.454 196.606 197.171 196.404 197.968C196.203 198.765 195.783 199.357 195.144 199.744C194.514 200.125 193.811 200.218 193.035 200.022C192.259 199.825 191.681 199.409 191.301 198.772C190.93 198.13 190.845 197.411 191.046 196.614C191.248 195.817 191.663 195.228 192.293 194.846ZM196.509 200.79L197.837 195.535L199.022 195.834L198.995 196.376L199.047 196.389C199.155 196.307 199.298 196.233 199.475 196.168C199.843 196.042 200.233 196.031 200.646 196.135C201.243 196.286 201.682 196.617 201.963 197.126C202.252 197.63 202.313 198.212 202.146 198.872L201.352 202.014L200.064 201.689L200.832 198.649C200.917 198.312 200.88 198.014 200.719 197.754C200.566 197.489 200.322 197.314 199.985 197.229C199.649 197.144 199.347 197.181 199.08 197.34C198.822 197.494 198.651 197.739 198.565 198.076L197.797 201.116L196.509 200.79ZM202.852 201.078L203.555 198.296L202.731 198.087L203.043 196.851L203.867 197.059L204.245 195.565L205.533 195.891L205.156 197.385L206.341 197.684L206.028 198.921L204.843 198.621L204.205 201.146C204.144 201.386 204.234 201.537 204.474 201.598L205.299 201.806L205.012 202.94L203.879 202.653C203.446 202.544 203.14 202.353 202.96 202.081C202.789 201.804 202.753 201.47 202.852 201.078ZM205.833 203.147L207.161 197.892L208.449 198.218L207.121 203.473L205.833 203.147ZM207.318 197.055L207.631 195.818L209.022 196.17L208.709 197.406L207.318 197.055ZM208.15 203.733L209.479 198.478L210.664 198.777L210.636 199.319L210.688 199.332C210.796 199.249 210.939 199.176 211.116 199.111C211.484 198.985 211.875 198.974 212.287 199.078C212.884 199.229 213.323 199.559 213.604 200.069C213.893 200.573 213.954 201.155 213.788 201.814L212.993 204.957L211.705 204.632L212.473 201.592C212.559 201.255 212.521 200.957 212.36 200.697C212.208 200.432 211.963 200.257 211.627 200.172C211.29 200.087 210.988 200.124 210.721 200.283C210.463 200.437 210.292 200.682 210.207 201.019L209.438 204.059L208.15 203.733ZM214.503 203.092L215.298 199.949L216.586 200.274L215.817 203.314C215.732 203.651 215.766 203.952 215.918 204.217C216.079 204.477 216.328 204.649 216.664 204.734C217.001 204.819 217.298 204.785 217.556 204.631C217.823 204.472 217.999 204.224 218.084 203.887L218.853 200.847L220.141 201.173L218.812 206.428L217.627 206.129L217.654 205.587L217.603 205.574C217.494 205.657 217.352 205.73 217.174 205.795C216.806 205.921 216.416 205.932 216.004 205.828C215.406 205.677 214.963 205.349 214.674 204.845C214.393 204.335 214.336 203.751 214.503 203.092ZM221.651 203.857L224.33 204.534C224.356 204.168 224.284 203.847 224.113 203.569C223.949 203.294 223.692 203.112 223.341 203.024C222.97 202.93 222.637 202.962 222.341 203.121C222.053 203.275 221.823 203.521 221.651 203.857ZM223.733 206.028L225.072 206.366C225.005 206.488 224.899 206.619 224.754 206.757C224.618 206.891 224.432 207.034 224.196 207.186C223.969 207.334 223.681 207.432 223.332 207.483C222.985 207.527 222.619 207.5 222.234 207.403C221.458 207.207 220.88 206.79 220.5 206.153C220.129 205.511 220.044 204.792 220.245 203.995C220.447 203.198 220.862 202.609 221.492 202.227C222.131 201.841 222.838 201.745 223.615 201.942C224.336 202.124 224.88 202.532 225.246 203.165C225.621 203.793 225.714 204.478 225.527 205.22C225.511 205.282 225.469 205.403 225.402 205.584L225.345 205.723L221.429 204.733C221.39 205.118 221.469 205.456 221.666 205.746C221.863 206.037 222.144 206.229 222.508 206.321C222.782 206.39 223.031 206.391 223.253 206.323C223.476 206.248 223.636 206.149 223.733 206.028Z" fill="white"/>
<rect x="80.6246" y="60.558" width="308.226" height="54.6609" rx="8.45725" transform="rotate(14.1867 80.6246 60.558)" stroke="#DFE2E6" stroke-width="0.759179"/>
<path d="M115.12 93.296L116.943 86.0829L119.365 86.6951C120.368 86.9486 121.106 87.4971 121.58 88.3404C122.062 89.1786 122.17 90.1232 121.905 91.1742C121.639 92.2253 121.094 93.0084 120.269 93.5235C119.454 94.0334 118.544 94.1617 117.541 93.9081L115.12 93.296ZM116.139 92.7316L117.737 93.1353C118.492 93.3263 119.183 93.2233 119.81 92.8263C120.445 92.4241 120.869 91.8039 121.08 90.9658C121.292 90.1278 121.213 89.3843 120.844 88.7354C120.483 88.0814 119.925 87.6589 119.169 87.4679L117.572 87.0642L116.139 92.7316ZM125.271 95.8623L125.325 95.218L125.273 95.2049C125.142 95.318 124.988 95.407 124.811 95.4718C124.434 95.6324 123.995 95.6493 123.494 95.5225C122.958 95.387 122.559 95.1291 122.297 94.7486C122.042 94.3698 121.974 93.9435 122.094 93.4695C122.224 92.9543 122.494 92.5949 122.904 92.3915C123.322 92.1829 123.878 92.1664 124.572 92.3417L125.963 92.6934L126.002 92.5388C126.101 92.1473 126.067 91.8172 125.901 91.5487C125.744 91.275 125.47 91.0887 125.078 90.9897C124.707 90.896 124.383 90.9054 124.106 91.0181C123.838 91.1257 123.659 91.2996 123.569 91.54L122.796 91.3446C122.934 90.9119 123.225 90.587 123.667 90.3699C124.118 90.1477 124.649 90.1139 125.26 90.2684C125.885 90.4265 126.333 90.7224 126.604 91.1561C126.874 91.5899 126.931 92.1159 126.775 92.7342L125.941 96.0316L125.271 95.8623ZM125.728 93.6208L125.781 93.4147L124.389 93.0631C123.95 92.9519 123.602 92.9553 123.345 93.0732C123.096 93.1928 122.936 93.3901 122.867 93.6648C122.799 93.9328 122.835 94.1683 122.973 94.3714C123.112 94.5746 123.346 94.7178 123.676 94.8012C124.191 94.9314 124.629 94.8922 124.988 94.6835C125.357 94.4696 125.603 94.1154 125.728 93.6208ZM127.078 96.3188L128.38 91.1667L129.05 91.336L129.009 91.9288L129.061 91.9418C129.206 91.8322 129.361 91.7544 129.526 91.7084C129.94 91.572 130.357 91.5568 130.776 91.6627C131.374 91.8138 131.814 92.1406 132.096 92.6432C132.387 93.1406 132.451 93.7088 132.29 94.3476L131.508 97.4389L130.736 97.2436L131.517 94.1523C131.621 93.7401 131.574 93.3627 131.376 93.0202C131.177 92.6777 130.882 92.457 130.491 92.358C130.078 92.2538 129.688 92.3086 129.32 92.5225C128.96 92.7312 128.731 93.0313 128.632 93.4229L127.85 96.5142L127.078 96.3188ZM132.697 97.7393L133.999 92.5871L134.772 92.7825L133.469 97.9347L132.697 97.7393ZM134.221 91.4921L134.442 90.6163L135.318 90.8377L135.097 91.7136L134.221 91.4921ZM138.57 97.6893L139.394 97.8977C139.091 98.3471 138.713 98.6572 138.26 98.8278C137.815 99.0002 137.324 99.0187 136.788 98.8833C136.081 98.7044 135.552 98.3078 135.203 97.6933C134.863 97.0738 134.793 96.369 134.992 95.579C135.192 94.789 135.588 94.2057 136.18 93.8292C136.781 93.4475 137.435 93.3461 138.143 93.525C138.823 93.6969 139.327 94.0729 139.656 94.6529C139.991 95.2346 140.068 95.8827 139.888 96.5972C139.86 96.7071 139.812 96.8522 139.745 97.0324L139.693 97.1509L135.674 96.135C135.608 96.6297 135.695 97.0648 135.936 97.44C136.186 97.8102 136.531 98.0508 136.971 98.162C137.28 98.2401 137.573 98.2374 137.85 98.154C138.133 98.0722 138.374 97.9173 138.57 97.6893ZM135.856 95.4137L139.154 96.2472C139.244 95.7732 139.176 95.3502 138.948 94.9784C138.729 94.6015 138.4 94.3574 137.96 94.2463C137.5 94.13 137.078 94.1804 136.694 94.3977C136.311 94.6149 136.031 94.9536 135.856 95.4137ZM140.058 99.6002L141.882 92.3872L142.654 92.5826L140.831 99.7956L140.058 99.6002ZM150.241 99.653L151.117 99.8744C150.718 100.585 150.174 101.09 149.484 101.391C148.803 101.687 148.074 101.736 147.298 101.54C146.329 101.295 145.599 100.741 145.108 99.8792C144.617 99.0169 144.509 98.0431 144.783 96.9577C145.058 95.8723 145.616 95.0669 146.457 94.5416C147.299 94.0162 148.204 93.8759 149.173 94.1208C149.942 94.3153 150.56 94.7053 151.026 95.2908C151.494 95.8695 151.737 96.5558 151.755 97.3498L150.879 97.1284C150.831 96.568 150.637 96.0915 150.298 95.6988C149.96 95.2992 149.52 95.0308 148.978 94.8936C148.243 94.7078 147.551 94.8254 146.904 95.2465C146.259 95.6607 145.826 96.3005 145.608 97.1661C145.389 98.0317 145.464 98.8035 145.834 99.4816C146.205 100.153 146.758 100.581 147.493 100.767C148.036 100.904 148.55 100.877 149.037 100.686C149.526 100.488 149.927 100.144 150.241 99.653ZM154.644 103.288L154.698 102.643L154.646 102.63C154.515 102.743 154.361 102.832 154.184 102.897C153.807 103.058 153.368 103.075 152.867 102.948C152.331 102.812 151.932 102.554 151.67 102.174C151.415 101.795 151.347 101.369 151.467 100.895C151.597 100.38 151.867 100.02 152.277 99.8168C152.695 99.6082 153.251 99.5916 153.945 99.767L155.336 100.119L155.375 99.9641C155.474 99.5725 155.44 99.2425 155.274 98.974C155.117 98.7003 154.843 98.514 154.451 98.415C154.08 98.3212 153.756 98.3307 153.479 98.4434C153.211 98.5509 153.032 98.7249 152.942 98.9653L152.169 98.7699C152.307 98.3372 152.598 98.0123 153.04 97.7952C153.491 97.573 154.022 97.5391 154.633 97.6937C155.259 97.8517 155.706 98.1476 155.977 98.5814C156.247 99.0152 156.304 99.5412 156.148 100.159L155.314 103.457L154.644 103.288ZM155.101 101.046L155.154 100.84L153.762 100.488C153.323 100.377 152.975 100.381 152.718 100.498C152.469 100.618 152.309 100.815 152.24 101.09C152.172 101.358 152.208 101.594 152.346 101.797C152.485 102 152.719 102.143 153.049 102.226C153.564 102.357 154.002 102.317 154.361 102.109C154.73 101.895 154.976 101.541 155.101 101.046ZM156.451 103.744L157.753 98.5919L158.423 98.7612L158.383 99.354L158.434 99.367C158.568 99.2694 158.716 99.1899 158.878 99.1285C159.258 98.9834 159.613 98.9525 159.943 99.0359C160.389 99.1488 160.737 99.3937 160.985 99.7707C161.091 99.9291 161.168 100.102 161.216 100.289L161.267 100.302C161.427 100.16 161.605 100.052 161.799 99.9765C162.252 99.7766 162.715 99.7366 163.189 99.8564C163.725 99.9919 164.12 100.293 164.375 100.759C164.631 101.219 164.685 101.744 164.536 102.335L163.715 105.581L162.942 105.385L163.763 102.139C163.862 101.748 163.834 101.408 163.68 101.121C163.527 100.833 163.268 100.644 162.903 100.552C162.56 100.465 162.226 100.516 161.9 100.704C161.584 100.887 161.38 101.157 161.29 101.514L160.469 104.76L159.696 104.565L160.517 101.319C160.616 100.927 160.588 100.588 160.435 100.3C160.281 100.013 160.022 99.8232 159.658 99.7312C159.314 99.6443 158.98 99.695 158.654 99.8832C158.338 100.066 158.134 100.336 158.044 100.694L157.223 103.939L156.451 103.744ZM168.765 105.322L169.59 105.531C169.286 105.98 168.908 106.29 168.456 106.461C168.01 106.633 167.519 106.652 166.984 106.516C166.276 106.338 165.748 105.941 165.399 105.326C165.058 104.707 164.988 104.002 165.188 103.212C165.388 102.422 165.784 101.839 166.376 101.462C166.976 101.081 167.631 100.979 168.338 101.158C169.018 101.33 169.523 101.706 169.851 102.286C170.186 102.868 170.264 103.516 170.083 104.23C170.055 104.34 170.008 104.485 169.94 104.666L169.888 104.784L165.87 103.768C165.803 104.263 165.89 104.698 166.132 105.073C166.382 105.443 166.726 105.684 167.166 105.795C167.475 105.873 167.768 105.871 168.045 105.787C168.329 105.705 168.569 105.55 168.765 105.322ZM166.052 103.047L169.349 103.88C169.44 103.406 169.371 102.983 169.144 102.612C168.925 102.235 168.595 101.991 168.156 101.879C167.696 101.763 167.274 101.814 166.89 102.031C166.506 102.248 166.227 102.587 166.052 103.047ZM170.202 107.22L171.504 102.068L172.174 102.237L172.147 102.779L172.199 102.792C172.367 102.644 172.527 102.546 172.679 102.497C172.837 102.449 173.047 102.458 173.308 102.524L174.184 102.745L174.001 103.467L173.228 103.271C172.864 103.179 172.558 103.208 172.308 103.357C172.067 103.5 171.9 103.754 171.808 104.118L170.975 107.416L170.202 107.22ZM177.281 108.33C176.689 108.707 176.039 108.806 175.331 108.627C174.624 108.448 174.096 108.051 173.747 107.437C173.406 106.817 173.336 106.112 173.536 105.322C173.735 104.532 174.131 103.949 174.723 103.573C175.324 103.191 175.978 103.09 176.686 103.268C177.393 103.447 177.917 103.846 178.258 104.466C178.607 105.08 178.681 105.783 178.482 106.573C178.282 107.363 177.882 107.949 177.281 108.33ZM174.436 107.052C174.674 107.499 175.033 107.784 175.514 107.905C175.995 108.027 176.442 107.946 176.857 107.664C177.279 107.383 177.563 106.954 177.709 106.377C177.855 105.8 177.809 105.288 177.571 104.841C177.34 104.395 176.984 104.111 176.504 103.99C176.023 103.868 175.571 103.948 175.15 104.228C174.735 104.511 174.454 104.941 174.308 105.518C174.163 106.095 174.205 106.606 174.436 107.052ZM178.65 109.356L179.953 104.204L180.623 104.373L180.582 104.966L180.634 104.979C180.779 104.869 180.933 104.792 181.099 104.746C181.513 104.609 181.93 104.594 182.349 104.7C182.947 104.851 183.386 105.178 183.669 105.68C183.96 106.178 184.024 106.746 183.863 107.385L183.081 110.476L182.308 110.281L183.09 107.189C183.194 106.777 183.147 106.4 182.949 106.057C182.75 105.715 182.455 105.494 182.063 105.395C181.651 105.291 181.261 105.346 180.893 105.56C180.533 105.768 180.304 106.069 180.205 106.46L179.423 109.551L178.65 109.356Z" fill="black"/>
<path d="M111.132 105.6L114.947 99.9868L116.361 100.344L117.05 107.096L116.034 106.839L115.873 105.248L113.046 104.533L112.148 105.857L111.132 105.6ZM113.568 103.773L115.776 104.331L115.474 101.248L115.298 101.203L113.568 103.773ZM121.149 106.488L122.033 106.711C121.945 106.883 121.832 107.046 121.693 107.199C121.56 107.353 121.393 107.495 121.191 107.626C120.994 107.758 120.756 107.845 120.476 107.887C120.196 107.929 119.9 107.911 119.588 107.832C118.946 107.669 118.47 107.323 118.159 106.794C117.854 106.266 117.788 105.66 117.961 104.977C118.133 104.294 118.479 103.793 118.999 103.473C119.524 103.155 120.107 103.077 120.749 103.239C121.338 103.388 121.758 103.672 122.009 104.093C122.261 104.507 122.384 104.924 122.379 105.342L121.496 105.119C121.441 104.541 121.125 104.18 120.548 104.034C120.166 103.937 119.813 103.995 119.489 104.208C119.174 104.416 118.958 104.747 118.844 105.2C118.729 105.654 118.761 106.05 118.938 106.389C119.123 106.724 119.406 106.94 119.789 107.037C120.107 107.117 120.385 107.096 120.622 106.975C120.86 106.853 121.036 106.691 121.149 106.488ZM126.049 107.726L126.932 107.95C126.845 108.122 126.731 108.284 126.593 108.437C126.46 108.591 126.292 108.734 126.09 108.864C125.894 108.996 125.655 109.083 125.375 109.125C125.095 109.167 124.799 109.149 124.487 109.07C123.846 108.908 123.369 108.562 123.058 108.032C122.753 107.504 122.687 106.899 122.86 106.216C123.032 105.532 123.378 105.031 123.898 104.711C124.423 104.393 125.007 104.315 125.648 104.477C126.237 104.626 126.657 104.911 126.908 105.331C127.16 105.746 127.283 106.162 127.278 106.581L126.395 106.357C126.34 105.78 126.025 105.418 125.447 105.272C125.065 105.175 124.712 105.233 124.389 105.446C124.073 105.655 123.858 105.985 123.743 106.439C123.628 106.892 123.66 107.289 123.837 107.628C124.022 107.963 124.306 108.178 124.688 108.275C125.006 108.356 125.284 108.335 125.521 108.213C125.759 108.092 125.935 107.929 126.049 107.726ZM128.732 107.324L131.337 107.983C131.381 107.612 131.315 107.288 131.141 107.012C130.966 106.736 130.705 106.554 130.358 106.467C129.993 106.374 129.671 106.409 129.392 106.57C129.115 106.725 128.894 106.977 128.732 107.324ZM130.793 109.208L131.72 109.442C131.501 109.762 131.185 110.021 130.772 110.217C130.367 110.409 129.905 110.44 129.387 110.309C128.745 110.146 128.268 109.8 127.957 109.271C127.652 108.743 127.586 108.137 127.759 107.454C127.932 106.771 128.278 106.27 128.797 105.95C129.322 105.632 129.906 105.554 130.548 105.716C131.148 105.868 131.6 106.201 131.902 106.716C132.204 107.231 132.277 107.797 132.12 108.416C132.107 108.469 132.071 108.572 132.013 108.727L131.965 108.846L128.564 107.986C128.516 108.375 128.584 108.712 128.769 108.997C128.954 109.281 129.223 109.469 129.576 109.558C129.824 109.62 130.056 109.617 130.275 109.546C130.5 109.472 130.673 109.359 130.793 109.208ZM132.485 109.588L133.368 109.812C133.328 109.971 133.378 110.143 133.519 110.329C133.66 110.515 133.892 110.649 134.216 110.731C134.522 110.808 134.766 110.81 134.947 110.737C135.136 110.659 135.25 110.544 135.289 110.391C135.329 110.232 135.31 110.096 135.232 109.982C135.156 109.863 135.002 109.752 134.771 109.649L134.01 109.316C133.192 108.959 132.873 108.424 133.053 107.712C133.147 107.341 133.374 107.072 133.736 106.907C134.103 106.743 134.572 106.733 135.143 106.877C135.443 106.953 135.702 107.069 135.92 107.224C136.143 107.381 136.304 107.55 136.403 107.731C136.507 107.914 136.575 108.091 136.607 108.262C136.64 108.427 136.64 108.575 136.608 108.704L135.724 108.481C135.763 108.328 135.719 108.166 135.593 107.997C135.467 107.827 135.254 107.704 134.953 107.628C134.659 107.554 134.425 107.551 134.251 107.62C134.078 107.683 133.973 107.788 133.936 107.935C133.869 108.2 134.045 108.432 134.465 108.632L135.226 108.966C136.044 109.323 136.359 109.872 136.172 110.614C136.077 110.991 135.841 111.267 135.465 111.441C135.095 111.617 134.615 111.63 134.026 111.481C133.697 111.398 133.412 111.273 133.172 111.106C132.938 110.94 132.77 110.763 132.668 110.574C132.571 110.387 132.506 110.211 132.472 110.046C132.446 109.876 132.45 109.724 132.485 109.588ZM136.771 110.672L137.655 110.895C137.614 111.054 137.665 111.227 137.806 111.413C137.947 111.599 138.179 111.733 138.503 111.814C138.809 111.892 139.053 111.894 139.234 111.821C139.423 111.743 139.537 111.628 139.575 111.475C139.616 111.316 139.597 111.179 139.519 111.066C139.443 110.946 139.289 110.835 139.058 110.733L138.297 110.4C137.479 110.043 137.16 109.508 137.34 108.795C137.433 108.424 137.661 108.156 138.022 107.991C138.39 107.827 138.859 107.817 139.43 107.961C139.73 108.037 139.989 108.153 140.207 108.308C140.43 108.465 140.591 108.634 140.689 108.815C140.793 108.998 140.861 109.175 140.893 109.346C140.927 109.511 140.927 109.658 140.894 109.788L140.011 109.565C140.05 109.412 140.006 109.25 139.88 109.08C139.754 108.911 139.54 108.788 139.24 108.712C138.946 108.637 138.712 108.635 138.538 108.703C138.365 108.766 138.26 108.871 138.223 109.019C138.156 109.284 138.332 109.516 138.751 109.716L139.513 110.049C140.331 110.407 140.646 110.956 140.459 111.698C140.363 112.075 140.128 112.35 139.752 112.525C139.381 112.7 138.902 112.714 138.313 112.565C137.983 112.482 137.699 112.357 137.459 112.189C137.225 112.024 137.057 111.847 136.954 111.658C136.858 111.471 136.793 111.294 136.759 111.129C136.733 110.96 136.737 110.807 136.771 110.672ZM143.199 113.706L144.762 107.524L147.5 108.216C148.007 108.344 148.385 108.618 148.636 109.039C148.888 109.453 148.953 109.902 148.831 110.385C148.733 110.773 148.536 111.081 148.241 111.307C148.125 111.396 147.989 111.475 147.834 111.542L147.823 111.586C147.943 111.704 148.04 111.842 148.113 111.998C148.291 112.362 148.329 112.745 148.228 113.145C148.104 113.634 147.833 114.001 147.414 114.246C147.001 114.492 146.547 114.553 146.052 114.428L143.199 113.706ZM145.009 110.452L146.775 110.899C147.022 110.961 147.254 110.926 147.469 110.792C147.685 110.659 147.826 110.459 147.893 110.194C147.96 109.93 147.93 109.687 147.804 109.467C147.678 109.247 147.491 109.106 147.244 109.044L145.478 108.597L145.009 110.452ZM144.339 113.102L146.194 113.571C146.441 113.633 146.672 113.598 146.888 113.464C147.103 113.331 147.244 113.131 147.311 112.866C147.378 112.602 147.349 112.359 147.223 112.139C147.097 111.92 146.91 111.778 146.663 111.716L144.808 111.247L144.339 113.102ZM151.726 115.862L151.76 115.354L151.716 115.343C151.6 115.432 151.469 115.502 151.325 115.554C150.994 115.671 150.635 115.68 150.246 115.582C149.763 115.46 149.41 115.236 149.185 114.909C148.961 114.583 148.9 114.217 149.003 113.811C149.117 113.357 149.357 113.039 149.723 112.856C150.095 112.674 150.581 112.659 151.182 112.811L152.286 113.09L152.308 113.002C152.381 112.713 152.356 112.466 152.233 112.259C152.109 112.053 151.904 111.913 151.615 111.84C151.332 111.769 151.098 111.778 150.912 111.869C150.728 111.954 150.601 112.072 150.531 112.224L149.648 112.001C149.77 111.618 150.025 111.338 150.415 111.161C150.806 110.978 151.269 110.954 151.805 111.089C152.376 111.234 152.783 111.496 153.025 111.877C153.267 112.258 153.322 112.707 153.191 113.225L152.477 116.052L151.726 115.862ZM152.062 113.974L152.107 113.797L151.047 113.529C150.723 113.447 150.463 113.45 150.265 113.538C150.073 113.627 149.951 113.778 149.897 113.99C149.845 114.196 149.872 114.375 149.977 114.527C150.083 114.679 150.265 114.788 150.524 114.853C150.925 114.955 151.257 114.929 151.521 114.776C151.787 114.618 151.967 114.35 152.062 113.974ZM153.582 116.331L154.699 111.915L155.493 112.116L155.47 112.58L155.514 112.591C155.64 112.516 155.771 112.455 155.908 112.409C156.235 112.303 156.576 112.295 156.929 112.385C157.465 112.52 157.849 112.796 158.082 113.212C158.323 113.624 158.371 114.115 158.226 114.686L157.557 117.336L156.673 117.113L157.343 114.463C157.416 114.174 157.376 113.901 157.222 113.643C157.075 113.38 156.852 113.211 156.551 113.135C156.227 113.053 155.927 113.09 155.65 113.245C155.38 113.396 155.208 113.616 155.135 113.905L154.465 116.554L153.582 116.331ZM158.707 117.626L160.27 111.444L161.153 111.667L160.193 115.465L162.561 113.902L163.621 114.17L161.087 115.832L162.593 118.609L161.533 118.341L160.126 115.73L159.59 117.85L158.707 117.626ZM165.24 121.157L167.316 112.943L168.199 113.167L166.123 121.381L165.24 121.157ZM174.067 120.034C174.469 119.71 174.762 119.179 174.948 118.443C175.134 117.707 175.127 117.104 174.927 116.634C174.728 116.157 174.413 115.865 173.983 115.756C173.553 115.648 173.138 115.756 172.736 116.08C172.336 116.399 172.043 116.926 171.857 117.662C171.671 118.398 171.678 119.004 171.877 119.48C172.077 119.951 172.392 120.24 172.822 120.349C173.252 120.458 173.667 120.353 174.067 120.034ZM172.232 115.285C172.854 114.835 173.512 114.697 174.207 114.873C174.901 115.049 175.415 115.482 175.748 116.174C176.08 116.866 176.123 117.7 175.876 118.678C175.629 119.655 175.194 120.369 174.573 120.82C173.952 121.27 173.294 121.408 172.599 121.232C171.904 121.057 171.39 120.623 171.058 119.931C170.725 119.24 170.683 118.405 170.93 117.428C171.177 116.45 171.611 115.736 172.232 115.285ZM179.898 121.508C180.299 121.184 180.593 120.653 180.779 119.917C180.965 119.181 180.958 118.578 180.757 118.108C180.558 117.631 180.244 117.339 179.814 117.23C179.384 117.122 178.968 117.229 178.567 117.554C178.167 117.873 177.874 118.4 177.688 119.136C177.502 119.872 177.508 120.478 177.707 120.954C177.908 121.425 178.223 121.714 178.653 121.823C179.083 121.932 179.498 121.827 179.898 121.508ZM178.063 116.759C178.684 116.309 179.342 116.171 180.037 116.347C180.732 116.523 181.246 116.956 181.578 117.648C181.911 118.34 181.954 119.174 181.706 120.152C181.459 121.129 181.025 121.843 180.404 122.294C179.783 122.744 179.124 122.882 178.43 122.706C177.735 122.531 177.221 122.097 176.889 121.405C176.556 120.713 176.513 119.879 176.76 118.901C177.007 117.924 177.442 117.21 178.063 116.759ZM183.828 120.5C184.004 120.795 184.269 120.987 184.622 121.077C184.975 121.166 185.299 121.123 185.595 120.947C185.89 120.771 186.082 120.506 186.171 120.153C186.26 119.8 186.217 119.475 186.041 119.18C185.865 118.885 185.6 118.693 185.247 118.604C184.894 118.514 184.57 118.558 184.275 118.734C183.98 118.91 183.787 119.174 183.698 119.528C183.609 119.881 183.652 120.205 183.828 120.5ZM182.781 123.712L184.686 121.939L184.642 121.927L184.52 121.925C184.423 121.913 184.327 121.895 184.233 121.871C183.68 121.731 183.259 121.412 182.972 120.913C182.692 120.41 182.625 119.87 182.771 119.293C182.923 118.693 183.256 118.241 183.771 117.939C184.286 117.637 184.852 117.564 185.47 117.72C186.089 117.877 186.553 118.21 186.862 118.721C187.172 119.231 187.25 119.787 187.099 120.387C186.985 120.835 186.763 121.217 186.433 121.534L183.841 123.98L182.781 123.712ZM187.145 124.815L190.657 120.065L187.698 119.317L187.922 118.434L191.94 119.45L191.739 120.245L188.169 125.074L187.145 124.815ZM192.142 126.079L193.314 121.442L192.033 121.118L192.256 120.235L193.272 120.491C193.449 120.536 193.559 120.47 193.604 120.293L193.705 119.896L194.632 120.13L193.069 126.313L192.142 126.079ZM196.188 123.625C196.364 123.92 196.629 124.112 196.982 124.201C197.335 124.291 197.66 124.247 197.955 124.071C198.25 123.895 198.442 123.631 198.531 123.277C198.62 122.924 198.577 122.6 198.401 122.305C198.225 122.01 197.961 121.818 197.607 121.728C197.254 121.639 196.93 121.682 196.635 121.858C196.34 122.034 196.147 122.299 196.058 122.652C195.969 123.005 196.012 123.33 196.188 123.625ZM195.141 126.837L197.046 125.063L197.002 125.052L196.88 125.049C196.783 125.037 196.688 125.019 196.593 124.996C196.04 124.856 195.619 124.536 195.332 124.038C195.052 123.535 194.985 122.995 195.131 122.418C195.283 121.817 195.616 121.366 196.131 121.064C196.646 120.762 197.212 120.689 197.831 120.845C198.449 121.001 198.913 121.335 199.222 121.845C199.532 122.356 199.61 122.911 199.459 123.512C199.345 123.959 199.123 124.342 198.793 124.659L196.201 127.105L195.141 126.837ZM200.267 128.133L201.439 123.496L200.158 123.172L200.382 122.289L201.397 122.545C201.574 122.59 201.685 122.524 201.729 122.347L201.83 121.95L202.757 122.184L201.194 128.367L200.267 128.133ZM203.355 128.913L204.527 124.276L203.246 123.952L203.469 123.069L204.485 123.326C204.662 123.371 204.772 123.305 204.817 123.128L204.917 122.73L205.845 122.965L204.282 129.148L203.355 128.913ZM205.383 129.426L205.584 128.631L208.775 126.713C208.989 126.585 209.144 126.465 209.242 126.351C209.347 126.234 209.426 126.069 209.48 125.857C209.564 125.521 209.539 125.239 209.402 125.011C209.273 124.778 209.05 124.621 208.732 124.54C208.42 124.462 208.129 124.507 207.861 124.677C207.592 124.847 207.414 125.106 207.326 125.454L206.399 125.219C206.555 124.601 206.87 124.148 207.344 123.861C207.817 123.573 208.354 123.505 208.955 123.657C209.556 123.809 209.99 124.11 210.259 124.56C210.534 125.005 210.599 125.52 210.451 126.103C210.366 126.438 210.216 126.71 210 126.919C209.791 127.129 209.505 127.342 209.144 127.558L206.986 128.844L206.975 128.889L209.669 129.57L209.445 130.453L205.383 129.426ZM211.298 130.921L212.471 126.284L211.19 125.961L211.413 125.077L212.429 125.334C212.606 125.379 212.716 125.313 212.761 125.136L212.861 124.739L213.789 124.973L212.226 131.156L211.298 130.921Z" fill="#6B7280"/>
<path d="M87.8137 92.5232L88.3103 90.559M91.7392 93.5155L92.2357 91.5513M95.6647 94.5078L96.1612 92.5436M99.5901 95.5001L100.087 93.5359M86.0035 94.7279L100.135 98.3003L99.5398 100.656L85.4081 97.0832L86.0035 94.7279ZM87.7897 87.6621L88.1866 86.0919L95.7559 84.6643L102.318 89.6643L101.921 91.2345L87.7897 87.6621Z" stroke="#99A2B7" stroke-width="1.51836" stroke-linecap="round" stroke-linejoin="round"/>
<path d="M271.859 179.157L275.038 174.479L276.216 174.777L276.79 180.403L275.944 180.189L275.809 178.863L273.454 178.268L272.705 179.371L271.859 179.157ZM273.888 177.634L275.728 178.099L275.477 175.53L275.33 175.493L273.888 177.634ZM279.807 181.166L279.845 180.706L279.808 180.697C279.461 180.974 279.038 181.05 278.537 180.923C278.047 180.799 277.686 180.523 277.455 180.094C277.224 179.665 277.182 179.161 277.328 178.582C277.475 178.003 277.751 177.579 278.158 177.312C278.565 177.044 279.014 176.972 279.505 177.096C279.721 177.151 279.907 177.239 280.064 177.363C280.227 177.482 280.328 177.576 280.369 177.643C280.41 177.706 280.459 177.791 280.515 177.9L280.552 177.909L281.036 175.995L281.772 176.181L280.47 181.334L279.807 181.166ZM278.137 179.749C278.285 180.032 278.511 180.212 278.815 180.289C279.119 180.366 279.401 180.314 279.661 180.135C279.925 179.956 280.104 179.68 280.199 179.307C280.293 178.934 280.266 178.607 280.118 178.324C279.976 178.042 279.752 177.863 279.448 177.786C279.144 177.709 278.859 177.76 278.595 177.939C278.335 178.119 278.158 178.395 278.064 178.768C277.97 179.141 277.994 179.468 278.137 179.749ZM284 182.226L284.038 181.766L284.001 181.756C283.654 182.034 283.23 182.11 282.73 181.983C282.239 181.859 281.878 181.583 281.647 181.154C281.417 180.725 281.374 180.221 281.521 179.642C281.667 179.063 281.944 178.639 282.351 178.371C282.758 178.104 283.207 178.032 283.697 178.156C283.913 178.21 284.1 178.299 284.256 178.422C284.419 178.542 284.521 178.636 284.561 178.703C284.603 178.766 284.652 178.851 284.708 178.959L284.745 178.969L285.228 177.055L285.964 177.241L284.662 182.393L284 182.226ZM282.33 180.809C282.477 181.092 282.703 181.272 283.008 181.349C283.312 181.426 283.594 181.374 283.853 181.194C284.118 181.016 284.297 180.74 284.391 180.367C284.485 179.994 284.459 179.666 284.311 179.384C284.168 179.102 283.944 178.923 283.64 178.846C283.336 178.769 283.052 178.82 282.787 178.999C282.528 179.178 282.351 179.455 282.257 179.828C282.162 180.201 282.187 180.528 282.33 180.809ZM286.312 184.376L286.479 183.714L287.215 183.9C287.279 183.916 287.339 183.905 287.396 183.867C287.451 183.834 287.493 183.793 287.521 183.743L287.723 183.441L287.209 179.122L287.982 179.317L288.342 182.384L288.49 182.421L290.153 179.866L290.926 180.062L288.163 184.179C288.03 184.375 287.882 184.505 287.72 184.568C287.561 184.638 287.349 184.639 287.085 184.572L286.312 184.376ZM291.311 183.088C291.465 183.367 291.702 183.546 292.021 183.627C292.34 183.708 292.631 183.661 292.894 183.488C293.163 183.31 293.346 183.033 293.441 182.655C293.537 182.277 293.507 181.949 293.353 181.67C293.206 181.387 292.972 181.205 292.653 181.125C292.334 181.044 292.04 181.092 291.771 181.27C291.508 181.443 291.329 181.719 291.233 182.097C291.138 182.475 291.164 182.805 291.311 183.088ZM293.305 184.093C292.872 184.359 292.388 184.425 291.853 184.29C291.318 184.154 290.922 183.866 290.662 183.425C290.408 182.985 290.353 182.48 290.497 181.911C290.641 181.342 290.929 180.924 291.362 180.657C291.8 180.392 292.286 180.327 292.821 180.462C293.356 180.597 293.75 180.885 294.004 181.325C294.263 181.767 294.321 182.272 294.177 182.841C294.033 183.41 293.742 183.827 293.305 184.093ZM294.637 183.349L295.195 181.141L295.931 181.327L295.373 183.535C295.312 183.775 295.343 184.005 295.465 184.224C295.593 184.439 295.782 184.578 296.033 184.641C296.303 184.71 296.55 184.681 296.775 184.555C297.006 184.425 297.152 184.24 297.213 184L297.771 181.792L298.507 181.978L297.577 185.658L296.914 185.491L296.934 185.104L296.897 185.095C296.792 185.157 296.683 185.208 296.569 185.247C296.296 185.334 296.012 185.341 295.718 185.267C295.272 185.154 294.948 184.926 294.748 184.583C294.553 184.236 294.516 183.825 294.637 183.349ZM298.313 185.844L299.244 182.164L299.869 182.322L299.859 182.672L299.896 182.681C299.902 182.678 299.921 182.664 299.953 182.641C299.99 182.619 300.012 182.604 300.019 182.595C300.032 182.588 300.056 182.576 300.091 182.559C300.128 182.537 300.158 182.523 300.18 182.518C300.202 182.513 300.232 182.508 300.27 182.502C300.309 182.491 300.347 182.487 300.382 182.491C300.424 182.491 300.47 182.495 300.521 182.503C300.572 182.505 300.625 182.513 300.679 182.527L301.341 182.694L301.174 183.357L300.585 183.208C300.07 183.078 299.748 183.268 299.619 183.778L299.049 186.03L298.313 185.844ZM302.107 186.803L303.409 181.651L304.55 181.939L305.634 186.481L305.781 186.518L306.795 182.507L307.568 182.702L306.266 187.855L305.125 187.566L304.041 183.025L303.894 182.987L302.88 186.999L302.107 186.803ZM311.122 189.082L311.216 188.401L311.179 188.392C311.044 188.493 310.88 188.583 310.689 188.659C310.273 188.815 309.835 188.835 309.374 188.719C308.682 188.544 308.161 188.148 307.81 187.532C307.459 186.916 307.382 186.221 307.578 185.446C307.774 184.67 308.173 184.095 308.774 183.72C309.375 183.345 310.022 183.244 310.714 183.419C311.322 183.573 311.786 183.876 312.105 184.327C312.429 184.78 312.589 185.261 312.585 185.772L311.776 185.567C311.731 185.206 311.597 184.903 311.371 184.658C311.152 184.41 310.871 184.242 310.527 184.155C310.037 184.031 309.588 184.103 309.181 184.371C308.774 184.639 308.497 185.062 308.351 185.641C308.204 186.22 308.247 186.724 308.478 187.153C308.708 187.582 309.069 187.859 309.56 187.983C309.992 188.092 310.398 188.046 310.777 187.844C311.163 187.639 311.4 187.364 311.487 187.021L311.496 186.984L310.061 186.621L310.219 185.996L312.427 186.554L311.748 189.24L311.122 189.082ZM312.555 189.444L313.857 184.292L314.998 184.581L316.082 189.122L316.229 189.159L317.243 185.148L318.016 185.343L316.713 190.496L315.573 190.207L314.489 185.666L314.342 185.628L313.328 189.64L312.555 189.444ZM319.107 191.101L320.409 185.949L322.691 186.525C323.113 186.632 323.428 186.861 323.637 187.211C323.848 187.556 323.902 187.93 323.8 188.333C323.718 188.657 323.554 188.913 323.308 189.101C323.211 189.176 323.098 189.241 322.969 189.297L322.96 189.334C323.06 189.432 323.141 189.547 323.202 189.677C323.35 189.981 323.381 190.299 323.297 190.633C323.194 191.04 322.968 191.346 322.619 191.55C322.275 191.755 321.896 191.806 321.484 191.702L319.107 191.101ZM320.615 188.389L322.087 188.761C322.293 188.813 322.486 188.783 322.665 188.672C322.845 188.561 322.962 188.395 323.018 188.174C323.074 187.953 323.049 187.751 322.944 187.568C322.839 187.385 322.684 187.267 322.477 187.215L321.005 186.843L320.615 188.389ZM320.056 190.597L321.602 190.988C321.808 191.04 322.001 191.01 322.181 190.899C322.36 190.788 322.478 190.622 322.534 190.401C322.589 190.18 322.565 189.978 322.46 189.795C322.355 189.612 322.199 189.494 321.993 189.442L320.447 189.051L320.056 190.597ZM325.992 192.841L326.02 192.418L325.984 192.408C325.886 192.483 325.778 192.542 325.657 192.584C325.382 192.682 325.082 192.69 324.759 192.608C324.356 192.506 324.061 192.319 323.874 192.047C323.687 191.776 323.637 191.471 323.722 191.132C323.818 190.754 324.018 190.489 324.323 190.336C324.632 190.185 325.037 190.172 325.538 190.299L326.458 190.532L326.477 190.458C326.537 190.217 326.516 190.011 326.414 189.839C326.311 189.667 326.14 189.551 325.899 189.49C325.664 189.43 325.468 189.438 325.314 189.514C325.16 189.585 325.054 189.683 324.996 189.81L324.26 189.624C324.362 189.305 324.574 189.071 324.899 188.924C325.225 188.771 325.611 188.751 326.057 188.864C326.533 188.984 326.872 189.203 327.074 189.52C327.275 189.838 327.322 190.212 327.213 190.644L326.617 192.999L325.992 192.841ZM326.272 191.268L326.309 191.12L325.426 190.897C325.156 190.829 324.939 190.831 324.774 190.905C324.614 190.979 324.512 191.105 324.467 191.281C324.424 191.453 324.446 191.602 324.534 191.729C324.622 191.855 324.774 191.946 324.99 192.001C325.324 192.085 325.601 192.064 325.821 191.937C326.042 191.805 326.193 191.582 326.272 191.268ZM327.318 193.176L328.248 189.496L328.91 189.664L328.891 190.05L328.928 190.06C329.032 189.997 329.142 189.947 329.256 189.908C329.529 189.82 329.812 189.813 330.107 189.888C330.553 190.001 330.873 190.23 331.068 190.577C331.268 190.92 331.308 191.33 331.188 191.806L330.63 194.014L329.894 193.828L330.452 191.619C330.513 191.379 330.479 191.151 330.351 190.936C330.228 190.717 330.042 190.576 329.792 190.513C329.522 190.445 329.272 190.475 329.04 190.605C328.815 190.731 328.673 190.914 328.612 191.154L328.054 193.362L327.318 193.176ZM331.367 194.2L332.67 189.048L333.406 189.234L332.606 192.399L334.579 191.097L335.462 191.32L333.35 192.705L334.606 195.019L333.722 194.795L332.55 192.62L332.103 194.386L331.367 194.2ZM335.859 195.335L339.038 190.658L340.216 190.955L340.79 196.582L339.944 196.368L339.809 195.042L337.454 194.447L336.705 195.549L335.859 195.335ZM337.888 193.812L339.728 194.278L339.477 191.708L339.33 191.671L337.888 193.812ZM343.986 196.019L344.722 196.206C344.649 196.349 344.555 196.484 344.439 196.612C344.328 196.74 344.188 196.859 344.02 196.968C343.856 197.078 343.658 197.15 343.425 197.185C343.191 197.22 342.945 197.205 342.684 197.139C342.15 197.004 341.753 196.716 341.494 196.274C341.239 195.834 341.184 195.33 341.328 194.76C341.472 194.191 341.76 193.773 342.193 193.507C342.631 193.242 343.117 193.177 343.652 193.312C344.143 193.436 344.493 193.673 344.702 194.024C344.912 194.369 345.015 194.716 345.01 195.065L344.274 194.879C344.229 194.397 343.965 194.096 343.485 193.974C343.166 193.894 342.871 193.942 342.602 194.119C342.339 194.293 342.16 194.569 342.064 194.946C341.969 195.324 341.995 195.655 342.143 195.937C342.297 196.216 342.533 196.396 342.852 196.477C343.117 196.544 343.348 196.527 343.546 196.425C343.744 196.324 343.891 196.189 343.986 196.019ZM347.847 196.996L348.583 197.182C348.511 197.325 348.416 197.461 348.301 197.588C348.19 197.717 348.05 197.835 347.882 197.944C347.718 198.054 347.52 198.127 347.286 198.162C347.053 198.197 346.806 198.181 346.546 198.115C346.011 197.98 345.615 197.692 345.355 197.251C345.101 196.811 345.046 196.306 345.19 195.737C345.334 195.167 345.622 194.75 346.055 194.483C346.493 194.218 346.979 194.153 347.514 194.288C348.005 194.412 348.354 194.649 348.563 195C348.774 195.345 348.876 195.692 348.872 196.041L348.136 195.855C348.09 195.374 347.827 195.072 347.346 194.951C347.027 194.87 346.733 194.918 346.464 195.096C346.201 195.269 346.022 195.545 345.926 195.923C345.831 196.301 345.857 196.631 346.004 196.914C346.158 197.193 346.395 197.372 346.714 197.453C346.979 197.52 347.21 197.503 347.408 197.401C347.606 197.3 347.752 197.165 347.847 196.996ZM349.866 197.89C350.02 198.169 350.257 198.349 350.576 198.429C350.895 198.51 351.186 198.463 351.449 198.29C351.718 198.113 351.9 197.835 351.996 197.457C352.091 197.079 352.062 196.751 351.908 196.472C351.761 196.189 351.527 196.007 351.208 195.927C350.889 195.846 350.595 195.895 350.326 196.072C350.063 196.245 349.883 196.521 349.788 196.899C349.692 197.277 349.719 197.607 349.866 197.89ZM351.86 198.895C351.427 199.161 350.943 199.227 350.408 199.092C349.873 198.957 349.476 198.668 349.217 198.227C348.963 197.787 348.908 197.282 349.052 196.713C349.196 196.144 349.484 195.726 349.917 195.459C350.355 195.194 350.841 195.129 351.376 195.264C351.911 195.4 352.305 195.687 352.559 196.127C352.818 196.569 352.876 197.074 352.732 197.643C352.588 198.212 352.297 198.63 351.86 198.895ZM353.192 198.151L353.75 195.943L354.486 196.129L353.928 198.337C353.867 198.577 353.897 198.807 354.02 199.026C354.148 199.241 354.337 199.38 354.588 199.443C354.857 199.512 355.105 199.483 355.33 199.357C355.561 199.228 355.707 199.043 355.768 198.802L356.326 196.594L357.062 196.78L356.132 200.46L355.469 200.293L355.489 199.906L355.452 199.897C355.347 199.959 355.238 200.01 355.124 200.049C354.851 200.136 354.567 200.143 354.273 200.069C353.826 199.956 353.503 199.728 353.302 199.385C353.108 199.038 353.071 198.627 353.192 198.151ZM356.868 200.646L357.798 196.966L358.461 197.134L358.441 197.52L358.478 197.53C358.583 197.467 358.692 197.417 358.806 197.378C359.079 197.29 359.363 197.283 359.657 197.358C360.104 197.471 360.424 197.701 360.618 198.047C360.819 198.39 360.859 198.8 360.738 199.276L360.18 201.484L359.444 201.298L360.002 199.09C360.063 198.849 360.029 198.621 359.901 198.406C359.779 198.187 359.593 198.046 359.342 197.983C359.073 197.915 358.822 197.945 358.591 198.075C358.366 198.201 358.223 198.384 358.162 198.624L357.604 200.832L356.868 200.646ZM361.227 200.926L361.785 198.718L361.196 198.569L361.373 197.87L361.962 198.019L362.222 196.988L362.958 197.174L362.698 198.205L363.544 198.419L363.368 199.118L362.521 198.904L361.991 201.002C361.954 201.149 362.009 201.241 362.156 201.278L362.781 201.437L362.614 202.099L361.841 201.904C361.581 201.838 361.397 201.718 361.29 201.545C361.187 201.373 361.166 201.167 361.227 200.926Z" fill="#079669"/>
<path d="M266.766 175.347C266.691 175.642 266.583 175.918 266.439 176.175C266.263 176.522 266.025 176.844 265.753 177.108C264.849 178.015 263.499 178.437 262.155 178.097C261.208 177.858 260.443 177.283 259.948 176.531C259.732 176.222 259.565 175.876 259.46 175.517C259.259 174.879 259.231 174.177 259.406 173.487C259.657 172.493 260.283 171.682 261.094 171.183C261.94 170.663 262.986 170.477 264.016 170.737C265.102 171.012 265.968 171.73 266.439 172.651C266.863 173.454 267.003 174.409 266.766 175.347Z" stroke="#079669" stroke-width="0.759179" stroke-miterlimit="10" stroke-linecap="round" stroke-linejoin="round"/>
<path d="M264.46 174.746L261.719 174.053" stroke="#079669" stroke-width="0.759179" stroke-miterlimit="10" stroke-linecap="round" stroke-linejoin="round"/>
<path d="M263.43 173.056L262.734 175.807" stroke="#079669" stroke-width="0.759179" stroke-miterlimit="10" stroke-linecap="round" stroke-linejoin="round"/>
</g>
<rect x="67.8224" y="1.08684" width="362.605" height="200.141" rx="7.07124" transform="rotate(14.1867 67.8224 1.08684)" stroke="#EFF1F4" stroke-width="1.04109"/>
<defs>
<clipPath id="clip0_659_7412">
<rect y="141.253" width="387.643" height="245.22" rx="8.09291" transform="rotate(-1.38782 0 141.253)" fill="white"/>
</clipPath>
<clipPath id="clip1_659_7412">
<rect x="67.4453" y="0.45459" width="363.647" height="201.182" rx="7.59179" transform="rotate(14.1867 67.4453 0.45459)" fill="white"/>
</clipPath>
<clipPath id="clip2_659_7412">
<rect width="12.1469" height="12.1469" fill="white" transform="translate(390.527 94.656) rotate(14.1867)"/>
</clipPath>
</defs>
</svg>
