<svg width="24" height="25" viewBox="0 0 24 25" fill="none" xmlns="http://www.w3.org/2000/svg">
<path d="M10 5V18.5C10 19.58 9.55999 20.57 8.85999 21.29L8.82001 21.33C8.73001 21.42 8.63001 21.51 8.54001 21.58C8.24001 21.84 7.89999 22.04 7.54999 22.18C7.43999 22.23 7.33 22.27 7.22 22.31C6.83 22.44 6.41 22.5 6 22.5C5.73 22.5 5.46001 22.47 5.20001 22.42C5.07001 22.39 4.94 22.36 4.81 22.32C4.65 22.27 4.50001 22.22 4.35001 22.15C4.35001 22.14 4.35 22.14 4.34 22.15C4.06 22.01 3.79001 21.85 3.54001 21.66L3.53 21.65C3.4 21.55 3.28001 21.45 3.17001 21.33C3.06001 21.21 2.95 21.09 2.84 20.96C2.65 20.71 2.49001 20.44 2.35001 20.16C2.36001 20.15 2.36001 20.15 2.35001 20.15C2.35001 20.15 2.35 20.14 2.34 20.13C2.28 19.99 2.22999 19.84 2.17999 19.69C2.13999 19.56 2.10999 19.43 2.07999 19.3C2.02999 19.04 2 18.77 2 18.5V5C2 3.5 3 2.5 4.5 2.5H7.5C9 2.5 10 3.5 10 5Z" stroke="#292D32" stroke-width="1.5" stroke-linecap="round" stroke-linejoin="round"/>
<path d="M22 17V20C22 21.5 21 22.5 19.5 22.5H6C6.41 22.5 6.83 22.44 7.22 22.31C7.33 22.27 7.43999 22.23 7.54999 22.18C7.89999 22.04 8.24001 21.84 8.54001 21.58C8.63001 21.51 8.73001 21.42 8.82001 21.33L8.85999 21.29L15.66 14.5H19.5C21 14.5 22 15.5 22 17Z" stroke="#292D32" stroke-width="1.5" stroke-linecap="round" stroke-linejoin="round"/>
<path d="M4.80969 22.32C4.20969 22.14 3.63971 21.81 3.16971 21.33C2.68971 20.86 2.35969 20.29 2.17969 19.69C2.56969 20.94 3.55969 21.93 4.80969 22.32Z" stroke="#292D32" stroke-width="1.5" stroke-linecap="round" stroke-linejoin="round"/>
<path d="M18.3704 11.79L15.6604 14.5L8.86035 21.29C9.56035 20.57 10.0004 19.58 10.0004 18.5V8.84001L12.7104 6.13002C13.7704 5.07002 15.1904 5.07002 16.2504 6.13002L18.3704 8.25002C19.4304 9.31002 19.4304 10.73 18.3704 11.79Z" stroke="#292D32" stroke-width="1.5" stroke-linecap="round" stroke-linejoin="round"/>
<path d="M6 19.5C6.55228 19.5 7 19.0523 7 18.5C7 17.9477 6.55228 17.5 6 17.5C5.44772 17.5 5 17.9477 5 18.5C5 19.0523 5.44772 19.5 6 19.5Z" stroke="#292D32" stroke-width="1.5" stroke-linecap="round" stroke-linejoin="round"/>
</svg>
