<svg width="530" height="745" viewBox="0 0 530 745" fill="none" xmlns="http://www.w3.org/2000/svg">
<g clip-path="url(#clip0_659_7237)">
<path d="M0.682007 665.307L1.84521 758.056L621.656 1129.05V1037.11L0.682007 665.307Z" fill="#079669"/>
<path d="M617.009 297.924L0.689087 665.306L621.663 1037.1L1237.6 668.518L617.009 297.924Z" fill="#C7F2E5"/>
<path d="M91.4451 599.46L92.2206 678.96L621.271 995.749V917.056L91.4451 599.46Z" fill="#C7F2E5"/>
<path d="M617.392 285.874L91.444 599.454L621.271 917.048L1146.83 602.264L617.392 285.874Z" fill="#C7F2E5"/>
<path d="M233.792 600.251L617.779 370.988L1004.48 602.258L620.882 831.922L263.269 617.917L233.792 600.251Z" fill="#079669"/>
<path d="M91.4552 599.459L92.2307 678.959L621.281 995.749V917.055L91.4552 599.459Z" fill="#079669"/>
<path d="M617.778 370.994L233.79 600.256L620.88 831.928L1004.48 602.264L617.778 370.994Z" fill="#97D6C3"/>
<path d="M617.778 406.728L263.267 617.923L233.79 600.256L617.778 370.994L1004.48 602.264L974.615 619.931L617.778 406.728Z" fill="#079669"/>
<path d="M263.678 450.108L264.454 470.184L620.516 683.385V663.711L263.678 450.108Z" fill="#079669"/>
<path d="M617.797 238.911L263.674 450.106L620.512 663.709L974.246 452.113L617.797 238.911Z" fill="#C7F2E5"/>
<path d="M263.678 211.197L264.454 231.272L620.516 444.474V424.8L263.678 211.197Z" fill="#079669"/>
<path d="M617.797 0L263.674 211.195L620.512 424.798L974.246 213.202L617.797 0Z" fill="#C7F2E5"/>
<path d="M678.67 572.957L610.793 613.509L337.347 450.095L406.388 408.739L678.67 572.957Z" fill="#97D6C3"/>
<path d="M406.388 418.777L345.491 454.913L337.347 450.095L406.388 408.739L678.67 572.957L670.137 577.775L406.388 418.777Z" fill="#ACDECF"/>
<mask id="mask0_659_7237" style="mask-type:luminance" maskUnits="userSpaceOnUse" x="361" y="298" width="241" height="310">
<path d="M361.393 464.542L601.482 607.882V405.118L388.544 298.317L361.393 464.542Z" fill="white"/>
</mask>
<g mask="url(#mask0_659_7237)">
<path d="M469.62 603.866C411.993 603.866 365.633 555.902 365.633 496.281C365.633 436.66 411.993 388.696 469.62 388.696C527.247 388.696 573.607 436.66 573.607 496.281C573.607 555.902 527.247 603.866 469.62 603.866Z" fill="#079669"/>
<path d="M441.023 513.315C441.023 497.626 450.122 492.247 468.319 490.006C481.318 488.212 483.918 484.626 483.918 478.35C483.918 472.073 479.584 468.04 470.919 468.04C463.12 468.04 458.787 470.729 456.621 477.454C456.187 478.798 454.887 479.695 453.588 479.695H446.656C444.922 479.695 443.622 478.35 443.622 476.557V476.109C445.356 466.246 453.155 458.626 463.12 457.73V446.971C463.12 445.178 464.42 443.833 466.586 443.384H473.085C474.819 443.384 476.119 444.729 476.552 446.971V457.281C489.551 459.075 497.782 468.04 497.782 479.247C497.782 494.04 489.117 499.867 470.919 502.109C458.787 504.35 454.887 507.04 454.887 514.212C454.887 521.385 460.954 526.316 469.186 526.316C480.452 526.316 484.351 521.384 485.651 514.66C486.084 512.867 487.383 511.97 488.683 511.97H496.05C497.782 511.97 499.082 513.315 499.082 515.108V515.557C497.35 526.763 490.417 534.832 476.119 537.074V547.833C476.119 549.625 474.819 550.97 472.653 551.419H466.153C464.42 551.419 463.12 550.074 462.686 547.833V537.074C449.688 534.832 441.023 525.418 441.023 513.315Z" fill="white"/>
<path d="M449.689 422.316C449.256 420.523 447.523 419.627 445.789 420.523C421.96 428.592 402.895 447.868 395.096 473.419C382.098 516.005 404.628 561.281 445.789 574.729C446.223 575.176 447.089 575.176 447.523 575.176C449.256 574.729 450.122 573.384 450.122 571.59V565.315C450.122 563.073 449.256 561.729 447.523 560.832C429.759 554.108 415.46 539.763 408.961 520.936C396.396 486.418 413.727 447.419 447.523 434.868C448.823 433.97 450.122 432.179 450.122 430.385V424.11C450.122 423.213 450.122 422.765 449.689 422.316ZM491.718 420.075C489.985 420.522 489.119 421.867 489.118 423.661V429.936C489.118 432.178 489.985 433.523 491.718 434.419C509.482 441.144 523.78 455.488 530.28 474.315C542.845 508.832 525.514 547.832 491.718 560.383C490.418 561.281 489.118 563.074 489.118 564.418V570.695C489.118 571.591 489.118 572.039 489.552 572.487C489.985 574.28 491.718 575.177 493.451 574.281C517.715 566.212 536.346 546.935 544.145 521.832C557.143 479.247 534.613 433.971 493.451 420.523C493.018 420.075 492.152 420.075 491.718 420.075Z" fill="white"/>
</g>
<path d="M487.843 241.312L571.622 291.902L587.137 282.668L503.358 232.077L487.843 241.312Z" fill="#045137"/>
</g>
<defs>
<clipPath id="clip0_659_7237">
<rect width="530" height="745" fill="white" transform="matrix(-1 0 0 1 530 0)"/>
</clipPath>
</defs>
</svg>
