<svg width="12" height="12" viewBox="0 0 12 12" fill="none" xmlns="http://www.w3.org/2000/svg">
<path d="M8.00024 6.45V8.55C8.00024 10.3 7.30024 11 5.55024 11H3.45024C1.70024 11 1.00024 10.3 1.00024 8.55V6.45C1.00024 4.7 1.70024 4 3.45024 4H5.55024C7.30024 4 8.00024 4.7 8.00024 6.45Z" stroke="#99A2B7" stroke-linecap="round" stroke-linejoin="round"/>
<path d="M11.0002 3.45V5.55C11.0002 7.3 10.3002 8 8.55024 8H8.00024V6.45C8.00024 4.7 7.30024 4 5.55024 4H4.00024V3.45C4.00024 1.7 4.70024 1 6.45024 1H8.55024C10.3002 1 11.0002 1.7 11.0002 3.45Z" stroke="#99A2B7" stroke-linecap="round" stroke-linejoin="round"/>
</svg>
