<svg width="10" height="10" viewBox="0 0 10 10" fill="none" xmlns="http://www.w3.org/2000/svg">
<path d="M3.61328 5.97109C3.61328 6.50859 4.02578 6.94193 4.53828 6.94193H5.58411C6.02995 6.94193 6.39245 6.56276 6.39245 6.09609C6.39245 5.58776 6.17161 5.40859 5.84245 5.29193L4.16328 4.70859C3.83411 4.59193 3.61328 4.41276 3.61328 3.90443C3.61328 3.43776 3.97578 3.05859 4.42161 3.05859H5.46745C5.97995 3.05859 6.39245 3.49193 6.39245 4.02943" stroke="#98A1B0" stroke-width="0.8" stroke-linecap="round" stroke-linejoin="round"/>
<path d="M5 2.5V7.5" stroke="#98A1B0" stroke-width="0.8" stroke-linecap="round" stroke-linejoin="round"/>
<path d="M4.99992 9.16634C7.30111 9.16634 9.16658 7.30086 9.16658 4.99967C9.16658 2.69849 7.30111 0.833008 4.99992 0.833008C2.69873 0.833008 0.833252 2.69849 0.833252 4.99967C0.833252 7.30086 2.69873 9.16634 4.99992 9.16634Z" stroke="#98A1B0" stroke-width="0.8" stroke-linecap="round" stroke-linejoin="round"/>
</svg>
