<svg width="400" height="400" viewBox="0 0 400 400" fill="none" xmlns="http://www.w3.org/2000/svg">
<rect width="400" height="400" fill="white"/>
<path d="M240.024 126.365C240.024 137.771 237.247 147.456 231.766 155.198L103.819 152.335C99.5343 152.172 95.349 153.65 92.1208 156.469C88.8925 159.287 86.8657 163.231 86.4556 167.493L85.5049 176.065C84.7873 175.859 84.1569 175.424 83.7092 174.827C83.2615 174.23 83.0211 173.504 83.0244 172.758V85.4452C83.0788 83.5106 83.687 81.632 84.7771 80.0317C85.5181 79.117 86.4521 78.3769 87.5125 77.8642C88.5728 77.3514 89.7335 77.0787 90.9116 77.0654L175.754 80.3877C205.074 80.9216 240.024 89.2569 240.024 126.365Z" fill="#079669"/>
<path d="M315.98 240.243C315.98 241.089 315.98 241.978 315.98 242.838C315.408 260.153 308.426 276.64 296.387 289.109C284.347 301.578 268.106 309.142 250.805 310.336L85.1161 322.065C84.8002 322.067 84.4964 321.945 84.2702 321.724C84.1772 321.615 84.1081 321.487 84.0672 321.349C84.0264 321.211 84.0146 321.066 84.0326 320.924L100.894 169.231C100.961 168.626 101.252 168.067 101.711 167.666C102.17 167.266 102.763 167.051 103.373 167.066L219.962 169.661L247.436 170.254C265.745 170.687 283.161 178.246 295.972 191.319C308.784 204.393 315.979 221.948 316.024 240.243H315.98Z" fill="#079669"/>
</svg>
