<svg width="24" height="23" viewBox="0 0 24 23" fill="none" xmlns="http://www.w3.org/2000/svg">
<path d="M11.958 5.33447H21.3676" stroke="#079669" stroke-width="1.46789" stroke-miterlimit="10" stroke-linecap="round" stroke-linejoin="round"/>
<path d="M14.0469 1.9845H19.2786C20.9536 1.9845 21.3676 2.39852 21.3676 4.0546V7.92193C21.3676 9.57802 20.9536 9.99204 19.2786 9.99204H14.0469C12.372 9.99204 11.958 9.57802 11.958 7.92193V4.0546C11.958 2.39852 12.372 1.9845 14.0469 1.9845Z" stroke="#079669" stroke-width="1.46789" stroke-linecap="round" stroke-linejoin="round"/>
<path d="M2.54785 16.1556H11.9574" stroke="#079669" stroke-width="1.46789" stroke-miterlimit="10" stroke-linecap="round" stroke-linejoin="round"/>
<path d="M4.63678 12.8057H9.86849C11.5434 12.8057 11.9574 13.2197 11.9574 14.8758V18.7431C11.9574 20.3992 11.5434 20.8132 9.86849 20.8132H4.63678C2.96187 20.8132 2.54785 20.3992 2.54785 18.7431V14.8758C2.54785 13.2197 2.96187 12.8057 4.63678 12.8057Z" stroke="#079669" stroke-width="1.46789" stroke-linecap="round" stroke-linejoin="round"/>
<path d="M21.367 14.2169C21.367 17.8584 18.4218 20.8036 14.7803 20.8036L15.7683 19.1569" stroke="#079669" stroke-width="1.46789" stroke-linecap="round" stroke-linejoin="round"/>
<path d="M2.54785 8.57095C2.54785 4.92945 5.49305 1.98425 9.13455 1.98425L8.14656 3.63093" stroke="#079669" stroke-width="1.46789" stroke-linecap="round" stroke-linejoin="round"/>
</svg>
