<svg width="131" height="129" viewBox="0 0 131 129" fill="none" xmlns="http://www.w3.org/2000/svg">
<g opacity="0.219273">
<path d="M81.8576 3.81815C81.8576 5.92695 80.1423 7.63656 78.0267 7.63656C75.9109 7.63656 74.1958 5.92695 74.1958 3.81815C74.1958 1.70948 75.9109 0 78.0267 0C80.1423 0 81.8576 1.70948 81.8576 3.81815Z" fill="#41AE80"/>
</g>
<g opacity="0.529033">
<path d="M51.7067 12.8255L49.4317 14.1347C49.0198 14.3717 48.4931 14.231 48.2553 13.8205L44.1473 6.72852C43.9094 6.31807 44.0506 5.79316 44.4624 5.55622L46.7376 4.24693C47.1494 4.00999 47.676 4.1506 47.9139 4.56105L52.0219 11.6531C52.2597 12.0636 52.1185 12.5884 51.7067 12.8255Z" fill="#22C55E"/>
</g>
<g opacity="0.529033">
<path d="M13.3513 28.2366L13.863 28.4096C14.4433 28.6058 15.0833 28.5047 15.5744 28.1394L16.0075 27.8173C17.2442 26.8974 19.0025 27.7903 18.9828 29.3282L18.9759 29.8668C18.968 30.4775 19.2621 31.053 19.7624 31.4056L20.2037 31.7166C21.4636 32.6047 21.1548 34.5471 19.6813 35.0037L19.1652 35.1636C18.58 35.3449 18.122 35.8016 17.9402 36.3848L17.7797 36.8992C17.3217 38.3679 15.3727 38.6755 14.4817 37.4198L14.1695 36.9801C13.8157 36.4814 13.2384 36.1882 12.6258 36.1961L12.0853 36.2028C10.5424 36.2225 9.6466 34.4702 10.5695 33.2375L10.8928 32.8057C11.2593 32.3164 11.3606 31.6785 11.1638 31.1L10.9902 30.59C10.4947 29.1333 11.8899 27.7427 13.3513 28.2366Z" fill="#00C3E2"/>
</g>
<g opacity="0.529033">
<path d="M9.71869 55.2771L10.2933 57.8322C10.3973 58.2947 10.1055 58.7538 9.64137 58.8574L1.62429 60.6487C1.16028 60.7522 0.699774 60.4614 0.595598 59.9989L0.0210048 57.4437C-0.082919 56.9812 0.208896 56.5223 0.672914 56.4187L8.69012 54.6274C9.15413 54.5238 9.61464 54.8147 9.71869 55.2771Z" fill="#00C3E2"/>
</g>
<g opacity="0.529033">
<path d="M17.8583 87.9666C17.8583 90.0753 16.1432 91.7847 14.0275 91.7847C11.9118 91.7847 10.1968 90.0753 10.1968 87.9666C10.1968 85.8579 11.9118 84.1484 14.0275 84.1484C16.1432 84.1484 17.8583 85.8579 17.8583 87.9666Z" fill="#F78E1E"/>
</g>
<g opacity="0.529033">
<path d="M13.3513 106.767L13.863 106.94C14.4433 107.136 15.0833 107.035 15.5744 106.67L16.0075 106.347C17.2442 105.428 19.0025 106.321 18.9828 107.859L18.9759 108.397C18.968 109.008 19.2621 109.583 19.7624 109.936L20.2037 110.247C21.4636 111.135 21.1548 113.077 19.6813 113.534L19.1652 113.694C18.58 113.875 18.122 114.332 17.9402 114.915L17.7797 115.429C17.3217 116.898 15.3727 117.206 14.4817 115.95L14.1695 115.51C13.8157 115.012 13.2384 114.718 12.6258 114.726L12.0853 114.733C10.5424 114.753 9.6466 113.001 10.5695 111.768L10.8928 111.336C11.2593 110.847 11.3606 110.209 11.1638 109.63L10.9902 109.12C10.4947 107.664 11.8899 106.273 13.3513 106.767Z" fill="#F78E1E"/>
</g>
<g opacity="0.529033">
<path d="M111.958 24.598C110.797 23.0899 111.156 20.8435 112.754 19.6215C114.352 18.3996 116.622 18.6349 117.783 20.1429C117.785 20.1458 117.787 20.1487 117.79 20.1514" stroke="#FC0611" stroke-width="2.5" stroke-linecap="round" stroke-linejoin="round"/>
</g>
<g opacity="0.529033">
<path d="M122.289 45.4007L122.8 45.5737C123.381 45.7698 124.021 45.6688 124.512 45.3035L124.945 44.9813C126.182 44.0615 127.94 44.9543 127.92 46.4923L127.913 47.0308C127.906 47.6416 128.2 48.217 128.7 48.5697L129.141 48.8807C130.401 49.7688 130.092 51.7112 128.619 52.1678L128.103 52.3277C127.517 52.5089 127.059 52.9657 126.878 53.5489L126.717 54.0633C126.259 55.532 124.31 55.8396 123.419 54.5838L123.107 54.1441C122.753 53.6455 122.176 53.3522 121.563 53.3601L121.023 53.367C119.48 53.3865 118.584 51.6342 119.507 50.4016L119.83 49.9699C120.197 49.4804 120.298 48.8425 120.101 48.2641L119.928 47.754C119.432 46.2974 120.827 44.9068 122.289 45.4007Z" fill="#F78E1E"/>
</g>
<g opacity="0.529033">
<path d="M125.867 90.6504C128.471 90.9923 130.317 93.5299 129.955 96.2717C129.592 99.0137 127.151 100.989 124.546 100.647C124.541 100.646 124.536 100.645 124.531 100.645" stroke="#00C3E2" stroke-width="1.875" stroke-linecap="round" stroke-linejoin="round"/>
</g>
<g opacity="0.529033">
<path d="M117.66 122.863L115.385 124.172C114.973 124.409 114.446 124.268 114.208 123.858L110.1 116.766C109.863 116.355 110.004 115.83 110.415 115.593L112.691 114.284C113.102 114.047 113.629 114.188 113.867 114.598L117.975 121.69C118.213 122.101 118.072 122.626 117.66 122.863Z" fill="#FC0611"/>
</g>
<g opacity="0.529033">
<path d="M43.0975 127C41.4981 124.922 41.9933 121.827 44.1946 120.144C46.396 118.46 49.5235 118.784 51.1229 120.862L51.132 120.874" stroke="#41AE80" stroke-width="2.5" stroke-linecap="round" stroke-linejoin="round"/>
</g>
<g opacity="0.2">
<path d="M128.834 63.5318C128.834 97.0397 101.581 124.203 67.9621 124.203C34.3437 124.203 7.09033 97.0397 7.09033 63.5318C7.09033 30.0238 34.3437 2.86035 67.9621 2.86035C101.581 2.86035 128.834 30.0238 128.834 63.5318Z" fill="#4ADE80"/>
</g>
<path d="M110.932 63.5318C110.932 87.186 91.6937 106.362 67.9613 106.362C44.2292 106.362 24.9902 87.186 24.9902 63.5318C24.9902 39.8776 44.2292 20.7021 67.9613 20.7021C91.6937 20.7021 110.932 39.8776 110.932 63.5318Z" fill="#22C55E"/>
<path d="M48.9922 63.6037L61.5895 76.1597L86.9302 50.9023" stroke="white" stroke-width="6.17242" stroke-linecap="round" stroke-linejoin="round"/>
</svg>
