<svg width="313" height="376" viewBox="0 0 313 376" fill="none" xmlns="http://www.w3.org/2000/svg">
<g clip-path="url(#clip0_659_7471)">
<path d="M81.1233 219.393H74.4839C73.4736 218.528 72.3189 217.662 70.8755 216.941C57.1638 209.012 34.7922 209.156 21.0806 217.086C19.7816 217.807 18.6269 218.672 17.6166 219.393H10.6885V232.368H10.8329C11.2659 237.269 14.5855 242.026 20.9362 245.63C34.6478 253.559 57.0196 253.415 70.7312 245.487C77.0819 241.882 80.5459 237.125 80.979 232.222H81.1233V219.393Z" fill="#077753"/>
<path d="M46.2016 240.022C65.6517 239.908 81.3658 230.716 81.3002 219.489C81.2345 208.263 65.4139 199.254 45.9638 199.368C26.5139 199.482 10.7997 208.674 10.8654 219.901C10.9311 231.127 26.7517 240.136 46.2016 240.022Z" fill="#F1F9F6"/>
<path d="M46.1695 236.128C61.9526 236.037 74.7044 228.604 74.6513 219.528C74.5982 210.451 61.7603 203.167 45.9771 203.26C30.1939 203.352 17.4422 210.784 17.4953 219.861C17.5483 228.937 30.3862 236.221 46.1695 236.128Z" fill="#88C8B0"/>
<path d="M81.1233 204.972H74.4839C73.4736 204.107 72.3189 203.242 70.8755 202.521C57.1638 194.593 34.7922 194.737 21.0806 202.665C19.7816 203.386 18.6269 204.251 17.6166 204.972H10.6885V217.947H10.8329C11.2659 222.848 14.5855 227.606 20.9362 231.209C34.6478 239.139 57.0196 238.994 70.7312 231.065C77.0819 227.461 80.5459 222.704 80.979 217.803H81.1233V204.972Z" fill="#077753"/>
<path d="M46.2016 225.601C65.6517 225.488 81.3658 216.295 81.3002 205.069C81.2345 193.842 65.4139 184.834 45.9638 184.947C26.5139 185.061 10.7997 194.254 10.8654 205.48C10.9311 216.706 26.7517 225.715 46.2016 225.601Z" fill="#F1F9F6"/>
<path d="M46.1695 221.708C61.9526 221.616 74.7044 214.183 74.6513 205.107C74.5982 196.03 61.7603 188.746 45.9771 188.839C30.1939 188.93 17.4422 196.364 17.4953 205.441C17.5483 214.517 30.3862 221.8 46.1695 221.708Z" fill="#88C8B0"/>
<path d="M81.1233 190.595H74.4839C73.4736 189.731 72.3189 188.866 70.8755 188.145C57.1638 180.215 34.7922 180.359 21.0806 188.289C19.7816 189.01 18.6269 189.875 17.6166 190.595H10.6885V203.57H10.8329C11.2659 208.471 14.5855 213.228 20.9362 216.833C34.6478 224.762 57.0196 224.618 70.7312 216.689C77.0819 213.085 80.5459 208.327 80.979 203.426H81.1233V190.595Z" fill="#077753"/>
<path d="M46.2016 211.207C65.6517 211.093 81.3658 201.899 81.3002 190.673C81.2345 179.448 65.4139 170.438 45.9638 170.552C26.5139 170.666 10.7997 179.858 10.8654 191.084C10.9311 202.311 26.7517 211.321 46.2016 211.207Z" fill="#F1F9F6"/>
<path d="M46.1695 207.313C61.9526 207.221 74.7044 199.789 74.6513 190.712C74.5982 181.636 61.7603 174.352 45.9771 174.443C30.1939 174.536 17.4422 181.969 17.4953 191.045C17.5483 200.122 30.3862 207.406 46.1695 207.313Z" fill="#88C8B0"/>
<path d="M81.1233 176.032H74.4839C73.4736 175.167 72.3189 174.302 70.8755 173.581C57.1638 165.651 34.7922 165.797 21.0806 173.725C19.7816 174.446 18.6269 175.311 17.6166 176.032H10.6885V189.007H10.8329C11.2659 193.908 14.5855 198.666 20.9362 202.269C34.6478 210.199 57.0196 210.054 70.7312 202.126C77.0819 198.521 80.5459 193.764 80.979 188.863H81.1233V176.032Z" fill="#077753"/>
<path d="M46.2016 196.793C65.6517 196.679 81.3658 187.487 81.3002 176.26C81.2345 165.034 65.4139 156.025 45.9638 156.139C26.5139 156.253 10.7997 165.445 10.8654 176.672C10.9311 187.898 26.7517 196.907 46.2016 196.793Z" fill="#F1F9F6"/>
<path d="M46.1695 192.901C61.9526 192.808 74.7044 185.375 74.6513 176.299C74.5982 167.222 61.7603 159.938 45.9771 160.031C30.1939 160.122 17.4422 167.555 17.4953 176.633C17.5483 185.709 30.3862 192.992 46.1695 192.901Z" fill="#079669"/>
<path d="M-0.00878906 257.907L202.492 374.679L404.992 257.907L202.492 141.134L-0.00878906 257.907Z" fill="#F1F9F6"/>
<path d="M-0.00878906 268.722V257.91L202.492 374.684V385.64L-0.00878906 268.722Z" fill="#88C8B0"/>
<path d="M405.122 257.91V268.722L202.622 385.496V374.538L405.122 257.91Z" fill="#077753"/>
<path d="M18.3076 247.532L202.477 353.636L386.647 247.532L202.477 141.283L18.3076 247.532Z" fill="#F1F9F6"/>
<path d="M18.3076 257.334V247.387L202.477 353.491V363.438L18.3076 257.334Z" fill="#88C8B0"/>
<path d="M386.675 247.522V257.469L202.505 363.575V353.627L386.675 247.522Z" fill="#077753"/>
<path d="M35.0723 236.717L202.499 333.163L369.926 236.717L202.499 140.127L35.0723 236.717Z" fill="#F1F9F6"/>
<path d="M35.0723 245.659V236.72L202.499 333.166V342.105L35.0723 245.659Z" fill="#88C8B0"/>
<path d="M369.932 236.72V245.659L202.505 342.249V333.31L369.932 236.72Z" fill="#077753"/>
<path d="M129.325 261.517L149.821 273.338L170.316 261.517L149.821 249.695L129.325 261.517Z" fill="#F1F9F6"/>
<path d="M129.325 264.539V261.511L149.821 273.332V276.36L129.325 264.539Z" fill="#88C8B0"/>
<path d="M170.16 261.511V264.539L149.664 276.36V273.332L170.16 261.511Z" fill="#077753"/>
<path d="M170.179 285.152L190.675 296.972L211.169 285.152L190.675 273.329L170.179 285.152Z" fill="#F1F9F6"/>
<path d="M170.179 288.187V285.161L190.675 296.981V300.009L170.179 288.187Z" fill="#88C8B0"/>
<path d="M211.013 285.161V288.187L190.519 300.009V296.981L211.013 285.161Z" fill="#077753"/>
<path d="M88.4697 238.015L108.965 249.836L129.461 238.015L108.965 226.193L88.4697 238.015Z" fill="#F1F9F6"/>
<path d="M88.4697 241.047V238.02L108.965 249.84V252.868L88.4697 241.047Z" fill="#88C8B0"/>
<path d="M129.45 238.02V241.047L108.955 252.868V249.84L129.45 238.02Z" fill="#077753"/>
<path d="M132.929 111.864L230.065 55.7847L327.202 111.864L230.065 167.944L132.929 111.864Z" fill="#F1F9F6"/>
<path d="M132.929 111.868V223.883L230.065 279.963V167.947L132.929 111.868Z" fill="#88C8B0"/>
<path d="M327.337 111.868V223.883L230.2 279.963V167.947L327.337 111.868Z" fill="#077753"/>
<path d="M203.067 208.753C203.067 210.483 201.912 212.068 199.748 213.366C195.418 215.961 188.202 215.961 183.727 213.366C181.562 212.068 180.406 210.483 180.406 208.753C180.406 207.022 181.562 205.436 183.727 204.14C188.056 201.544 195.274 201.544 199.748 204.14C201.912 205.436 203.067 207.022 203.067 208.753Z" fill="#F1F9F6"/>
<path d="M203.067 208.758V282.281C203.067 284.011 201.912 285.597 199.748 286.895C195.418 289.489 188.202 289.489 183.727 286.895C181.562 285.597 180.406 284.011 180.406 282.281V208.758C180.406 210.487 181.562 212.073 183.727 213.371C188.056 215.965 195.274 215.965 199.748 213.371C201.912 212.073 203.067 210.487 203.067 208.758Z" fill="#077753"/>
<path d="M161.07 187.117C161.07 188.846 159.915 190.432 157.749 191.73C153.42 194.324 146.203 194.324 141.729 191.73C139.564 190.432 138.409 188.846 138.409 187.117C138.409 185.386 139.564 183.8 141.729 182.504C146.059 179.908 153.275 179.908 157.749 182.504C159.915 183.8 161.07 185.531 161.07 187.117Z" fill="#F1F9F6"/>
<path d="M161.07 187.118V260.641C161.07 262.372 159.915 263.957 157.749 265.254C153.42 267.85 146.203 267.85 141.729 265.254C139.564 263.957 138.409 262.372 138.409 260.641V187.118C138.409 188.848 139.564 190.434 141.729 191.732C146.059 194.326 153.275 194.326 157.749 191.732C159.915 190.577 161.07 188.848 161.07 187.118Z" fill="#077753"/>
<path d="M120.216 162.323C120.216 164.052 119.061 165.638 116.896 166.936C112.566 169.53 105.35 169.53 100.875 166.936C98.7103 165.638 97.5557 164.052 97.5557 162.323C97.5557 160.592 98.7103 159.006 100.875 157.709C105.205 155.113 112.422 155.113 116.896 157.709C119.061 159.006 120.216 160.592 120.216 162.323Z" fill="#F1F9F6"/>
<path d="M120.216 162.342V235.866C120.216 237.595 119.061 239.181 116.896 240.479C112.566 243.073 105.35 243.073 100.875 240.479C98.7103 239.181 97.5557 237.595 97.5557 235.866V162.342C97.5557 164.072 98.7103 165.657 100.875 166.955C105.205 169.55 112.422 169.55 116.896 166.955C119.061 165.657 120.216 163.928 120.216 162.342Z" fill="#077753"/>
<path d="M35.0723 136.815L202.499 233.26L369.926 136.815L202.499 40.3687L35.0723 136.815Z" fill="#F1F9F6"/>
<path d="M35.0723 145.889V136.951L202.499 233.397V242.335L35.0723 145.889Z" fill="#88C8B0"/>
<path d="M369.932 136.801V145.739L202.505 242.185V233.246L369.932 136.801Z" fill="#077753"/>
<path d="M44.0107 123.829V135.795L202.488 227.196V215.229L44.0107 123.829Z" fill="#F1F9F6"/>
<path d="M360.982 123.829V135.795L202.505 227.196V215.229L360.982 123.829Z" fill="#077753"/>
<path d="M202.505 227.197L218.958 223.882L369.932 136.806L360.982 131.616V135.653L202.505 227.197Z" fill="#077753"/>
<path d="M35.0723 118.935L202.499 215.237V201.109L118.786 101.78L35.0723 105.384V118.935Z" fill="#88C8B0"/>
<path d="M118.773 101.778L286.2 5.33273L369.913 104.662L202.487 201.108L118.773 101.778Z" fill="#077753"/>
<path d="M35.0723 105.529L118.786 101.925L286.213 5.4791L202.499 9.0832L35.0723 105.529Z" fill="#F1F9F6"/>
<path d="M369.932 118.787V104.659L202.505 201.105V215.234L369.932 118.787Z" fill="#077753"/>
<path d="M193.679 199.811V203.704L39.8203 115.042V111.006L44.7277 110.862V112.303L190.938 196.495L193.679 199.811Z" fill="#F1F9F6"/>
<path d="M190.809 196.501L44.7441 112.308V110.867L117.344 107.839L190.809 196.501Z" fill="#F1F9F6"/>
<path d="M190.809 196.199L44.7441 112.008V110.566L117.344 107.539L190.809 196.199Z" fill="#88C8B0"/>
<path opacity="0.41" d="M303.678 384.331H287.225L250.275 363.86L306.999 328.106L303.678 384.331Z" fill="#808080"/>
<path d="M330.086 346.699C336.869 350.591 335.86 357.511 328.064 362.124C320.127 366.737 308.292 367.314 301.508 363.422C294.724 359.53 295.734 352.61 303.528 347.997C311.323 343.24 323.302 342.806 330.086 346.699ZM321.57 360.251L323.014 360.972L325.755 359.386L324.313 358.665L325.611 357.944V355.06L323.014 353.475L320.704 353.042L311.755 355.06L310.889 354.916L310.456 354.629V353.908L313.776 351.889L317.095 350.88L315.22 348.718L311.467 349.726L310.311 350.303L308.868 349.438L306.126 351.024L307.424 351.745L306.126 352.466V355.348L308.724 356.935L311.033 357.367L319.982 355.348L320.704 355.494L321.136 355.781V356.502L317.817 358.521L314.498 359.53L316.374 361.692L320.126 360.682L321.57 360.251Z" fill="#278704"/>
<path d="M327.772 328.824L360.68 347.854L303.523 381.012L270.616 361.982L327.772 328.824ZM308.863 374.523L349.133 351.17C345.814 349.296 345.524 346.269 348.411 344.537C348.556 344.394 348.7 344.394 348.845 344.394L333.834 335.744C333.69 335.888 333.546 335.888 333.4 336.032C330.369 337.762 325.318 337.618 321.854 335.744L281.585 359.098C284.904 360.973 285.194 364.001 282.163 365.73L297.029 374.38C300.348 372.362 305.544 372.65 308.863 374.523Z" fill="white"/>
<path d="M315.202 349.011L316.933 351.03L313.614 352.039L310.295 353.912V354.779L310.727 355.066L311.593 355.21L320.542 353.048L322.851 353.481L325.594 355.066V357.95L324.295 358.671L325.594 359.536L322.851 361.121L321.552 360.257L320.398 360.978L316.645 361.986L314.769 359.967L318.089 358.959L321.552 356.94V356.219L320.976 355.931L320.254 355.787L311.305 357.806L308.851 357.373L306.254 355.931V353.048L307.552 352.183L306.254 351.462L308.851 349.876L310.295 350.597L311.449 350.02L315.202 349.011Z" fill="#8ECC37"/>
<path d="M349.16 351.179L309.036 374.532C305.717 372.659 300.52 372.37 297.489 374.245L282.624 365.594C285.653 363.864 285.365 360.837 282.046 358.963L322.314 335.608C325.635 337.483 330.83 337.627 333.861 335.897C334.005 335.752 334.15 335.752 334.295 335.608L349.304 344.257C349.16 344.257 349.016 344.403 348.872 344.403C345.553 346.276 345.841 349.304 349.16 351.179ZM301.386 363.287C308.17 367.179 320.005 366.604 327.944 361.991C335.882 357.377 336.748 350.458 329.964 346.564C323.18 342.671 311.345 343.249 303.408 347.862C295.612 352.475 294.746 359.395 301.386 363.287Z" fill="#8ECC37"/>
<path d="M303.669 381.006V384.321L270.616 365.291L270.76 361.976L303.669 381.006Z" fill="#045137"/>
<path d="M360.657 347.851V351.167L303.645 384.325V381.009L360.657 347.851Z" fill="#077753"/>
<path d="M330.086 341.372C336.869 345.264 336.004 352.184 328.064 356.797C320.127 361.411 308.292 361.986 301.508 358.094C294.724 354.202 295.734 347.282 303.528 342.668C311.323 337.911 323.302 337.478 330.086 341.372ZM321.57 354.922L322.869 355.643L325.611 354.058L324.167 353.337L325.467 352.616V349.732L322.869 348.146L320.56 347.715L311.611 349.732L310.889 349.588L310.456 349.301V348.58L313.776 346.561L317.095 345.552L315.22 343.389L311.467 344.398L310.311 344.975L308.868 344.11L306.126 345.696L307.57 346.417L306.271 347.138V350.021L308.868 351.607L311.177 352.039L320.126 350.021L320.848 350.165L321.282 350.453V351.174L317.961 353.193L314.642 354.202L316.518 356.364L320.271 355.356L321.57 354.922Z" fill="#278704"/>
<path d="M327.772 323.501L360.68 342.529L303.523 375.688L270.616 356.658L327.772 323.501ZM308.863 369.2L349.133 345.846C345.814 343.971 345.524 340.943 348.411 339.214C348.556 339.07 348.7 339.07 348.845 339.07L333.834 330.421C333.69 330.564 333.546 330.564 333.4 330.708C330.369 332.438 325.318 332.294 321.854 330.421L281.585 353.774C284.904 355.649 285.194 358.675 282.163 360.406L297.029 369.056C300.493 367.037 305.544 367.326 308.863 369.2Z" fill="white"/>
<path d="M315.202 343.68L316.933 345.699L313.614 346.708L310.295 348.581V349.446L310.873 349.735L311.593 349.879L320.542 347.716L322.851 348.149L325.594 349.735V352.619L324.295 353.34L325.594 354.205L322.851 355.79L321.552 354.925L320.398 355.646L316.645 356.655L314.769 354.636L318.089 353.627L321.552 351.609V350.888L320.976 350.6L320.254 350.456L311.305 352.473L308.995 352.042L306.254 350.6V347.716L307.552 346.852L306.254 346.131L308.995 344.545L310.295 345.266L311.449 344.689L315.202 343.68Z" fill="#8ECC37"/>
<path d="M349.132 345.835L309.006 369.191C305.687 367.316 300.49 367.028 297.459 368.901L282.593 360.252C285.624 358.522 285.336 355.495 282.016 353.62L322.285 330.266C325.605 332.14 330.801 332.283 333.832 330.554C333.976 330.41 334.12 330.41 334.264 330.266L349.276 338.916C349.132 338.916 348.986 339.059 348.842 339.059C345.523 340.934 345.811 343.962 349.132 345.835ZM301.356 357.945C308.14 361.838 319.976 361.261 327.914 356.648C335.852 352.034 336.719 345.114 329.935 341.222C323.151 337.33 311.315 337.907 303.377 342.52C295.583 347.133 294.718 354.053 301.356 357.945Z" fill="#8ECC37"/>
<path d="M303.67 375.682V378.997L270.762 359.967V356.652L303.67 375.682Z" fill="#045137"/>
<path d="M360.83 342.528L360.686 345.843L303.675 379V375.685L360.83 342.528Z" fill="#077753"/>
<path d="M330.086 336.047C336.869 339.939 336.004 346.859 328.064 351.472C320.127 356.086 308.292 356.663 301.508 352.77C294.724 348.878 295.734 341.958 303.528 337.345C311.323 332.588 323.302 332.155 330.086 336.047ZM321.57 349.599L322.869 350.32L325.611 348.734L324.167 348.013L325.467 347.292V344.409L322.869 342.823L320.56 342.391L311.611 344.409L310.889 344.265L310.456 343.977V343.256L313.776 341.237L317.095 340.228L315.22 338.066L311.467 339.074L310.311 339.651L308.868 338.787L306.126 340.372L307.57 341.093L306.271 341.814V344.698L308.868 346.284L311.177 346.715L320.126 344.698L320.848 344.842L321.282 345.129V345.85L317.961 347.869L314.642 348.878L316.518 351.041L320.271 350.03L321.57 349.599Z" fill="#278704"/>
<path d="M327.772 318.165L360.68 337.195L303.523 370.352L270.616 351.322L327.772 318.165ZM308.863 363.866L349.133 340.51C345.814 338.637 345.524 335.609 348.411 333.88C348.556 333.734 348.7 333.734 348.845 333.734L333.834 325.085C333.69 325.229 333.546 325.229 333.4 325.373C330.369 327.104 325.318 326.958 321.854 325.085L281.585 348.44C284.904 350.314 285.194 353.341 282.163 355.071L297.029 363.72C300.493 361.703 305.544 361.991 308.863 363.866Z" fill="white"/>
<path d="M315.202 338.349L316.933 340.366L313.614 341.377L310.295 343.25V344.115L310.873 344.404L311.593 344.548L320.542 342.385L322.851 342.818L325.594 344.404V347.286L324.295 348.007L325.594 348.873L322.851 350.459L321.552 349.593L320.398 350.314L316.645 351.324L314.769 349.305L318.089 348.296L321.552 346.278V345.557L320.976 345.269L320.254 345.125L311.305 347.142L308.995 346.711L306.254 345.269V342.385L307.552 341.52L306.254 340.799L308.995 339.214L310.295 339.935L311.449 339.358L315.202 338.349Z" fill="#8ECC37"/>
<path d="M349.16 340.515L309.036 363.87C305.717 361.995 300.52 361.707 297.489 363.581L282.624 354.931C285.653 353.202 285.365 350.174 282.046 348.299L322.314 324.945C325.635 326.819 330.83 326.964 333.861 325.233C334.005 325.089 334.15 325.089 334.295 324.945L349.304 333.595C349.16 333.595 349.016 333.739 348.872 333.739C345.553 335.614 345.841 338.641 349.16 340.515ZM301.386 352.625C308.17 356.517 320.005 355.94 327.944 351.327C335.882 346.714 336.748 339.794 329.964 335.902C323.18 332.009 311.345 332.586 303.408 337.199C295.612 341.813 294.746 348.733 301.386 352.625Z" fill="#8ECC37"/>
<path d="M303.67 370.357V373.674L270.762 354.644V351.327L303.67 370.357Z" fill="#045137"/>
<path d="M360.801 337.184L360.657 340.501L303.645 373.659V370.343L360.801 337.184Z" fill="#077753"/>
<path d="M330.086 330.72C336.869 334.613 335.86 341.532 328.064 346.146C320.127 350.759 308.292 351.336 301.508 347.444C294.724 343.551 295.734 336.631 303.528 332.018C311.323 327.26 323.302 326.684 330.086 330.72ZM321.57 344.272L323.014 344.992L325.755 343.406L324.313 342.686L325.611 341.966V339.082L323.014 337.496L320.704 337.063L311.755 339.082L310.889 338.938L310.456 338.649V337.928L313.776 335.911L317.095 334.9L315.22 332.739L311.467 333.748L310.311 334.325L308.868 333.458L306.126 335.046L307.424 335.765L306.126 336.486V339.37L308.724 340.955L311.033 341.389L319.982 339.37L320.704 339.514L321.136 339.803V340.524L317.817 342.541L314.498 343.551L316.374 345.712L320.126 344.704L321.57 344.272Z" fill="#278704"/>
<path d="M327.772 312.829L360.68 331.859L303.523 365.018L270.616 345.988L327.772 312.829ZM308.863 358.53L349.133 335.176C345.814 333.301 345.524 330.274 348.411 328.544C348.556 328.4 348.7 328.4 348.845 328.4L333.834 319.749C333.69 319.895 333.546 319.895 333.4 320.039C330.369 321.768 325.318 321.624 321.854 319.749L281.585 343.105C284.904 344.978 285.194 348.006 282.163 349.737L297.029 358.386C300.348 356.367 305.544 356.657 308.863 358.53Z" fill="white"/>
<path d="M315.202 333.025L316.933 335.043L313.614 336.053L310.295 337.926V338.791L310.727 339.079L311.593 339.224L320.542 337.062L322.851 337.493L325.594 339.079V341.963L324.295 342.683L325.594 343.548L322.851 345.134L321.552 344.269L320.398 344.99L316.645 345.999L314.769 343.981L318.089 342.973L321.552 340.954V340.233L320.976 339.945L320.254 339.8L311.305 341.819L308.851 341.386L306.254 339.945V337.062L307.552 336.197L306.254 335.476L308.851 333.89L310.295 334.611L311.449 334.034L315.202 333.025Z" fill="#8ECC37"/>
<path d="M349.132 335.166L309.006 358.519C305.687 356.646 300.49 356.358 297.459 358.232L282.593 349.582C285.624 347.851 285.336 344.825 282.016 342.95L322.285 319.596C325.605 321.47 330.801 321.614 333.832 319.884C333.976 319.74 334.12 319.74 334.264 319.596L349.276 328.246C349.132 328.246 348.986 328.39 348.842 328.39C345.523 330.265 345.811 333.291 349.132 335.166ZM301.356 347.276C308.14 351.168 319.976 350.591 327.914 345.978C335.852 341.365 336.719 334.589 329.935 330.552C323.151 326.66 311.315 327.237 303.377 331.85C295.583 336.464 294.718 343.383 301.356 347.276Z" fill="#8ECC37"/>
<path d="M303.669 365.023V368.338L270.616 349.308L270.76 345.993L303.669 365.023Z" fill="#045137"/>
<path d="M360.686 331.861V335.178L303.675 368.335V365.018L360.686 331.861Z" fill="#077753"/>
<path d="M330.086 325.374C336.869 329.266 336.004 336.186 328.064 340.8C320.127 345.413 308.292 345.99 301.508 342.098C294.724 338.205 295.734 331.285 303.528 326.672C311.323 321.914 323.302 321.338 330.086 325.374ZM321.57 338.926L322.869 339.647L325.611 338.061L324.167 337.34L325.467 336.619V333.736L322.869 332.15L320.56 331.717L311.611 333.736L310.889 333.592L310.456 333.303V332.582L313.776 330.564L317.095 329.554L315.22 327.393L311.467 328.402L310.311 328.979L308.868 328.258L306.126 329.844L307.57 330.564L306.271 331.285V334.167L308.868 335.755L311.177 336.186L320.126 334.167L320.848 334.313L321.282 334.601V335.322L317.961 337.34L314.642 338.349L316.518 340.512L320.271 339.502L321.57 338.926Z" fill="#278704"/>
<path d="M327.772 307.495L360.68 326.525L303.523 359.683L270.616 340.653L327.772 307.495ZM308.863 353.194L349.133 329.841C345.814 327.967 345.524 324.94 348.411 323.208C348.556 323.065 348.7 323.065 348.845 323.065L333.834 314.415C333.69 314.559 333.546 314.559 333.4 314.703C330.369 316.434 325.318 316.289 321.854 314.415L281.585 337.769C284.904 339.644 285.194 342.672 282.163 344.401L297.029 353.051C300.493 351.033 305.544 351.321 308.863 353.194Z" fill="white"/>
<path d="M315.202 327.679L316.933 329.697L313.614 330.707L310.295 332.58V333.445L310.873 333.734L311.593 333.878L320.542 331.715L322.851 332.149L325.594 333.734V336.617L324.295 337.337L325.594 338.202L322.851 339.788L321.552 338.923L320.398 339.644L316.645 340.654L314.769 338.635L318.089 337.627L321.552 335.608V334.887L320.976 334.599L320.254 334.455L311.305 336.473L308.995 336.041L306.254 334.599V331.715L307.552 330.851L306.254 330.13L308.995 328.544L310.295 329.265L311.449 328.688L315.202 327.679Z" fill="#8ECC37"/>
<path d="M349.132 329.834L309.006 353.188C305.687 351.315 300.49 351.026 297.459 352.901L282.593 344.251C285.624 342.52 285.336 339.493 282.016 337.619L322.285 314.264C325.605 316.139 330.801 316.283 333.832 314.553C333.976 314.409 334.12 314.409 334.264 314.264L349.276 322.915C349.132 322.915 348.986 323.059 348.842 323.059C345.523 324.932 345.811 327.96 349.132 329.834ZM301.356 341.945C308.14 345.837 319.976 345.26 327.914 340.647C335.852 336.033 336.719 329.114 329.935 325.221C323.151 321.329 311.315 321.904 303.377 326.518C295.583 331.131 294.718 338.052 301.356 341.945Z" fill="#8ECC37"/>
<path d="M303.67 359.677V362.992L270.762 343.962V340.647L303.67 359.677Z" fill="#045137"/>
<path d="M360.83 326.507L360.686 329.824L303.675 362.981V359.666L360.83 326.507Z" fill="#077753"/>
<path d="M330.086 320.039C336.869 323.932 336.004 330.852 328.064 335.465C320.127 340.079 308.292 340.654 301.508 336.762C294.724 332.87 295.734 325.95 303.528 321.336C311.323 316.579 323.302 316.002 330.086 320.039ZM321.57 333.59L322.869 334.311L325.611 332.726L324.167 332.005L325.467 331.284V328.4L322.869 326.814L320.56 326.383L311.611 328.4L310.889 328.256L310.456 327.969V327.248L313.776 325.229L317.095 324.22L315.22 322.057L311.467 323.066L310.311 323.643L308.868 322.778L306.126 324.364L307.57 325.085L306.271 325.806V328.689L308.868 330.275L311.177 330.707L320.126 328.689L320.848 328.833L321.282 329.121V329.842L317.961 331.861L314.642 332.87L316.518 335.032L320.271 334.024L321.57 333.59Z" fill="#278704"/>
<path d="M327.772 302.172L360.68 321.2L303.523 354.359L270.616 335.329L327.772 302.172ZM308.863 347.871L349.133 324.517C345.814 322.642 345.524 319.614 348.411 317.885C348.556 317.741 348.7 317.741 348.845 317.741L333.834 309.091C333.69 309.235 333.546 309.235 333.4 309.379C330.369 311.109 325.318 310.965 321.854 309.091L281.585 332.445C284.904 334.32 285.194 337.348 282.163 339.077L297.029 347.727C300.493 345.708 305.544 345.853 308.863 347.871Z" fill="white"/>
<path d="M315.202 322.344L316.933 324.362L313.614 325.371L310.295 327.245V328.111L310.873 328.399L311.593 328.543L320.542 326.38L322.851 326.813L325.594 328.399V331.282L324.295 332.003L325.594 332.868L322.851 334.454L321.552 333.589L320.398 334.31L316.645 335.319L314.769 333.3L318.089 332.291L321.552 330.272V329.553L320.976 329.263L320.254 329.12L311.305 331.138L308.995 330.705L306.254 329.263V326.38L307.552 325.515L306.254 324.794L308.995 323.208L310.295 323.929L311.449 323.352L315.202 322.344Z" fill="#8ECC37"/>
<path d="M349.132 324.514L309.006 347.868C305.687 345.994 300.49 345.706 297.459 347.58L282.593 338.931C285.624 337.201 285.336 334.173 282.016 332.298L322.285 308.945C325.605 310.818 330.801 310.962 333.832 309.232C333.976 309.088 334.12 309.088 334.264 308.945L349.276 317.594C349.132 317.594 348.986 317.738 348.842 317.738C345.523 319.613 345.811 322.64 349.132 324.514ZM301.356 336.624C308.14 340.516 319.976 339.939 327.914 335.326C335.852 330.713 336.719 323.793 329.935 319.901C323.151 316.008 311.315 316.585 303.377 321.199C295.583 325.812 294.718 332.732 301.356 336.624Z" fill="#8ECC37"/>
<path d="M303.67 354.356V357.671L270.762 338.643V335.326L303.67 354.356Z" fill="#045137"/>
<path d="M360.83 321.191L360.686 324.506L303.675 357.665V354.348L360.83 321.191Z" fill="#077753"/>
<path d="M330.086 314.707C336.869 318.6 335.86 325.52 328.064 330.133C320.127 334.746 308.292 335.323 301.508 331.431C294.724 327.538 295.734 320.619 303.528 316.005C311.323 311.248 323.302 310.671 330.086 314.707ZM321.57 328.259L323.014 328.98L325.755 327.395L324.313 326.674L325.611 325.953V323.069L323.014 321.483L320.704 321.052L311.755 323.069L310.889 322.925L310.456 322.637V321.917L313.776 319.898L317.095 318.889L315.22 316.726L311.467 317.735L310.311 318.312L308.868 317.447L306.126 319.033L307.424 319.754L306.126 320.475V323.358L308.724 324.944L311.033 325.376L319.982 323.358L320.704 323.502L321.136 323.79V324.511L317.817 326.53L314.498 327.538L316.374 329.701L320.126 328.692L321.57 328.259Z" fill="#278704"/>
<path d="M327.772 296.844L360.68 315.873L303.523 349.031L270.616 330.001L327.772 296.844ZM308.863 342.544L349.133 319.189C345.814 317.315 345.524 314.288 348.411 312.557C348.556 312.413 348.7 312.413 348.845 312.413L333.834 303.763C333.69 303.907 333.546 303.907 333.4 304.051C330.369 305.782 325.318 305.637 321.854 303.763L281.585 327.117C284.904 328.992 285.194 332.02 282.163 333.749L297.029 342.399C300.348 340.381 305.544 340.525 308.863 342.544Z" fill="white"/>
<path d="M315.202 317.027L316.933 319.045L313.614 320.055L310.295 321.928V322.793L310.727 323.083L311.593 323.226L320.542 321.064L322.851 321.497L325.594 323.083V325.965L324.295 326.686L325.594 327.55L322.851 329.138L321.552 328.271L320.398 328.992L316.645 330.002L314.769 327.84L318.089 326.975L321.552 324.956V324.235L320.976 323.947L320.254 323.803L311.305 325.821L308.851 325.389L306.254 323.947V321.064L307.552 320.199L306.254 319.478L308.851 317.892L310.295 318.613L311.449 318.036L315.202 317.027Z" fill="#8ECC37"/>
<path d="M349.132 319.172L309.006 342.526C305.687 340.653 300.49 340.363 297.459 342.238L282.593 333.587C285.624 331.858 285.336 328.83 282.016 326.957L322.285 303.602C325.605 305.476 330.801 305.62 333.832 303.891C333.976 303.745 334.12 303.745 334.264 303.602L349.276 312.252C349.132 312.252 348.986 312.396 348.842 312.396C345.523 314.27 345.811 317.297 349.132 319.172ZM301.356 331.281C308.14 335.173 319.976 334.598 327.914 329.984C335.852 325.371 336.719 318.451 329.935 314.559C323.151 310.665 311.315 311.242 303.377 315.855C295.583 320.469 294.718 327.389 301.356 331.281Z" fill="#8ECC37"/>
<path d="M303.669 349.02V352.337L270.616 333.307L270.76 329.992L303.669 349.02Z" fill="#045137"/>
<path d="M360.686 315.852V319.168L303.675 352.327V349.01L360.686 315.852Z" fill="#077753"/>
<path d="M327.772 291.487L360.68 310.517L303.523 343.674L270.616 324.644L327.772 291.487ZM308.863 337.186L349.133 313.832C345.814 311.957 345.524 308.93 348.411 307.2C348.556 307.056 348.7 307.056 348.845 307.056L333.834 298.407C333.69 298.551 333.546 298.551 333.4 298.694C330.369 300.424 325.318 300.28 321.854 298.407L281.585 321.761C284.904 323.636 285.194 326.663 282.163 328.393L297.029 337.042C300.493 335.025 305.544 335.169 308.863 337.186Z" fill="#045137"/>
<path d="M330.075 309.376C323.291 305.484 311.456 306.059 303.517 310.673C295.579 315.286 294.713 322.206 301.497 326.098C308.281 329.992 320.116 329.415 328.054 324.802C335.849 320.044 336.859 313.269 330.075 309.376ZM316.941 313.7L313.622 314.71L310.301 316.728V317.449L310.735 317.738L311.456 317.882L310.591 317.738L310.157 317.449V316.728L313.476 314.854L316.941 313.7ZM316.653 324.658L320.404 323.648L321.56 322.927L320.404 323.504L316.653 324.658Z" fill="white"/>
<path d="M326.625 311.238C321.429 308.21 312.481 308.642 306.419 312.246C300.357 315.707 299.779 320.896 304.832 323.923C310.026 326.951 318.976 326.519 325.038 322.915C331.1 319.455 331.822 314.265 326.625 311.238Z" fill="#97D6C3"/>
<path d="M349.132 313.822L309.006 337.177C305.687 335.302 300.49 335.014 297.459 336.888L282.593 328.238C285.624 326.509 285.336 323.481 282.016 321.606L322.285 298.252C325.605 300.126 330.801 300.271 333.832 298.54C333.976 298.396 334.12 298.396 334.264 298.252L349.276 306.902C349.132 306.902 348.986 307.046 348.842 307.046C345.523 308.921 345.811 311.948 349.132 313.822ZM301.356 325.932C308.14 329.824 319.976 329.247 327.914 324.634C335.852 320.021 336.719 313.101 329.935 309.208C323.151 305.316 311.315 305.893 303.377 310.506C295.583 315.12 294.718 322.039 301.356 325.932Z" fill="white"/>
<path d="M303.67 343.671V346.986L270.762 327.958V324.641L303.67 343.671Z" fill="#045137"/>
<path d="M360.83 310.517L360.686 313.834L303.675 346.991V343.676L360.83 310.517Z" fill="#077753"/>
</g>
<defs>
<clipPath id="clip0_659_7471">
<rect width="405.145" height="389.681" fill="white" transform="translate(-0.00878906 0.645386)"/>
</clipPath>
</defs>
</svg>
