<svg width="14" height="14" viewBox="0 0 14 14" fill="none" xmlns="http://www.w3.org/2000/svg">
<path d="M11.544 8.70902C10.3424 9.90486 8.62155 10.2724 7.11071 9.79986L4.36322 12.5415C4.16488 12.7457 3.77405 12.8682 3.49405 12.8274L2.22238 12.6524C1.80238 12.594 1.41155 12.1974 1.34738 11.7774L1.17238 10.5057C1.13155 10.2257 1.26572 9.83486 1.45822 9.63652L4.19988 6.89486C3.73322 5.37819 4.09488 3.65736 5.29655 2.46152C7.01738 0.74069 9.81155 0.74069 11.5382 2.46152C13.2649 4.18236 13.2649 6.98819 11.544 8.70902Z" stroke="#99A2B7" stroke-miterlimit="10" stroke-linecap="round" stroke-linejoin="round"/>
<path d="M4.01904 10.2026L5.36071 11.5443" stroke="#99A2B7" stroke-miterlimit="10" stroke-linecap="round" stroke-linejoin="round"/>
<path d="M8.45837 6.4165C8.94162 6.4165 9.33337 6.02475 9.33337 5.5415C9.33337 5.05825 8.94162 4.6665 8.45837 4.6665C7.97512 4.6665 7.58337 5.05825 7.58337 5.5415C7.58337 6.02475 7.97512 6.4165 8.45837 6.4165Z" stroke="#99A2B7" stroke-linecap="round" stroke-linejoin="round"/>
</svg>
