<svg width="21" height="21" viewBox="0 0 21 21" fill="none" xmlns="http://www.w3.org/2000/svg">
<path d="M15.75 9.40625C15.3912 9.40625 15.0938 9.10875 15.0938 8.75V7C15.0938 4.24375 14.315 2.40625 10.5 2.40625C6.685 2.40625 5.90625 4.24375 5.90625 7V8.75C5.90625 9.10875 5.60875 9.40625 5.25 9.40625C4.89125 9.40625 4.59375 9.10875 4.59375 8.75V7C4.59375 4.4625 5.20625 1.09375 10.5 1.09375C15.7937 1.09375 16.4062 4.4625 16.4062 7V8.75C16.4062 9.10875 16.1088 9.40625 15.75 9.40625Z" fill="#079669"/>
<path d="M14.875 19.9062H6.125C2.26625 19.9062 1.09375 18.7337 1.09375 14.875V13.125C1.09375 9.26625 2.26625 8.09375 6.125 8.09375H14.875C18.7337 8.09375 19.9062 9.26625 19.9062 13.125V14.875C19.9062 18.7337 18.7337 19.9062 14.875 19.9062ZM6.125 9.40625C2.9925 9.40625 2.40625 10.0013 2.40625 13.125V14.875C2.40625 17.9987 2.9925 18.5938 6.125 18.5938H14.875C18.0075 18.5938 18.5938 17.9987 18.5938 14.875V13.125C18.5938 10.0013 18.0075 9.40625 14.875 9.40625H6.125Z" fill="#079669"/>
<path d="M7 14.875C6.88625 14.875 6.7725 14.8488 6.6675 14.805C6.55375 14.7613 6.46626 14.7 6.37876 14.6213C6.22126 14.455 6.125 14.2363 6.125 14C6.125 13.8863 6.15124 13.7725 6.19499 13.6675C6.23874 13.5538 6.30001 13.4663 6.37876 13.3788C6.46626 13.3 6.55375 13.2387 6.6675 13.195C6.9825 13.055 7.37624 13.1338 7.62124 13.3788C7.69999 13.4663 7.76126 13.5625 7.80501 13.6675C7.84876 13.7725 7.875 13.8863 7.875 14C7.875 14.2275 7.77874 14.455 7.62124 14.6213C7.45499 14.7788 7.2275 14.875 7 14.875Z" fill="#079669"/>
<path d="M10.5 14.875C10.2725 14.875 10.045 14.7788 9.87876 14.6213C9.72126 14.455 9.625 14.2363 9.625 14C9.625 13.8863 9.64249 13.7725 9.69499 13.6675C9.73874 13.5625 9.80001 13.4663 9.87876 13.3788C10.08 13.1776 10.3863 13.0813 10.6663 13.1425C10.7275 13.1513 10.78 13.1688 10.8325 13.195C10.885 13.2125 10.9375 13.2388 10.99 13.2738C11.0337 13.3001 11.0775 13.3438 11.1212 13.3788C11.2 13.4663 11.2613 13.5625 11.305 13.6675C11.3488 13.7725 11.375 13.8863 11.375 14C11.375 14.2363 11.2787 14.455 11.1212 14.6213C11.0775 14.6563 11.0337 14.6913 10.99 14.7263C10.9375 14.7613 10.885 14.7876 10.8325 14.8051C10.78 14.8313 10.7275 14.8488 10.6663 14.8576C10.6138 14.8663 10.5525 14.875 10.5 14.875Z" fill="#079669"/>
<path d="M14 14.875C13.7638 14.875 13.545 14.7788 13.3788 14.6213C13.3 14.5338 13.2387 14.4376 13.195 14.3326C13.1512 14.2276 13.125 14.1138 13.125 14C13.125 13.7725 13.2213 13.5451 13.3788 13.3788C13.4225 13.3438 13.4663 13.3088 13.51 13.2738C13.5625 13.2388 13.615 13.2125 13.6675 13.195C13.72 13.1688 13.7725 13.1513 13.825 13.1425C14.1137 13.0813 14.4112 13.1776 14.6212 13.3788C14.7787 13.5451 14.875 13.7638 14.875 14C14.875 14.1138 14.8488 14.2276 14.805 14.3326C14.7613 14.4463 14.7 14.5338 14.6212 14.6213C14.455 14.7788 14.2275 14.875 14 14.875Z" fill="#079669"/>
</svg>
