<svg width="16" height="16" viewBox="0 0 16 16" fill="none" xmlns="http://www.w3.org/2000/svg">
<path d="M12 7.16683C11.7267 7.16683 11.5 6.94016 11.5 6.66683V5.3335C11.5 3.2335 10.9067 1.8335 8 1.8335C5.09333 1.8335 4.5 3.2335 4.5 5.3335V6.66683C4.5 6.94016 4.27333 7.16683 4 7.16683C3.72667 7.16683 3.5 6.94016 3.5 6.66683V5.3335C3.5 3.40016 3.96667 0.833496 8 0.833496C12.0333 0.833496 12.5 3.40016 12.5 5.3335V6.66683C12.5 6.94016 12.2733 7.16683 12 7.16683Z" fill="white"/>
<path d="M11.3333 15.1665H4.66665C1.72665 15.1665 0.833313 14.2732 0.833313 11.3332V9.99984C0.833313 7.05984 1.72665 6.1665 4.66665 6.1665H11.3333C14.2733 6.1665 15.1666 7.05984 15.1666 9.99984V11.3332C15.1666 14.2732 14.2733 15.1665 11.3333 15.1665ZM4.66665 7.1665C2.27998 7.1665 1.83331 7.61984 1.83331 9.99984V11.3332C1.83331 13.7132 2.27998 14.1665 4.66665 14.1665H11.3333C13.72 14.1665 14.1666 13.7132 14.1666 11.3332V9.99984C14.1666 7.61984 13.72 7.1665 11.3333 7.1665H4.66665Z" fill="white"/>
<path d="M5.33335 11.3336C5.24669 11.3336 5.16002 11.3136 5.08002 11.2802C4.99335 11.2469 4.92669 11.2002 4.86003 11.1402C4.74003 11.0136 4.66669 10.8469 4.66669 10.6669C4.66669 10.5802 4.68668 10.4936 4.72001 10.4136C4.75334 10.3269 4.80003 10.2602 4.86003 10.1936C4.92669 10.1336 4.99335 10.0869 5.08002 10.0536C5.32002 9.9469 5.62001 10.0069 5.80668 10.1936C5.86668 10.2602 5.91336 10.3336 5.9467 10.4136C5.98003 10.4936 6.00002 10.5802 6.00002 10.6669C6.00002 10.8402 5.92668 11.0136 5.80668 11.1402C5.68001 11.2602 5.50669 11.3336 5.33335 11.3336Z" fill="white"/>
<path d="M7.99998 11.3334C7.82665 11.3334 7.65332 11.2601 7.52665 11.1401C7.40665 11.0134 7.33331 10.8468 7.33331 10.6668C7.33331 10.5801 7.34664 10.4934 7.38664 10.4134C7.41997 10.3334 7.46665 10.2601 7.52665 10.1934C7.67999 10.0401 7.91331 9.96676 8.12665 10.0134C8.17331 10.0201 8.21332 10.0334 8.25332 10.0534C8.29332 10.0668 8.33331 10.0868 8.37331 10.1134C8.40664 10.1334 8.43997 10.1668 8.47331 10.1934C8.53331 10.2601 8.57999 10.3334 8.61332 10.4134C8.64666 10.4934 8.66665 10.5801 8.66665 10.6668C8.66665 10.8468 8.59331 11.0134 8.47331 11.1401C8.43997 11.1668 8.40664 11.1934 8.37331 11.2201C8.33331 11.2468 8.29332 11.2668 8.25332 11.2801C8.21332 11.3001 8.17331 11.3134 8.12665 11.3201C8.08665 11.3268 8.03998 11.3334 7.99998 11.3334Z" fill="white"/>
<path d="M10.6667 11.3334C10.4867 11.3334 10.32 11.2601 10.1933 11.1401C10.1333 11.0734 10.0867 11.0001 10.0533 10.9201C10.02 10.8401 10 10.7534 10 10.6668C10 10.4934 10.0733 10.3201 10.1933 10.1934C10.2267 10.1668 10.26 10.1401 10.2933 10.1134C10.3333 10.0868 10.3733 10.0668 10.4133 10.0534C10.4533 10.0334 10.4933 10.0201 10.5333 10.0134C10.7533 9.96676 10.98 10.0401 11.14 10.1934C11.26 10.3201 11.3333 10.4868 11.3333 10.6668C11.3333 10.7534 11.3133 10.8401 11.28 10.9201C11.2467 11.0068 11.2 11.0734 11.14 11.1401C11.0133 11.2601 10.84 11.3334 10.6667 11.3334Z" fill="white"/>
</svg>
