<svg width="234" height="246" viewBox="0 0 234 246" fill="none" xmlns="http://www.w3.org/2000/svg">
<path d="M157.024 49.3652C157.024 60.7706 154.247 70.4555 148.766 78.1976L20.8191 75.3351C16.5343 75.1716 12.349 76.6504 9.12077 79.4686C5.89253 82.2867 3.8657 86.2308 3.45557 90.4929L2.50493 99.0654C1.78732 98.8588 1.15687 98.4241 0.709186 97.8271C0.261507 97.2302 0.0210797 96.5037 0.024449 95.758V8.4452C0.0787788 6.51057 0.686992 4.63198 1.77713 3.03172C2.51806 2.11704 3.45207 1.37692 4.51246 0.864169C5.57284 0.351422 6.73347 0.0786875 7.91158 0.0654297L92.7539 3.38766C122.074 3.9216 157.024 12.2569 157.024 49.3652Z" fill="#079669"/>
<path d="M232.98 163.243C232.98 164.089 232.98 164.978 232.98 165.838C232.408 183.153 225.426 199.64 213.387 212.109C201.347 224.578 185.106 232.142 167.805 233.336L2.11613 245.065C1.80022 245.067 1.49638 244.945 1.27017 244.724C1.17724 244.615 1.10813 244.487 1.06725 244.349C1.02637 244.211 1.01456 244.066 1.03264 243.924L17.894 92.2311C17.9607 91.6257 18.2524 91.0673 18.7114 90.6664C19.1704 90.2655 19.7633 90.0513 20.3728 90.0661L136.962 92.6611L164.436 93.2542C182.745 93.6871 200.161 101.246 212.972 114.319C225.784 127.393 232.979 144.948 233.024 163.243H232.98Z" fill="#079669"/>
</svg>
