<svg width="14" height="14" viewBox="0 0 14 14" fill="none" xmlns="http://www.w3.org/2000/svg">
<path d="M12.6875 3.9375V10.0625C12.6875 10.7874 12.0999 11.375 11.375 11.375H2.625C1.90013 11.375 1.3125 10.7874 1.3125 10.0625V3.9375M12.6875 3.9375C12.6875 3.21263 12.0999 2.625 11.375 2.625H2.625C1.90013 2.625 1.3125 3.21263 1.3125 3.9375M12.6875 3.9375V4.07908C12.6875 4.53486 12.451 4.95801 12.0629 5.19688L7.68788 7.88919C7.26603 8.14879 6.73397 8.14879 6.31212 7.88919L1.93712 5.19688C1.54895 4.95801 1.3125 4.53486 1.3125 4.07908V3.9375" stroke="#99A2B7" stroke-linecap="round" stroke-linejoin="round"/>
</svg>
