<svg width="16" height="16" viewBox="0 0 16 16" fill="none" xmlns="http://www.w3.org/2000/svg">
<path d="M11.8267 15.1666H5.09338C4.88672 15.1666 4.70005 15.0399 4.62672 14.8399C4.55339 14.6399 4.60671 14.4266 4.76671 14.2866C5.23338 13.8732 5.50671 13.2799 5.50671 12.6599C5.50671 11.4666 4.53338 10.4932 3.34005 10.4932C2.84671 10.4932 2.38005 10.6599 1.98671 10.9733C1.83338 11.0933 1.63339 11.1132 1.46005 11.0332C1.28672 10.9532 1.18005 10.7732 1.18005 10.5799V7.66659C1.18005 6.00659 2.52672 4.65991 4.18672 4.65991H11.84C13.5 4.65991 14.8467 6.00659 14.8467 7.66659V8.62659C14.8467 8.89992 14.6201 9.12659 14.3467 9.12659H13.0001C12.7667 9.12659 12.5534 9.21325 12.4001 9.37325L12.3934 9.37992C12.2067 9.55992 12.1201 9.8066 12.1401 10.0599C12.1801 10.4999 12.6 10.8533 13.08 10.8533H14.3467C14.6201 10.8533 14.8467 11.0799 14.8467 11.3533V12.1466C14.8334 13.8199 13.4867 15.1666 11.8267 15.1666ZM6.12005 14.1666H11.8267C12.9334 14.1666 13.8334 13.2666 13.8334 12.1599V11.8666H13.0667C12.0601 11.8666 11.2067 11.1199 11.1267 10.1599C11.0734 9.61325 11.2734 9.07327 11.6734 8.67993C12.02 8.3266 12.4867 8.13326 12.9867 8.13326H13.8334V7.67326C13.8334 6.56659 12.9334 5.66659 11.8267 5.66659H4.17338C3.06671 5.66659 2.16672 6.56659 2.16672 7.67326V9.7266C2.54005 9.57994 2.93338 9.49992 3.33338 9.49992C5.08005 9.49992 6.50005 10.9199 6.50005 12.6666C6.50005 13.1933 6.36671 13.7133 6.12005 14.1666Z" fill="#6B788E"/>
<path d="M1.66663 8.17339C1.39329 8.17339 1.16663 7.94673 1.16663 7.67339V5.22674C1.16663 4.23341 1.78663 3.3267 2.7133 2.98003L8.00662 0.980035C8.55329 0.780035 9.16663 0.853407 9.63996 1.18674C10.1133 1.52007 10.4 2.06006 10.4 2.6334V5.16672C10.4 5.44005 10.1733 5.66672 9.89996 5.66672C9.62663 5.66672 9.39996 5.44005 9.39996 5.16672V2.6334C9.39996 2.38006 9.27996 2.15339 9.07329 2.00673C8.85996 1.86006 8.59996 1.82672 8.35995 1.91338L3.06663 3.91338C2.51996 4.12005 2.16663 4.63341 2.16663 5.22674V7.67339C2.16663 7.94673 1.93996 8.17339 1.66663 8.17339Z" fill="#6B788E"/>
<path d="M13.0667 11.8666C12.06 11.8666 11.2066 11.12 11.1266 10.16C11.0733 9.60662 11.2733 9.06663 11.6733 8.6733C12.0133 8.32663 12.48 8.1333 12.98 8.1333H14.3666C15.0266 8.1533 15.5333 8.67327 15.5333 9.31327V10.6866C15.5333 11.3266 15.0266 11.8466 14.3866 11.8666H13.0667ZM14.3533 9.1333H12.9866C12.7533 9.1333 12.54 9.21996 12.3866 9.37996C12.1933 9.56663 12.1 9.81995 12.1266 10.0733C12.1666 10.5133 12.5867 10.8666 13.0667 10.8666H14.3733C14.46 10.8666 14.54 10.7866 14.54 10.6866V9.31327C14.54 9.21327 14.46 9.13997 14.3533 9.1333Z" fill="#6B788E"/>
<path d="M9.33329 8.5H4.66663C4.39329 8.5 4.16663 8.27333 4.16663 8C4.16663 7.72667 4.39329 7.5 4.66663 7.5H9.33329C9.60663 7.5 9.83329 7.72667 9.83329 8C9.83329 8.27333 9.60663 8.5 9.33329 8.5Z" fill="#6B788E"/>
<path d="M3.33329 15.8333C1.58663 15.8333 0.166626 14.4133 0.166626 12.6667C0.166626 11.6933 0.599959 10.7933 1.35329 10.1933C1.91329 9.74665 2.61996 9.5 3.33329 9.5C5.07996 9.5 6.49996 10.92 6.49996 12.6667C6.49996 13.5733 6.10663 14.44 5.42663 15.04C4.83996 15.5533 4.09996 15.8333 3.33329 15.8333ZM3.33329 10.5C2.83996 10.5 2.37329 10.6666 1.97996 10.98C1.46663 11.3866 1.16663 12.0067 1.16663 12.6667C1.16663 13.86 2.13996 14.8333 3.33329 14.8333C3.85329 14.8333 4.35996 14.64 4.76662 14.2933C5.23329 13.88 5.49996 13.2933 5.49996 12.6667C5.49996 11.4733 4.52663 10.5 3.33329 10.5Z" fill="#6B788E"/>
<path d="M2.66663 13.8333C2.49996 13.8333 2.3333 13.7466 2.23996 13.5933C2.09996 13.3533 2.17329 13.0466 2.41329 12.9066L3.00663 12.5533V11.8333C3.00663 11.5599 3.23329 11.3333 3.50663 11.3333C3.77996 11.3333 4.00663 11.5599 4.00663 11.8333V12.8333C4.00663 13.0066 3.91329 13.1733 3.76663 13.2599L2.93329 13.7599C2.84663 13.8133 2.7533 13.8333 2.66663 13.8333Z" fill="#6B788E"/>
</svg>
