<svg width="330" height="357" viewBox="0 0 330 357" fill="none" xmlns="http://www.w3.org/2000/svg">
<g clip-path="url(#clip0_659_7637)">
<mask id="mask0_659_7637" style="mask-type:luminance" maskUnits="userSpaceOnUse" x="-129" y="0" width="619" height="512">
<path d="M489.955 0.25705H-128.908V511.361H489.955V0.25705Z" fill="white"/>
</mask>
<g mask="url(#mask0_659_7637)">
<path d="M229.063 334.934C229.063 340.611 225.433 346.059 218.174 350.374C203.655 358.774 179.836 358.774 165.09 350.374C157.83 346.059 153.975 340.611 153.975 334.934C153.975 356.731 171.895 401.462 171.895 401.462C173.03 404.414 175.753 407.138 179.608 409.409C190.951 415.993 209.327 415.993 220.443 409.409C226.114 406.23 228.837 401.916 228.837 397.601L229.063 334.934Z" fill="#003D22"/>
<path d="M154.199 334.934C154.199 345.832 158.737 362.408 163.274 376.259C167.811 390.108 172.349 401.235 172.349 401.235C173.482 404.186 176.205 406.911 180.062 409.182C180.515 409.409 181.196 409.863 181.65 410.089C192.992 415.766 210.234 415.54 220.895 409.182C226.566 406.003 229.289 401.689 229.289 397.374V334.934C229.289 340.384 225.659 346.059 218.4 350.147C203.881 358.548 180.062 358.548 165.316 350.147C157.829 346.059 154.199 340.611 154.199 334.934Z" fill="#077753"/>
<path d="M217.948 319.721C203.202 311.319 179.608 311.319 164.864 319.721C157.604 324.034 153.975 329.484 153.975 335.161C153.975 340.609 157.604 346.286 165.09 350.599C179.836 359.001 203.429 359.001 218.174 350.599C225.433 346.286 229.063 340.836 229.063 335.161C229.063 329.484 225.433 323.807 217.948 319.721Z" fill="#003D22"/>
<path d="M148.531 288.392C148.531 294.068 144.901 299.518 137.642 303.831C123.123 312.233 99.303 312.233 84.5573 303.831C77.298 299.518 73.4414 294.068 73.4414 288.392C73.4414 310.19 91.3629 354.919 91.3629 354.919C92.4973 357.871 95.2195 360.596 99.0761 362.866C110.419 369.45 128.794 369.45 139.911 362.866C145.582 359.687 148.303 355.373 148.303 351.06L148.531 288.392Z" fill="#077753"/>
<path d="M137.414 272.951C122.669 264.55 99.0761 264.55 84.3305 272.951C77.0711 277.265 73.4414 282.714 73.4414 288.391C73.4414 293.839 77.0711 299.516 84.5573 303.831C99.303 312.231 122.896 312.231 137.642 303.831C144.901 299.516 148.531 294.066 148.531 288.391C148.531 282.941 144.674 277.265 137.414 272.951Z" fill="#003D22"/>
<path d="M372.213 252.29C372.213 257.967 368.583 263.416 361.324 267.73C346.805 276.131 322.984 276.131 308.239 267.73C300.98 263.416 297.123 257.967 297.123 252.29C297.123 274.088 315.045 318.817 315.045 318.817C316.178 321.769 318.901 324.494 322.758 326.764C334.101 333.35 352.476 333.35 363.591 326.764C369.263 323.585 371.985 319.272 371.985 314.958L372.213 252.29Z" fill="#003D22"/>
<path d="M297.348 252.29C297.348 263.189 301.884 279.763 306.421 293.614C310.959 307.464 315.496 318.59 315.496 318.59C316.63 321.542 319.353 324.267 323.209 326.537C323.662 326.764 324.343 327.219 324.797 327.446C336.139 333.121 353.381 332.895 364.044 326.537C369.715 323.358 372.437 319.044 372.437 314.731V252.29C372.437 257.739 368.808 263.416 361.548 267.503C347.028 275.904 323.209 275.904 308.464 267.503C300.977 263.416 297.348 257.739 297.348 252.29Z" fill="#077753"/>
<path d="M361.319 236.847C346.573 228.447 322.981 228.447 308.235 236.847C300.975 241.162 297.346 246.612 297.346 252.287C297.346 257.737 300.975 263.413 308.462 267.727C323.207 276.128 346.8 276.128 361.546 267.727C368.806 263.413 372.435 257.964 372.435 252.287C372.208 246.612 368.578 241.162 361.319 236.847Z" fill="#003D22"/>
<path d="M291.678 205.512C291.678 211.188 288.048 216.638 280.787 220.952C266.269 229.353 242.449 229.353 227.703 220.952C220.444 216.638 216.588 211.188 216.588 205.512C216.588 227.31 234.509 272.039 234.509 272.039C235.643 274.991 238.366 277.716 242.223 279.986C253.565 286.571 271.94 286.571 283.056 279.986C288.728 276.807 291.45 272.493 291.45 268.18L291.678 205.512Z" fill="white" stroke="black" stroke-width="0.739567" stroke-miterlimit="10" stroke-linecap="round" stroke-linejoin="round"/>
<path d="M280.561 190.299C265.815 181.897 242.223 181.897 227.477 190.299C220.218 194.612 216.588 200.062 216.588 205.739C216.588 211.188 220.218 216.865 227.703 221.178C242.449 229.58 266.043 229.58 280.787 221.178C288.048 216.865 291.678 211.415 291.678 205.739C291.678 200.062 288.048 194.385 280.561 190.299Z" fill="#003D22"/>
<path d="M351.115 281.123C376.295 266.592 396.939 229.809 397.619 187.804C399.207 85.628 295.761 6.38532 202.297 61.5601C157.605 87.8986 133.786 101.749 110.42 115.145C85.9195 129.223 63.9145 143.528 50.5299 164.87C41.002 180.31 36.4648 199.61 36.4648 222.997C36.4648 305.872 99.304 388.068 195.264 363.999C207.06 361.047 220.218 356.734 232.695 349.468C276.706 324.038 328.202 294.52 351.115 281.123Z" fill="#CBEBE1"/>
<path d="M130.611 265.459C135.497 265.459 139.458 257.428 139.458 247.522C139.458 237.615 135.497 229.585 130.611 229.585C125.725 229.585 121.764 237.615 121.764 247.522C121.764 257.428 125.725 265.459 130.611 265.459Z" fill="#97D6C3"/>
<path d="M68.904 229.809C73.7903 229.809 77.7514 221.779 77.7514 211.872C77.7514 201.966 73.7903 193.934 68.904 193.934C64.0178 193.934 60.0566 201.966 60.0566 211.872C60.0566 221.779 64.0178 229.809 68.904 229.809Z" fill="#97D6C3"/>
<path d="M63.0045 108.558C63.2314 108.785 63.4583 108.785 63.685 109.012C63.9119 109.239 64.3656 109.466 64.5925 109.693C64.8194 109.921 65.2731 110.148 65.4999 110.375C65.7268 110.602 65.9537 110.829 66.1804 110.829C66.6343 111.056 66.861 111.51 67.3148 111.737C67.5416 111.964 67.7685 112.191 67.9953 112.418C68.4491 112.645 68.9028 113.099 69.3564 113.553C69.5833 113.78 69.8102 114.008 70.2639 114.235C70.7176 114.689 71.1713 114.916 71.6251 115.37C72.0787 115.824 72.7593 116.278 73.213 116.732C73.8936 117.186 74.3472 117.867 75.0278 118.549L75.2547 118.776C75.9353 119.457 76.389 119.911 77.0696 120.592C77.2965 120.819 77.2965 120.819 77.5232 121.046C78.2038 121.727 78.8844 122.409 79.3382 123.09L79.565 123.317C80.2456 123.998 80.6992 124.679 81.3798 125.36L81.6067 125.587C82.2873 126.269 82.9679 127.177 83.6484 127.858C83.8752 128.085 83.8752 128.312 84.1021 128.312C84.7827 129.22 85.4633 129.901 86.1438 130.81C86.8244 131.718 87.505 132.4 88.1856 133.307C88.4124 133.534 88.6393 133.989 88.8662 134.216C89.3198 134.896 90.0004 135.578 90.4541 136.259C90.681 136.486 90.9078 136.94 91.1347 137.168C91.8153 138.075 92.7226 139.211 93.4032 140.346L109.737 130.81C109.056 129.901 108.376 128.993 107.695 128.085C107.695 127.858 107.468 127.858 107.468 127.631C107.241 127.404 107.015 126.95 106.788 126.723C106.334 126.041 105.653 125.36 105.2 124.679C104.973 124.452 104.746 123.998 104.519 123.771C104.292 123.544 104.292 123.317 104.065 123.09C103.612 122.409 102.931 121.727 102.477 121.046C102.024 120.365 101.343 119.684 100.89 119.23C100.663 119.003 100.436 118.776 100.436 118.549C100.209 118.322 100.209 118.095 99.982 118.095C99.3015 117.413 98.8478 116.732 98.1672 116.051C98.1672 116.051 98.1672 115.824 97.9403 115.824L97.7135 115.597C97.033 114.916 96.3524 114.235 95.8986 113.553L95.6718 113.326C95.6718 113.326 95.6718 113.326 95.6718 113.099C94.9912 112.418 94.5376 111.737 93.857 111.283C93.6301 111.056 93.6301 111.056 93.4032 110.829C93.1764 110.602 93.1764 110.602 92.9495 110.375C92.4958 109.921 92.042 109.466 91.5883 109.012L91.3616 108.785C91.1347 108.558 90.9078 108.331 90.681 108.104C90.2272 107.65 90.0004 107.423 89.5466 107.196C89.0929 106.742 88.6393 106.515 88.4124 106.061C88.1856 106.061 88.1856 105.834 87.9587 105.834C87.505 105.379 87.0512 105.152 86.5975 104.698C86.3706 104.471 86.1438 104.471 86.1438 104.244L85.9169 104.017C85.4633 103.563 85.0096 103.336 84.5558 102.882C84.329 102.655 84.1021 102.655 83.8752 102.428C83.8752 102.428 83.8752 102.428 83.6484 102.428C83.1946 102.201 82.9679 101.746 82.5141 101.519C82.2873 101.292 82.0604 101.292 81.8336 101.065C81.6067 100.838 81.153 100.611 80.9261 100.384C80.6992 100.157 80.4725 99.93 80.2455 99.93C80.0186 99.7029 79.7919 99.7029 79.565 99.4759C79.3382 99.2489 78.8844 99.0218 78.6576 98.7948C78.6576 98.7948 78.6576 98.7948 78.4307 98.7948C78.2038 98.5676 77.977 98.5676 77.7501 98.3406C77.5232 98.1135 77.2965 98.1135 77.0696 97.8865C76.8428 97.8865 76.8427 97.6594 76.6159 97.6594C76.1622 97.4324 75.9353 97.2053 75.4816 96.9783H75.2547C75.0278 96.7513 74.8011 96.7513 74.5742 96.7513C74.3472 96.7513 74.1205 96.5241 74.1205 96.5241H73.8936C73.6668 96.5241 73.4399 96.2971 73.213 96.2971C72.9862 96.2971 72.9862 96.07 72.7593 96.07H72.5324C72.3056 96.07 72.0787 95.843 71.8518 95.843C71.6251 95.843 71.6251 95.6159 71.3982 95.6159H71.1713C70.9445 95.6159 70.7176 95.3889 70.7176 95.3889C70.4907 95.3889 70.4908 95.3889 70.2639 95.1618H70.037C69.8102 95.1618 69.5833 94.9348 69.5833 94.9348H69.3564H69.1297C68.9028 94.9348 68.6759 94.9348 68.6759 94.7078H68.4491C68.2222 94.7078 68.2222 94.7078 67.9953 94.7078C67.7685 94.7078 67.7685 94.7078 67.5416 94.7078H67.3148C67.0879 94.7078 67.0879 94.7078 67.0879 94.7078C66.861 94.7078 66.861 94.7078 66.6343 94.7078H66.4074H66.1804C65.9537 94.7078 65.9537 94.7078 65.7268 94.7078H65.4999H65.2731C65.0462 94.7078 64.8193 94.7078 64.8193 94.7078H64.5925H64.3656C64.1387 94.7078 63.9119 94.7078 63.9119 94.7078H63.685C63.685 94.7078 63.685 94.7078 63.4583 94.7078C63.2314 94.7078 63.0045 94.7078 62.7777 94.7078H62.5508C62.3239 94.7078 61.8702 94.9348 61.6433 94.9348C61.4165 95.1618 60.9629 95.1618 60.736 95.3889L44.4023 104.925C44.6291 104.698 45.0829 104.698 45.3097 104.471H45.5366C45.7635 104.471 46.2172 104.244 46.4439 104.244H46.6708C46.8978 104.244 47.1245 104.244 47.3514 104.244C47.3514 104.244 47.5783 104.244 47.8051 104.244C48.032 104.244 48.2589 104.244 48.2589 104.244C48.4857 104.244 48.4857 104.244 48.7126 104.244C48.9395 104.244 48.9395 104.244 49.1663 104.244C49.3932 104.244 49.3932 104.244 49.6199 104.244C49.8468 104.244 49.8468 104.244 50.0737 104.244C50.3005 104.244 50.3005 104.244 50.5274 104.244C50.7543 104.244 50.7543 104.244 50.9811 104.244C51.208 104.244 51.4349 104.244 51.4349 104.244C51.6617 104.244 51.6617 104.244 51.8886 104.244C52.1153 104.244 52.3422 104.244 52.5692 104.471C52.7959 104.471 52.7959 104.471 53.0228 104.698C53.2497 104.698 53.4765 104.925 53.7034 104.925C53.9303 104.925 54.1571 104.925 54.1571 105.152C54.384 105.152 54.6109 105.379 54.8377 105.379C55.0646 105.379 55.2913 105.606 55.2913 105.606C55.5182 105.606 55.7451 105.834 55.9719 105.834C56.1988 105.834 56.4257 106.061 56.4257 106.061C56.6525 106.061 56.8794 106.288 57.1063 106.288C57.3331 106.288 57.56 106.515 57.7869 106.515C58.0136 106.742 58.2405 106.742 58.4673 106.969C58.6942 106.969 58.9211 107.196 59.1479 107.196C59.6017 107.423 60.0554 107.65 60.5091 107.877C60.9629 108.104 61.1896 108.331 61.6433 108.558C61.8702 108.785 62.0971 108.785 62.3239 109.012C62.3239 108.104 62.7777 108.331 63.0045 108.558Z" fill="#077753"/>
<path d="M60.284 106.741C68.9046 111.736 80.2474 121.954 93.6318 140.345C75.9371 141.935 61.1915 150.335 50.983 164.64C33.0613 124.905 38.0521 106.741 43.9504 103.335C46.6726 101.973 52.3441 102.2 60.284 106.741Z" fill="#97D6C3"/>
<path d="M231.336 213.69V213.463C231.336 213.236 231.336 213.009 231.336 212.554C231.336 212.327 231.336 212.101 231.336 211.874V211.647C231.336 211.42 231.336 211.192 231.336 210.965C231.336 210.738 231.336 210.511 231.336 210.284C231.336 210.057 231.336 210.057 231.336 209.831C231.336 209.602 231.336 209.376 231.336 209.149C231.336 208.922 231.336 208.695 231.336 208.695C231.336 208.468 231.336 208.468 231.336 208.24C231.336 208.013 231.336 207.786 231.336 207.559C231.336 207.332 231.336 207.332 231.336 207.106C231.336 206.879 231.336 206.651 231.336 206.651C231.336 206.424 231.336 206.197 231.336 205.97V205.743C231.336 205.516 231.336 205.289 231.336 205.061C231.336 204.834 231.336 204.607 231.336 204.381V204.154C231.336 203.927 231.336 203.472 231.109 203.245C231.109 203.018 231.109 203.018 231.109 202.791C231.109 202.337 230.883 201.882 230.883 201.429V201.202C230.883 200.748 230.655 200.521 230.655 200.066C230.655 200.066 230.655 200.066 230.655 199.839C230.655 199.612 230.655 199.612 230.429 199.386C230.429 199.159 230.202 198.932 230.202 198.704V198.477C230.202 198.25 230.202 198.25 229.976 198.023C229.976 197.796 229.976 197.796 229.748 197.569C229.748 197.342 229.748 197.342 229.521 197.114C229.521 196.887 229.521 196.887 229.295 196.661V196.434C229.295 196.207 229.067 195.98 229.067 195.753V195.525C229.067 195.298 228.841 194.844 228.841 194.617V194.391V194.164C228.841 193.936 228.841 193.936 228.614 193.709C228.614 193.482 228.387 193.255 228.387 193.255V193.028C228.387 192.801 228.16 192.573 228.16 192.346V192.119V191.892C228.16 191.892 228.16 191.666 227.934 191.666C227.934 191.439 227.706 191.439 227.706 191.212L227.479 190.984C227.479 190.984 227.479 190.984 227.479 190.757C227.253 190.53 227.253 190.303 227.025 190.076C227.025 190.076 227.025 190.076 227.025 189.849C226.799 189.394 226.346 188.941 226.118 188.26C225.891 187.805 225.665 187.578 225.211 187.124C225.211 186.897 224.984 186.897 224.758 186.671C224.758 186.444 224.53 186.444 224.53 186.215C224.303 185.989 224.077 185.762 223.849 185.535C223.623 185.308 223.396 184.854 223.17 184.626L222.942 184.399C222.716 184.172 222.716 184.172 222.489 183.946C222.489 183.946 222.489 183.946 222.261 183.719C222.035 183.492 222.035 183.492 221.808 183.265C221.582 183.037 221.582 183.037 221.354 182.81C221.354 182.81 221.128 182.81 221.128 182.583C220.901 182.356 220.901 182.356 220.673 182.129C220.447 181.902 220.447 181.902 220.22 181.676L219.994 181.447C219.766 181.221 219.54 180.994 219.54 180.994C219.313 180.994 219.313 180.767 219.085 180.767C219.085 180.767 218.859 180.767 218.859 180.54C218.632 180.313 218.406 180.086 218.178 180.086C217.952 180.086 217.952 179.858 217.725 179.858C217.725 179.858 217.498 179.858 217.498 179.631C217.271 179.404 217.044 179.177 216.817 179.177C216.59 178.951 216.59 178.951 216.364 178.724C216.364 178.724 216.364 178.724 216.137 178.497C215.91 178.269 215.683 178.042 215.456 178.042C215.229 177.815 215.229 177.815 215.002 177.588C215.002 177.588 215.002 177.588 214.776 177.588C214.548 177.361 214.322 177.361 214.095 177.134C213.869 176.907 213.869 176.906 213.641 176.679C213.641 176.679 213.641 176.679 213.414 176.679C213.188 176.452 212.96 176.452 212.734 176.226C212.507 175.999 212.281 175.999 212.281 175.772C212.281 175.772 212.281 175.772 212.053 175.772C211.826 175.545 211.6 175.545 211.372 175.317C211.146 175.09 210.919 175.09 210.919 174.863L210.693 174.636C210.238 174.409 210.012 174.182 209.558 173.956C209.558 173.956 209.331 173.956 209.331 173.727C209.105 173.5 208.877 173.5 208.651 173.274C208.424 173.274 208.196 173.047 207.97 173.047C207.743 173.047 207.743 172.82 207.517 172.82C207.289 172.593 207.063 172.593 206.836 172.366C206.608 172.366 206.608 172.138 206.382 172.138C206.155 172.138 206.155 171.911 205.929 171.911C205.701 171.684 205.475 171.684 205.021 171.684C204.794 171.684 204.794 171.457 204.567 171.457C204.34 171.457 204.113 171.231 204.113 171.231C203.887 171.231 203.433 171.004 203.206 171.004C202.979 171.004 202.979 171.004 202.752 170.777C202.525 170.777 202.299 170.549 202.299 170.549C202.071 170.549 201.618 170.322 201.39 170.322C201.164 170.322 201.164 170.322 200.937 170.095C200.711 170.095 200.483 170.095 200.483 169.868C200.03 169.868 199.804 169.641 199.349 169.641C199.123 169.641 199.123 169.641 198.895 169.414C198.669 169.414 198.669 169.414 198.442 169.414C197.988 169.414 197.535 169.187 197.081 169.187C196.854 169.187 196.628 169.187 196.628 168.959C196.4 168.959 196.4 168.959 196.174 168.959C195.719 168.959 195.266 168.732 194.586 168.732C194.359 168.732 194.131 168.732 193.905 168.732H193.678C192.77 168.732 192.09 168.505 191.182 168.505C190.501 168.505 189.822 168.505 189.368 168.505C189.141 168.505 188.913 168.505 188.913 168.505C188.687 168.505 188.46 168.505 188.006 168.505C187.78 168.505 187.553 168.505 187.325 168.505C187.099 168.505 186.872 168.505 186.418 168.505C185.965 168.505 185.511 168.505 185.058 168.505C184.83 168.505 184.604 168.505 184.377 168.505H184.151C183.923 168.505 183.47 168.505 183.242 168.505C182.789 168.505 182.335 168.505 181.881 168.732C181.428 168.732 181.201 168.959 180.747 168.959C180.293 168.959 179.84 169.187 179.386 169.187C179.159 169.187 179.159 169.187 178.933 169.187C178.252 169.414 177.798 169.414 177.117 169.641L160.783 179.177C161.464 178.951 162.145 178.951 162.826 178.724C163.28 178.724 163.733 178.497 164.187 178.497C164.64 178.497 164.868 178.269 165.321 178.269C165.775 178.269 166.228 178.269 166.682 178.042C167.135 178.042 167.363 178.042 167.816 177.815C168.044 177.815 168.27 177.815 168.497 177.815C168.951 177.815 169.404 177.815 169.858 177.815C170.085 177.815 170.312 177.815 170.765 177.815C171.219 177.815 171.673 177.815 172.353 177.815C172.581 177.815 172.807 177.815 172.807 177.815C173.488 177.815 174.169 177.815 174.848 177.815C175.757 177.815 176.664 178.042 177.345 178.042C177.571 178.042 177.798 178.042 178.024 178.269C178.479 178.269 179.159 178.497 179.612 178.497C179.84 178.497 180.293 178.724 180.521 178.724C180.974 178.724 181.428 178.951 181.881 178.951C182.109 178.951 182.562 179.177 182.789 179.177C183.242 179.177 183.47 179.404 183.923 179.404C184.151 179.404 184.604 179.631 184.83 179.631C185.058 179.631 185.511 179.858 185.739 179.858C185.965 179.858 186.418 180.086 186.646 180.086C186.872 180.086 187.327 180.313 187.553 180.313C187.78 180.54 188.234 180.54 188.46 180.767C188.687 180.767 188.913 180.994 189.141 180.994C189.368 181.221 189.822 181.221 190.048 181.447C190.275 181.676 190.501 181.676 190.729 181.902C190.956 182.129 191.41 182.129 191.636 182.356C191.863 182.583 192.09 182.583 192.317 182.81C192.77 183.037 193.224 183.265 193.678 183.492C193.905 183.719 194.359 183.946 194.586 183.946C194.812 184.172 195.04 184.172 195.266 184.399C195.493 184.626 195.719 184.626 195.947 184.854C196.174 185.081 196.4 185.081 196.628 185.308C196.854 185.535 197.081 185.535 197.307 185.762C197.535 185.989 197.761 185.989 197.988 186.215C198.216 186.444 198.442 186.444 198.669 186.671C198.895 186.897 199.123 187.124 199.349 187.124C199.576 187.351 199.804 187.351 200.03 187.578C200.257 187.805 200.483 188.033 200.711 188.033C200.937 188.26 201.164 188.26 201.164 188.487C201.39 188.714 201.618 188.941 201.845 188.941C202.071 189.167 202.299 189.167 202.299 189.394C202.525 189.622 202.752 189.849 202.752 189.849C202.979 190.076 203.206 190.303 203.206 190.303C203.433 190.53 203.433 190.53 203.659 190.757C203.887 190.984 204.113 191.212 204.113 191.212C204.34 191.439 204.34 191.439 204.567 191.666C204.794 191.892 205.021 192.119 205.248 192.346L205.475 192.573C205.701 192.801 205.929 193.255 206.382 193.482C206.608 193.709 206.836 194.164 207.063 194.391C207.063 194.617 207.289 194.617 207.289 194.844C207.517 195.071 207.517 195.298 207.743 195.298C207.97 195.753 208.196 195.98 208.651 196.434C209.105 196.887 209.331 197.569 209.558 198.023C209.558 198.023 209.558 198.25 209.784 198.25C210.012 198.477 210.012 198.932 210.238 199.159L210.465 199.386C210.693 199.612 210.693 199.839 210.919 200.066V200.293C211.146 200.521 211.146 200.975 211.372 201.202V201.429C211.6 201.656 211.6 202.111 211.826 202.337V202.564C212.053 203.018 212.053 203.245 212.281 203.7V203.927C212.507 204.154 212.507 204.607 212.734 204.834C212.734 205.061 212.734 205.061 212.96 205.289C212.96 205.516 213.188 205.97 213.188 206.197C213.188 206.424 213.188 206.424 213.414 206.651C213.414 206.879 213.641 207.332 213.641 207.559C213.641 207.786 213.641 207.786 213.869 208.013C213.869 208.468 214.095 208.922 214.095 209.376V209.602C214.095 210.057 214.322 210.511 214.322 210.965C214.322 211.192 214.322 211.192 214.322 211.42C214.322 211.874 214.548 212.101 214.548 212.554C214.548 212.781 214.548 213.009 214.548 213.236C214.548 213.463 214.548 213.917 214.776 214.144C214.776 214.371 214.776 214.599 214.776 214.826C214.776 215.052 214.776 215.506 214.776 215.733C214.776 215.96 214.776 216.188 214.776 216.415C214.776 216.642 214.776 217.096 214.776 217.322C214.776 217.549 214.776 217.777 214.776 218.004C214.776 218.231 214.776 218.685 214.776 218.912C214.776 219.139 214.776 219.367 214.776 219.594C214.776 219.821 214.776 220.274 214.776 220.501C214.776 220.728 214.776 220.956 214.776 221.41C214.776 221.637 214.776 222.091 214.776 222.317C214.776 222.546 214.776 222.999 214.776 223.226C214.776 223.453 214.776 223.68 214.776 224.135C214.776 224.589 214.776 224.816 214.776 225.269C214.776 225.496 214.776 225.724 214.776 226.178C214.776 226.632 214.776 226.859 214.548 227.314C214.548 227.541 214.548 227.767 214.322 228.221C214.322 228.676 214.095 229.13 214.095 229.584C214.095 229.811 214.095 230.037 213.869 230.266C213.641 230.946 213.414 231.855 213.188 232.536C212.96 232.989 212.734 233.671 212.734 234.125C212.734 234.352 212.507 234.352 212.507 234.579C212.281 235.034 212.281 235.261 212.053 235.714C212.053 235.941 211.826 236.168 211.826 236.623C211.6 237.077 211.6 237.304 211.372 237.757C211.146 237.984 211.146 238.213 210.919 238.666C210.693 238.893 210.693 239.12 210.465 239.574C210.238 240.029 210.012 240.709 209.784 241.163C209.558 241.391 209.558 241.618 209.331 241.845C208.877 242.526 208.651 243.208 208.196 243.888V244.115C207.97 244.57 207.743 244.797 207.517 245.251C207.289 245.477 207.063 245.704 207.063 246.159C206.836 246.613 206.608 246.84 206.155 247.294C205.928 247.522 205.701 247.749 205.701 247.976C205.475 248.429 205.021 248.883 204.794 249.111C204.567 249.338 204.567 249.565 204.34 249.792C203.887 250.472 203.206 250.928 202.752 251.608L219.085 242.072C219.54 241.391 220.22 240.936 220.673 240.256C220.901 240.029 220.901 239.802 221.128 239.574C221.354 239.12 221.808 238.666 222.035 238.439C222.261 238.213 222.489 237.984 222.489 237.757C222.716 237.304 222.942 237.077 223.396 236.623C223.623 236.395 223.849 236.168 223.849 235.714C224.077 235.261 224.303 235.034 224.53 234.579C224.53 234.579 224.53 234.579 224.53 234.352C224.984 233.671 225.437 232.989 225.665 232.309C225.891 232.082 225.891 231.855 226.118 231.627C226.346 231.173 226.572 230.492 226.799 230.037C226.799 229.811 227.025 229.811 227.025 229.584C227.025 229.357 227.253 229.357 227.253 229.13C227.479 228.903 227.479 228.676 227.706 228.221C227.933 227.767 227.933 227.541 228.16 227.087C228.16 226.859 228.387 226.632 228.387 226.178C228.387 225.951 228.614 225.951 228.614 225.724C228.614 225.496 228.841 225.269 228.841 225.042C228.841 224.816 229.067 224.816 229.067 224.589C229.295 224.135 229.521 223.453 229.521 222.999C229.748 222.317 229.976 221.41 230.202 220.728V220.501C230.202 220.274 230.202 220.274 230.202 220.047C230.202 219.594 230.429 219.139 230.429 218.685C230.429 218.458 230.429 218.458 230.429 218.231C230.429 218.004 230.429 218.004 230.429 217.777C230.429 217.322 230.655 217.096 230.655 216.642C230.655 216.415 230.655 216.188 230.655 216.188V215.96C230.655 215.506 230.655 215.279 230.655 214.826C230.655 214.599 230.655 214.371 230.655 214.144V213.917C230.655 213.69 230.655 213.236 230.655 213.009C231.109 214.144 231.336 213.917 231.336 213.69Z" fill="#077753"/>
<path d="M193.451 183.72C201.392 188.26 206.836 194.391 209.786 199.387C215.683 209.604 220.447 233.444 202.525 252.29C192.317 226.179 177.798 200.748 160.104 178.724C173.262 175.772 184.83 178.724 193.451 183.72Z" fill="#97D6C3"/>
<path d="M80.0198 277.034C88.8672 282.256 96.1267 294.744 96.1267 304.961V323.353C96.1267 333.571 88.8672 337.884 79.793 332.662L47.5795 314.044C38.5052 308.822 31.4727 296.334 31.4727 286.115V267.725C31.4727 257.507 38.7321 253.192 47.8063 258.415L80.0198 277.034Z" fill="#D5EFE7"/>
<path d="M79.3369 288.837C82.2859 290.426 84.5544 294.513 84.5544 297.692V317.218C84.5544 320.397 82.2859 321.76 79.3369 320.17C76.3876 318.581 74.1191 314.495 74.1191 311.316V291.788C74.1191 288.61 76.3876 287.247 79.3369 288.837Z" fill="#97D6C3"/>
<path d="M48.7138 271.129C51.6629 272.719 53.9315 276.806 53.9315 279.985V299.511C53.9315 302.691 51.6629 304.052 48.7138 302.463C45.7647 300.874 43.4961 296.787 43.4961 293.609V274.081C43.4961 270.902 45.9915 269.54 48.7138 271.129Z" fill="#97D6C3"/>
<path d="M115.18 293.386C115.18 293.157 115.18 292.931 115.18 292.704C115.18 292.477 115.18 292.477 115.18 292.25C115.18 292.25 115.18 292.25 115.18 292.023V291.796C115.18 291.568 115.18 291.341 115.18 290.887C115.18 290.661 115.18 290.434 114.953 289.979C114.953 289.752 114.953 289.525 114.726 289.298C114.726 289.071 114.726 288.844 114.499 288.389V288.162V287.936C114.499 287.709 114.499 287.709 114.499 287.482C114.499 287.255 114.273 286.8 114.273 286.573C114.273 286.346 114.046 286.119 114.046 285.892C114.046 285.892 114.046 285.892 114.046 285.666C114.046 285.437 113.819 285.211 113.819 284.757C113.819 284.53 113.592 284.303 113.592 283.848C113.592 283.848 113.592 283.848 113.592 283.621C113.592 283.621 113.592 283.621 113.592 283.394C113.592 283.167 113.365 282.941 113.365 282.941C113.365 282.714 113.138 282.487 113.138 282.259C113.138 282.032 112.911 281.805 112.911 281.805C112.685 281.578 112.685 281.351 112.458 281.124C112.231 280.897 112.231 280.442 112.004 280.216C112.004 280.216 112.004 280.216 112.004 279.989C112.004 279.989 112.004 279.989 112.004 279.762C111.777 279.535 111.777 279.308 111.55 279.08C111.323 278.853 111.323 278.626 111.097 278.172C111.097 277.946 110.87 277.946 110.87 277.719C110.87 277.719 110.87 277.719 110.87 277.491C110.643 277.264 110.643 277.037 110.416 276.81C110.189 276.356 109.962 276.129 109.735 275.674C109.735 275.674 109.735 275.674 109.735 275.447C109.509 274.994 109.055 274.54 108.828 274.085C108.601 273.858 108.374 273.404 108.147 273.177C107.921 272.949 107.694 272.722 107.467 272.496C107.24 272.269 107.013 272.042 106.786 271.815C106.559 271.588 106.333 271.36 106.106 271.133C106.106 271.133 106.106 271.133 106.106 270.906C105.879 270.679 105.879 270.679 105.652 270.452C105.425 270.226 105.198 269.999 104.971 269.771L104.745 269.544C104.745 269.544 104.745 269.544 104.518 269.317L104.291 269.09C104.064 268.863 103.837 268.636 103.61 268.409L103.383 268.181C103.383 268.181 103.383 268.181 103.157 267.954L102.93 267.727C102.703 267.501 102.476 267.274 102.249 267.274C102.022 267.047 101.795 267.047 101.795 266.82C101.569 266.592 101.342 266.592 101.115 266.365C100.888 266.138 100.661 266.138 100.434 265.911C100.434 265.911 100.434 265.911 100.207 265.911L67.9939 247.292C67.7671 247.292 67.5402 247.066 67.5402 247.066H67.3133C67.3133 247.066 67.0865 247.066 67.0865 246.839H66.8596C66.8596 246.839 66.6327 246.839 66.6327 246.612H66.4059C66.179 246.612 65.9521 246.385 65.7254 246.385C65.4985 246.385 65.2716 246.157 65.0448 246.157H64.8179H64.5911C64.5911 246.157 64.5911 246.157 64.3642 246.157H64.1373H63.9105H63.6836H63.4567C63.4567 246.157 63.4567 246.157 63.2299 246.157H63.003H62.7761C62.7761 246.157 62.7761 246.157 62.5494 246.157H62.3225C62.0957 246.157 62.0956 246.157 61.8688 246.157H61.6419C61.4151 246.157 61.4151 246.157 61.1882 246.157C61.1882 246.157 61.1882 246.157 60.9613 246.157H60.7345C60.5076 246.157 60.2807 246.157 60.2807 246.157C60.2807 246.157 60.2807 246.157 60.054 246.157C59.8271 246.157 59.6002 246.157 59.3734 246.157C58.9197 246.157 58.6928 246.385 58.2391 246.385C58.0122 246.385 58.0122 246.385 57.7853 246.612H57.5586C57.3317 246.612 57.1047 246.839 56.878 246.839L38.0488 257.964C38.2757 257.737 38.5026 257.737 38.7294 257.737H38.9563C39.1832 257.737 39.1832 257.511 39.41 257.511C39.41 257.511 39.41 257.511 39.6369 257.511C39.8638 257.284 40.3175 257.282 40.7711 257.282C40.998 257.282 41.2248 257.282 41.4517 257.282H41.6786C41.9054 257.282 41.9054 257.282 42.1323 257.282H42.3592C42.586 257.282 42.586 257.282 42.8129 257.282H43.0398C43.2665 257.282 43.2665 257.282 43.4934 257.282C43.7202 257.282 43.7202 257.282 43.9471 257.282H44.174C44.4008 257.282 44.4008 257.282 44.6277 257.282H44.8546C45.0814 257.282 45.0814 257.282 45.3083 257.282H45.5352C45.762 257.282 45.762 257.284 45.9889 257.511H46.2156C46.4425 257.511 46.6694 257.737 46.8962 257.737C47.1231 257.737 47.35 257.964 47.5768 257.964H47.8037C48.0306 257.964 48.2574 258.191 48.2574 258.191C48.2574 258.191 48.4843 258.191 48.4843 258.418C48.7112 258.645 48.9379 258.645 49.1648 258.873L81.3784 277.491C81.8321 277.719 82.5126 278.172 82.9664 278.626C83.4201 279.08 83.8738 279.308 84.3275 279.762C84.3275 279.762 84.3275 279.762 84.5544 279.989C85.008 280.442 85.4619 280.669 85.9155 281.124C85.9155 281.124 85.9155 281.124 86.1424 281.351C86.5961 281.805 87.0498 282.259 87.5035 282.714C87.5035 282.714 87.5035 282.714 87.5035 282.941C87.9573 283.394 88.4109 283.848 88.8646 284.53C89.3184 284.984 89.7721 285.666 90.2258 286.119C90.6794 286.573 90.9063 287.255 91.36 287.709C91.5869 288.162 91.8138 288.389 92.0406 288.844C92.2675 289.071 92.4944 289.525 92.4944 289.752C92.4944 289.979 92.7212 289.979 92.7212 290.206C92.9481 290.661 93.1749 291.114 93.6287 291.796C93.6287 291.796 93.6287 291.796 93.6287 292.023C93.8554 292.704 94.3092 293.157 94.536 293.839C94.7629 294.52 94.9898 294.975 95.2166 295.656C95.2166 295.656 95.2166 295.656 95.2166 295.882C95.4435 296.564 95.6703 297.245 95.8972 297.926C95.8972 297.926 95.8972 297.926 95.8972 298.154C96.1241 298.834 96.3508 299.288 96.3508 299.97V300.197C96.5777 300.877 96.5778 301.559 96.8047 302.013C96.8047 302.694 97.0314 303.376 97.0314 303.829C97.0314 303.829 97.0314 303.829 97.0314 304.056C97.0314 304.738 97.0314 305.419 97.0314 305.874V324.264C97.0314 324.491 97.0314 324.946 97.0314 325.173V325.4C97.0314 325.627 97.0314 325.854 97.0314 326.081V326.309C97.0314 326.536 97.0314 326.536 97.0314 326.763C97.0314 326.989 97.0314 326.989 97.0314 327.216C97.0314 327.443 97.0314 327.443 97.0314 327.67C97.0314 327.898 97.0314 327.898 97.0314 328.125C97.0314 328.352 97.0314 328.352 97.0314 328.579C97.0314 328.806 97.0314 328.806 96.8047 329.033C96.8047 329.259 96.8047 329.259 96.8047 329.259C96.8047 329.488 96.8046 329.714 96.5777 329.714V329.941C96.5777 330.168 96.3508 330.395 96.1241 330.849C95.8972 331.304 95.6704 331.531 95.6704 331.758C95.4435 331.984 95.2166 332.211 95.2166 332.438C95.2166 332.438 95.2166 332.438 94.9898 332.666C94.7629 332.893 94.536 333.12 94.536 333.347C94.3092 333.574 94.0823 333.801 93.8554 333.801C93.8554 333.801 93.8554 333.801 93.6287 334.028C93.4018 334.256 93.175 334.256 92.9481 334.483L111.777 323.357C112.004 323.13 112.231 323.13 112.458 322.902C112.458 322.902 112.458 322.902 112.685 322.675C112.911 322.448 113.138 322.221 113.365 322.221C113.592 321.994 113.819 321.768 113.819 321.539C113.819 321.539 113.819 321.539 114.046 321.313C114.273 321.086 114.499 320.859 114.499 320.632C114.726 320.405 114.953 319.95 114.953 319.723C115.18 319.496 115.18 319.269 115.407 318.816V318.589C115.407 318.361 115.634 318.361 115.634 318.134C115.634 318.134 115.634 318.134 115.634 317.907V317.68C115.634 317.453 115.634 317.453 115.861 317.226V316.999V316.771C115.861 316.544 115.861 316.544 115.861 316.318V316.091V315.864C115.861 315.637 115.861 315.637 115.861 315.41V315.182V314.955V314.728C115.861 314.728 115.861 314.728 115.861 314.501C115.861 314.274 115.861 314.274 115.861 314.048V313.821C115.861 313.592 115.861 313.366 115.861 313.139V294.747C115.18 293.839 115.18 293.612 115.18 293.386Z" fill="#077753"/>
<path d="M266.495 88.8072C266.041 88.8072 265.814 88.5802 265.36 88.5802C265.134 88.5802 264.907 88.5802 264.679 88.3531C264 88.1261 263.093 88.1261 262.412 88.1261C262.184 88.1261 261.958 88.1261 261.731 88.1261C261.277 88.1261 260.824 88.1261 260.37 88.1261C260.143 88.1261 259.689 88.1261 259.462 88.1261C259.008 88.1261 258.782 88.1261 258.328 88.1261C258.101 88.1261 257.647 88.1261 257.42 88.1261C257.194 88.1261 256.74 88.1261 256.513 88.1261C256.287 88.1261 255.832 88.1261 255.606 88.1261C255.378 88.1261 254.925 88.1261 254.699 88.1261C254.471 88.1261 254.018 88.1261 253.79 88.3531C253.337 88.3531 253.111 88.5802 252.657 88.5802C252.43 88.5802 252.202 88.5802 251.749 88.8072C251.295 88.8072 250.842 89.0344 250.614 89.0344C250.388 89.0344 250.161 89.2613 249.935 89.2613C249.254 89.4885 248.573 89.7155 247.893 89.9426C247.666 90.1696 247.212 90.1696 246.985 90.3966C246.758 90.3966 246.531 90.6237 246.531 90.6237C246.078 90.8507 245.624 91.0779 245.17 91.3049L220.442 105.61C219.763 105.61 218.854 105.609 218.175 105.382C217.947 105.382 217.721 105.382 217.721 105.382C216.813 105.382 215.68 105.382 214.771 105.382C214.545 105.382 214.545 105.382 214.318 105.382C213.411 105.382 212.503 105.382 211.595 105.61C211.595 105.61 211.595 105.61 211.369 105.61C210.462 105.61 209.553 105.837 208.42 105.837C208.193 105.837 208.193 105.837 207.965 105.837C207.058 106.064 206.151 106.064 205.244 106.291C205.017 106.291 204.791 106.291 204.563 106.518C204.336 106.518 204.11 106.745 203.656 106.745C203.429 106.745 202.975 106.972 202.748 106.972C202.522 106.972 202.294 107.199 201.841 107.199C201.614 107.199 201.387 107.426 201.16 107.426C200.706 107.653 200.253 107.653 200.026 107.88C199.799 107.88 199.573 108.107 199.345 108.107C198.892 108.334 198.438 108.334 197.985 108.561C197.757 108.561 197.757 108.788 197.53 108.788C196.85 109.015 196.169 109.469 195.488 109.697C195.262 109.697 195.262 109.924 195.035 109.924C194.355 110.378 193.674 110.605 192.993 111.059C190.498 112.421 188.683 114.011 187.096 115.6C185.734 116.962 184.827 118.325 184.373 119.914C184.146 120.141 184.146 120.595 184.146 120.822C183.92 121.276 183.92 121.73 183.92 121.958V126.953L163.729 138.533C164.183 138.76 164.863 138.76 165.317 138.987C165.544 138.987 165.77 138.987 165.998 139.213C166.451 139.213 166.679 139.44 167.132 139.44C167.358 139.44 167.586 139.44 167.813 139.44C168.267 139.44 168.493 139.44 168.946 139.668C169.174 139.668 169.401 139.668 169.627 139.668C170.081 139.668 170.534 139.668 170.988 139.668C171.215 139.668 171.215 139.668 171.443 139.668C171.896 139.668 172.576 139.668 173.031 139.668C173.257 139.668 173.257 139.668 173.484 139.668C173.938 139.668 174.391 139.668 174.618 139.668C174.845 139.668 175.072 139.668 175.298 139.668C175.752 139.668 175.979 139.668 176.433 139.668C176.66 139.668 176.887 139.668 177.114 139.668C177.568 139.668 178.021 139.668 178.247 139.44C178.475 139.44 178.475 139.44 178.702 139.44C179.156 139.44 179.835 139.213 180.29 139.213H180.516C180.97 139.213 181.423 138.987 181.878 138.76C182.104 138.76 182.332 138.76 182.332 138.533C182.785 138.533 183.011 138.306 183.465 138.079C183.692 138.079 183.92 137.851 183.92 137.851C184.373 137.624 184.599 137.624 184.827 137.397C185.053 137.397 185.053 137.17 185.28 137.17C185.734 136.943 186.187 136.717 186.641 136.49L211.369 122.185C221.123 122.866 231.333 121.276 238.818 116.735C244.036 113.556 247.212 109.697 248.119 105.837V100.841L268.31 89.2613C268.083 89.2613 267.855 89.0344 267.629 89.0344C266.948 89.0344 266.722 88.8072 266.495 88.8072Z" fill="#077753"/>
<path d="M183.464 106.062V121.956C183.464 121.501 183.691 121.047 183.691 120.82C183.691 120.593 183.917 120.139 183.917 119.912C184.598 118.323 185.505 116.96 186.64 115.598C188.228 114.009 190.042 112.419 192.539 111.057C193.218 110.603 193.899 110.376 194.58 109.922C194.806 109.922 194.806 109.694 195.034 109.694C195.713 109.467 196.394 109.013 197.075 108.786C197.301 108.786 197.301 108.559 197.529 108.559C197.982 108.332 198.436 108.332 198.889 108.105C199.117 108.105 199.343 107.878 199.57 107.878C200.024 107.651 200.251 107.651 200.705 107.424C200.931 107.424 201.159 107.197 201.386 107.197C201.612 107.197 201.839 106.97 202.293 106.97C202.519 106.97 202.973 106.743 203.2 106.743C203.428 106.743 203.654 106.516 204.107 106.516C204.335 106.516 204.561 106.516 204.788 106.289C205.695 106.062 206.602 105.835 207.511 105.835C207.737 105.835 207.737 105.835 207.964 105.835C208.871 105.607 209.778 105.607 210.913 105.607C210.913 105.607 210.913 105.607 211.14 105.607C212.047 105.607 212.955 105.38 213.863 105.38C214.089 105.38 214.089 105.38 214.317 105.38C215.224 105.38 216.358 105.38 217.265 105.38C217.493 105.38 217.719 105.38 217.719 105.38C218.4 105.38 219.307 105.38 219.988 105.607V84.7183C219.307 84.7183 218.4 84.7183 217.719 84.4913C217.493 84.4913 217.265 84.4913 217.265 84.4913C216.358 84.4913 215.224 84.4913 214.317 84.4913C214.089 84.4913 214.089 84.4913 213.863 84.4913C212.955 84.4913 212.047 84.4913 211.14 84.7183C211.14 84.7183 211.14 84.7183 210.913 84.7183C210.006 84.7183 209.099 84.9453 207.964 84.9453C207.737 84.9453 207.737 84.9453 207.511 84.9453C206.602 85.1724 205.695 85.1724 204.788 85.3994C204.561 85.3994 204.335 85.3994 204.107 85.6265C203.881 85.6265 203.654 85.8535 203.2 85.8535C202.973 85.8535 202.519 86.0807 202.293 86.0807C202.066 86.0807 201.839 86.3077 201.386 86.3077C201.159 86.3077 200.931 86.5348 200.705 86.5348C200.251 86.7618 199.798 86.7618 199.57 86.9889C199.343 86.9889 199.117 87.2159 198.889 87.2159C198.436 87.4429 197.982 87.4429 197.529 87.67C197.301 87.67 197.301 87.897 197.075 87.897C196.394 88.1242 195.713 88.5783 195.034 88.8053H194.806C194.806 88.8053 194.58 88.8053 194.58 89.0324C193.899 89.4864 193.218 89.7135 192.539 90.1677C192.084 90.3947 191.63 90.6218 191.177 90.8488C190.95 90.8488 190.95 91.0759 190.723 91.0759C190.496 91.3029 190.27 91.53 189.816 91.53C189.589 91.53 189.589 91.757 189.362 91.757C189.135 91.984 188.908 92.2112 188.681 92.2112C188.454 92.2112 188.454 92.4382 188.228 92.4382C188 92.6653 187.774 92.8923 187.547 92.8923C187.321 92.8923 187.321 93.1194 187.093 93.1194C186.866 93.3464 186.64 93.5735 186.412 93.8005L186.186 94.0275C185.959 94.2547 185.733 94.7088 185.505 94.9358C185.505 94.9358 185.505 94.9358 185.505 95.1629C185.278 95.3899 185.052 95.617 184.824 96.071L184.598 96.2982C184.371 96.5252 184.371 96.7523 184.145 96.9793C184.145 97.2064 183.917 97.2064 183.917 97.4334C183.917 97.6605 183.691 97.8875 183.691 98.1145C183.691 98.3417 183.464 98.3417 183.464 98.5687C183.464 98.7958 183.236 99.0228 183.236 99.2499C183.236 99.4769 183.236 99.4769 183.01 99.7041C183.01 99.9311 182.783 100.158 182.783 100.385V100.612C182.783 100.839 182.557 101.293 182.557 101.52V101.748C182.557 101.975 182.557 102.202 182.557 102.656C182.557 102.883 182.557 102.883 182.557 103.11C183.01 104.018 183.236 105.153 183.464 106.062Z" fill="#80DEA4" stroke="black" stroke-width="0.739567" stroke-miterlimit="10" stroke-linejoin="round"/>
<path d="M244.938 91.3041C245.393 91.077 245.847 90.85 246.3 90.6229C246.527 90.6229 246.527 90.3959 246.754 90.3959C246.981 90.1689 247.435 90.1689 247.661 89.9418C248.342 89.7148 249.023 89.4876 249.703 89.2606C249.93 89.2606 250.156 89.0335 250.384 89.0335C250.837 89.0335 251.291 88.8065 251.518 88.8065C251.744 88.8065 251.972 88.8065 252.425 88.5794C252.879 88.5794 253.106 88.3524 253.56 88.3524C253.786 88.3524 254.241 88.3524 254.467 88.1254C254.694 88.1254 255.148 88.1254 255.374 88.1254C255.601 88.1254 256.055 88.1254 256.282 88.1254C256.508 88.1254 256.962 88.1254 257.189 88.1254C257.416 88.1254 257.87 88.1254 258.096 88.1254C258.55 88.1254 258.777 88.1254 259.231 88.1254C259.458 88.1254 259.912 88.1254 260.138 88.1254C260.592 88.1254 261.046 88.1254 261.5 88.1254C261.726 88.1254 261.954 88.1254 262.18 88.1254C262.861 88.1254 263.768 88.3524 264.449 88.3524C264.676 88.3524 264.902 88.3524 265.13 88.5794C265.583 88.5794 265.809 88.8065 266.263 88.8065C266.49 88.8065 266.718 89.0335 266.944 89.0335C267.171 89.0335 267.397 89.2606 267.625 89.2606L272.162 86.5359C276.245 84.2654 278.286 81.0866 277.833 77.9077C277.833 77.6807 277.833 77.4536 277.833 77.2266C277.833 76.9996 277.833 76.7725 277.607 76.7725C277.607 76.5455 277.607 76.3183 277.379 76.0914C277.379 75.8642 277.153 75.8642 277.153 75.6372C277.153 75.4101 276.926 75.1831 276.926 74.9561C276.698 74.729 276.698 74.502 276.472 74.2748C276.245 74.0478 276.019 73.8207 275.791 73.3666C275.791 73.3666 275.791 73.3666 275.565 73.1396C275.338 72.9125 275.11 72.6855 274.657 72.2313C274.431 72.0043 274.203 72.0043 273.977 71.7772L273.75 71.5502L273.524 71.3231C273.296 71.0961 273.069 71.0961 272.843 70.869C272.615 70.642 272.389 70.642 272.162 70.415C271.708 70.1878 271.481 69.9608 271.027 69.7337C270.801 69.5067 270.574 69.5067 270.347 69.5067C270.12 69.5067 269.894 69.2796 269.894 69.2796C269.439 69.0526 268.985 68.8255 268.306 68.5985C268.078 68.5985 267.851 68.3715 267.625 68.3715C267.397 68.3715 266.944 68.1443 266.718 68.1443C266.49 68.1443 266.264 67.9173 266.037 67.9173C265.583 67.9173 265.356 67.6902 264.902 67.6902C264.676 67.6902 264.449 67.6902 264.221 67.4632C263.542 67.2361 262.633 67.2361 261.954 67.2361C261.726 67.2361 261.5 67.2361 261.273 67.2361C260.819 67.2361 260.366 67.2361 259.912 67.2361C259.685 67.2361 259.231 67.2361 259.004 67.2361C258.55 67.2361 258.324 67.2361 257.87 67.2361C257.643 67.2361 257.189 67.2361 256.962 67.2361C256.736 67.2361 256.282 67.2361 256.055 67.2361C255.829 67.2361 255.374 67.2361 255.148 67.2361C254.92 67.2361 254.467 67.2361 254.241 67.2361C254.013 67.2361 253.56 67.2361 253.332 67.4632C252.879 67.4632 252.653 67.6902 252.199 67.6902C251.972 67.6902 251.744 67.6902 251.291 67.9173C250.837 67.9173 250.384 68.1443 250.156 68.1443C249.93 68.1443 249.703 68.3715 249.477 68.3715C248.796 68.5985 248.115 68.8255 247.435 69.0526C247.207 69.2796 246.754 69.2796 246.527 69.5067C246.3 69.5067 246.3 69.7337 246.073 69.7337C245.619 69.9608 245.166 70.1878 244.712 70.415L219.984 84.7195V105.609L244.938 91.3041Z" fill="#97D6C3"/>
<path d="M183.465 121.956V106.062L183.237 106.289L158.964 120.367C158.509 120.594 158.056 121.048 157.602 121.275C157.376 121.275 157.376 121.502 157.149 121.502C156.922 121.729 156.695 121.956 156.468 122.183C156.241 122.41 156.241 122.41 156.014 122.637C155.788 122.864 155.56 123.091 155.334 123.318C155.107 123.545 155.107 123.545 154.879 123.772C154.653 124 154.653 124.227 154.426 124.227C154.426 124.454 154.2 124.454 154.2 124.681C153.972 124.908 153.972 125.135 153.746 125.362C153.746 125.589 153.519 125.589 153.519 125.816C153.519 126.043 153.291 126.27 153.291 126.497C153.291 126.724 153.291 126.724 153.065 126.951C153.065 127.178 153.065 127.405 152.838 127.632C152.838 127.859 152.838 127.859 152.838 128.087C152.838 128.314 152.838 128.541 152.838 128.768C152.838 131.719 154.653 134.671 158.509 136.714C159.871 137.623 161.459 138.303 163.273 138.758L183.465 127.178V121.956Z" fill="#97D6C3"/>
<mask id="mask1_659_7637" style="mask-type:luminance" maskUnits="userSpaceOnUse" x="159" y="0" width="109" height="140">
<path d="M267.186 89.0323C266.958 89.0323 266.732 88.8053 266.505 88.8053C266.051 88.8053 265.825 88.5783 265.37 88.5783C265.144 88.5783 264.917 88.5783 264.69 88.3512C264.01 88.1242 263.102 88.1242 262.421 88.1242C262.195 88.1242 261.968 88.1242 261.74 88.1242C261.287 88.1242 260.833 88.1242 260.38 88.1242C260.152 88.1242 259.699 88.1242 259.473 88.1242C259.019 88.1242 258.792 88.1242 258.338 88.1242C258.111 88.1242 257.657 88.1242 257.431 88.1242C257.204 88.1242 256.75 88.1242 256.523 88.1242C256.297 88.1242 255.843 88.1242 255.616 88.1242C255.39 88.1242 254.935 88.1242 254.709 88.1242C254.481 88.1242 254.028 88.1242 253.802 88.3512C253.348 88.3512 253.121 88.5783 252.667 88.5783C252.44 88.5783 252.213 88.5783 251.76 88.8053C251.532 88.8053 251.532 88.8053 251.305 88.8053C257.885 69.0514 259.245 46.5729 253.574 29.0894C249.263 15.6932 241.551 7.74615 232.477 5.47559L231.796 5.24854L209.111 0.480347V0.707402C200.262 -0.42788 190.508 3.65913 181.434 13.6497C162.152 34.993 153.984 74.9549 162.831 102.656C166.916 115.371 174.175 123.318 182.568 126.043V126.27H183.022V127.178L162.831 138.757C163.286 138.985 163.966 138.985 164.419 139.212C164.647 139.212 164.873 139.212 165.1 139.439C165.554 139.439 165.781 139.666 166.235 139.666C166.461 139.666 166.688 139.666 166.916 139.666C167.369 139.666 167.595 139.666 168.049 139.893C168.276 139.893 168.504 139.893 168.73 139.893C169.183 139.893 169.637 139.893 170.091 139.893C170.318 139.893 170.318 139.893 170.545 139.893C170.999 139.893 171.679 139.893 172.133 139.893C172.36 139.893 172.36 139.893 172.587 139.893C173.041 139.893 173.494 139.893 173.72 139.893C173.948 139.893 174.175 139.893 174.401 139.893C174.855 139.893 175.082 139.893 175.536 139.893C175.763 139.893 175.989 139.893 176.217 139.893C176.67 139.893 177.124 139.893 177.351 139.666C177.577 139.666 177.577 139.666 177.805 139.666C178.258 139.666 178.938 139.439 179.393 139.439H179.619C180.072 139.439 180.526 139.212 180.981 138.985C181.207 138.985 181.434 138.985 181.434 138.757C181.888 138.757 182.114 138.53 182.568 138.303C182.795 138.303 183.022 138.077 183.022 138.077C183.476 137.85 183.702 137.85 183.93 137.623C184.156 137.623 184.156 137.396 184.383 137.396C184.837 137.168 185.29 136.941 185.744 136.714L198.221 129.448L210.472 122.41C218.638 123.091 227.032 121.729 234.065 118.777C235.426 118.096 236.786 117.641 238.148 116.96C243.366 113.781 246.542 109.922 247.449 106.062V101.066L267.639 89.4864C267.639 89.2594 267.413 89.0323 267.186 89.0323Z" fill="white"/>
</mask>
<g mask="url(#mask1_659_7637)">
<path d="M206.389 130.809L208.884 119.001C210.7 117.412 212.741 115.595 214.557 113.552C233.839 92.2087 242.006 52.2467 233.159 24.5458C232.251 22.0482 231.343 19.7777 230.21 17.5071L232.705 5.24607L209.565 0.250824V0.47788C200.718 -0.657402 190.963 3.42962 181.888 13.42C162.606 34.7635 154.439 74.7253 163.287 102.426C167.37 115.141 174.629 123.088 183.023 125.813V126.04L206.389 130.809Z" fill="#077753"/>
<path d="M255.241 75.403C262.344 40.6353 251.882 9.13147 231.874 5.0373C211.867 0.943142 189.89 25.809 182.788 60.5767C175.685 95.3444 186.148 126.848 206.155 130.942C226.163 135.037 248.14 110.171 255.241 75.403Z" fill="white"/>
<path d="M248.577 74.0393C254.349 45.7828 245.793 20.1683 229.468 16.8278C213.143 13.4871 195.23 33.6853 189.458 61.9418C183.686 90.1983 192.241 115.813 208.566 119.153C224.891 122.494 242.805 102.296 248.577 74.0393Z" fill="#CBEBE1"/>
</g>
<path d="M402.844 350.371L489.957 400.778L338.644 488.648L251.531 438.242L402.844 350.371ZM352.936 471.392L459.332 409.633C450.484 404.41 449.577 396.69 457.516 391.922C457.971 391.695 458.197 391.468 458.651 391.468L419.178 368.535C418.952 368.762 418.497 368.99 418.271 369.217C410.331 373.758 396.719 373.303 387.872 368.308L281.477 430.295C290.324 435.517 291.004 443.237 283.065 448.005L322.538 470.711C330.251 465.942 343.862 466.397 352.936 471.392Z" fill="white"/>
<path d="M402.844 336.292L489.957 386.7L338.644 474.571L251.531 424.163L402.844 336.292ZM352.936 457.315L459.332 395.554C450.484 390.332 449.577 382.612 457.516 377.844C457.971 377.617 458.197 377.391 458.651 377.391L419.178 354.457C418.952 354.684 418.497 354.911 418.271 355.138C410.331 359.679 396.719 359.226 387.872 354.231L281.477 416.216C290.324 421.439 291.004 429.159 283.065 433.928L322.538 456.633C330.251 451.864 343.862 452.091 352.936 457.315Z" fill="white"/>
<path d="M459.325 395.33L352.929 457.317C344.081 452.094 330.244 451.867 322.531 456.408L283.057 433.703C290.997 429.162 290.316 421.215 281.469 415.992L387.865 354.006C396.712 359.228 410.324 359.455 418.264 354.914C418.718 354.687 418.944 354.46 419.171 354.233L458.644 377.166C458.19 377.393 457.737 377.393 457.509 377.62C449.57 382.388 450.25 390.335 459.325 395.33ZM332.966 427.346C350.887 437.789 382.421 436.2 403.291 424.167C424.161 411.906 426.658 393.741 408.736 383.297C390.813 372.852 359.281 374.441 338.41 386.476C317.539 398.736 315.044 417.128 332.966 427.346Z" fill="#8ECC37"/>
<path d="M402.844 321.987L489.957 372.393L338.644 460.264L251.531 409.857L402.844 321.987ZM352.71 443.234L459.104 381.475C450.257 376.252 449.35 368.534 457.29 363.765C457.744 363.537 457.971 363.31 458.425 363.31L418.952 340.379C418.724 340.605 418.271 340.832 418.043 341.059C410.104 345.6 396.493 345.147 387.646 340.15L281.25 402.137C290.097 407.359 290.778 415.079 282.838 419.847L322.31 442.554C330.251 437.559 343.862 438.012 352.71 443.234Z" fill="white"/>
<path d="M459.101 381.247L352.705 443.234C343.857 438.011 330.246 437.784 322.307 442.326L282.833 419.62C290.773 415.079 290.093 407.132 281.246 401.909L387.641 339.923C396.488 345.145 410.1 345.372 418.04 340.831C418.494 340.604 418.72 340.377 418.947 340.15L458.42 363.082C457.966 363.31 457.513 363.31 457.285 363.537C449.572 368.305 450.253 376.025 459.101 381.247ZM332.968 413.262C350.891 423.707 382.423 422.117 403.294 410.083C424.165 397.823 426.66 379.658 408.739 369.213C390.817 358.769 359.284 360.359 338.414 372.392C317.543 384.653 315.048 402.818 332.968 413.262Z" fill="#8ECC37"/>
<path d="M408.742 355.137C426.665 365.58 424.169 383.745 403.299 396.007C382.428 408.268 350.895 409.629 332.973 399.185C315.051 388.74 317.547 370.577 338.418 358.542C359.288 346.281 390.822 344.692 408.742 355.137ZM386.285 391.239L389.914 393.282L397.174 389.194L393.544 387.151L396.946 385.108V377.388L389.914 373.3L383.562 372.166L359.969 377.615L357.927 377.161L356.567 376.479V374.436L365.414 369.214L374.261 366.716L369.497 361.04L359.515 363.991L356.567 365.809L352.937 363.764L345.678 367.852L349.307 369.895L345.678 371.938V379.658L352.709 383.745L359.062 384.881L382.655 379.431L384.697 379.886L386.057 380.567V382.61L377.21 387.833L368.363 390.33L373.127 396.007L383.109 393.055L386.285 391.239Z" fill="#278704"/>
<path d="M402.844 307.912L489.957 358.318L338.644 446.189L251.531 395.783L402.844 307.912ZM352.936 428.933L459.332 367.174C450.484 361.952 449.577 354.232 457.516 349.464C457.971 349.236 458.197 349.009 458.651 349.009L419.178 326.077C418.952 326.304 418.497 326.531 418.271 326.757C410.331 331.299 396.719 330.845 387.872 325.849L281.477 387.836C290.324 393.058 291.004 400.778 283.065 405.546L322.538 428.252C330.251 423.484 343.862 423.938 352.936 428.933Z" fill="white"/>
<path d="M459.325 367.17L352.929 429.155C344.081 423.934 330.244 423.707 322.531 428.248L283.057 405.542C290.997 401.002 290.316 393.054 281.469 387.832L387.865 325.846C396.712 331.068 410.324 331.295 418.264 326.753C418.718 326.527 418.944 326.3 419.171 326.073L458.644 349.005C458.19 349.233 457.737 349.233 457.509 349.46C449.57 354.001 450.25 361.948 459.325 367.17ZM332.966 399.184C350.887 409.629 382.421 408.04 403.291 396.005C424.161 383.745 426.658 365.58 408.736 355.135C390.813 344.692 359.281 346.281 338.41 358.314C317.539 370.575 315.044 388.74 332.966 399.184Z" fill="#8ECC37"/>
<path d="M408.742 340.836C426.665 351.281 424.169 369.446 403.299 381.708C382.428 393.968 350.895 395.33 332.973 384.886C315.051 374.441 317.547 356.276 338.418 344.243C359.288 331.982 390.822 330.619 408.742 340.836ZM386.285 377.166L389.914 379.209L397.174 375.122L393.544 373.079L396.946 371.036V363.316L389.914 359.228L383.562 358.094L359.969 363.543L357.927 363.089L356.567 362.407V360.364L365.414 355.142L374.261 352.644L369.497 346.967L359.515 349.919L356.567 351.508L352.937 349.465L345.678 353.553L349.307 355.596L345.678 357.639V365.359L352.709 369.446L359.062 370.581L382.655 365.132L384.697 365.586L386.057 366.268V368.311L377.21 373.533L368.363 376.031L373.127 381.708L383.109 378.756L386.285 377.166Z" fill="#278704"/>
<path d="M402.844 293.839L489.957 344.246L338.644 432.116L251.531 381.71L402.844 293.839ZM352.936 414.86L459.332 353.1C450.484 347.878 449.577 340.158 457.516 335.39C457.971 335.163 458.197 334.936 458.651 334.936L419.178 312.003C418.952 312.23 418.497 312.457 418.271 312.685C410.331 317.226 396.719 316.771 387.872 311.776L281.477 373.763C290.324 378.985 291.004 386.705 283.065 391.473L322.538 414.178C330.251 409.41 343.862 409.637 352.936 414.86Z" fill="white"/>
<path d="M459.325 352.873L352.929 414.859C344.081 409.637 330.244 409.41 322.531 413.951L283.057 391.245C290.997 386.705 290.316 378.757 281.469 373.535L387.865 311.549C396.712 316.771 410.324 316.998 418.264 312.457C418.718 312.23 418.944 312.003 419.171 311.776L458.644 334.708C458.19 334.936 457.737 334.936 457.509 335.163C449.57 339.931 450.25 347.878 459.325 352.873ZM332.966 384.888C350.887 395.333 382.421 393.743 403.291 381.709C424.161 369.449 426.658 351.284 408.736 340.839C390.813 330.395 359.281 331.984 338.41 344.018C317.539 356.279 315.044 374.671 332.966 384.888Z" fill="#8ECC37"/>
<path d="M408.742 326.757C426.665 337.201 424.169 355.366 403.299 367.627C382.428 379.889 350.895 381.251 332.973 370.806C315.051 360.361 317.547 342.197 338.418 330.163C359.288 317.902 390.822 316.539 408.742 326.757ZM386.285 362.859L389.914 364.902L397.174 360.816L393.544 358.772L397.174 356.729V349.009L390.141 344.921L383.788 343.787L360.196 349.236L358.155 348.782L356.793 348.1V346.057L365.64 340.835L374.487 338.337L369.723 332.661L359.743 335.612L356.793 337.201L353.163 335.158L345.904 339.246L349.533 341.289L346.131 343.332V351.052L353.163 355.139L359.515 356.275L383.109 350.825L385.15 351.279L386.511 351.961V354.004L377.664 359.227L368.816 361.724L373.58 367.401L383.562 364.449L386.285 362.859Z" fill="#278704"/>
<path d="M402.844 279.532L489.957 329.939L338.644 418.038L251.531 367.63L402.844 279.532ZM352.71 400.781L459.104 339.021C450.257 333.799 449.35 326.079 457.29 321.311C457.744 321.084 457.971 320.857 458.425 320.857L419.178 297.697C418.952 297.924 418.497 298.151 418.271 298.378C410.331 302.919 396.719 302.466 387.872 297.471L281.477 359.456C290.324 364.678 291.004 372.398 283.065 377.166L322.538 399.873C330.251 395.104 343.862 395.558 352.71 400.781Z" fill="white"/>
<path d="M459.101 338.791L352.705 400.777C343.857 395.554 330.246 395.327 322.307 399.869L282.833 377.164C290.773 372.622 290.093 364.676 281.246 359.452L387.641 297.467C396.488 302.689 410.1 302.915 418.04 298.374C418.494 298.147 418.72 297.92 418.947 297.694L458.42 320.625C457.966 320.854 457.513 320.854 457.285 321.08C449.572 325.849 450.253 333.796 459.101 338.791ZM332.968 370.805C350.891 381.25 382.423 379.661 403.294 367.626C424.165 355.366 426.66 337.201 408.739 326.756C390.817 316.312 359.284 317.902 338.414 329.935C317.543 342.196 315.048 360.361 332.968 370.805Z" fill="#8ECC37"/>
<path d="M402.844 265.452L489.957 315.859L338.644 403.729L251.531 353.323L402.844 265.452ZM352.936 386.473L459.332 324.713C450.484 319.491 449.577 311.771 457.516 307.003C457.971 306.776 458.197 306.549 458.651 306.549L419.178 283.616C418.952 283.843 418.497 284.07 418.271 284.298C410.331 288.838 396.719 288.384 387.872 283.389L281.477 345.375C290.324 350.598 291.004 358.318 283.065 363.086L322.538 385.791C330.251 381.023 343.862 381.478 352.936 386.473Z" fill="#045137"/>
<path d="M408.742 312.68C390.822 302.236 359.288 303.825 338.418 315.859C317.547 328.12 315.051 346.285 332.973 356.502C350.895 366.947 382.428 365.357 403.299 353.323C424.169 341.289 426.665 322.898 408.742 312.68ZM374.034 324.261L365.186 326.757L356.339 331.981V334.024L357.701 334.704L356.567 334.024V331.981L365.414 326.757L374.034 324.261Z" fill="white"/>
<path d="M399.665 317.906C386.054 309.957 362.234 311.093 346.354 320.402C330.474 329.712 328.659 343.562 342.27 351.282C355.882 359.229 379.702 358.094 395.582 348.784C411.461 339.702 413.277 325.852 399.665 317.906Z" fill="#97D6C3"/>
<path d="M459.325 324.709L352.929 386.696C344.081 381.474 330.244 381.246 322.531 385.787L283.057 363.082C290.997 358.541 290.316 350.594 281.469 345.372L387.865 283.385C396.712 288.607 410.324 288.835 418.264 284.294C418.718 284.066 418.944 283.839 419.171 283.612L458.644 306.545C458.19 306.772 457.737 306.772 457.509 306.999C449.57 311.54 450.25 319.487 459.325 324.709ZM332.966 356.725C350.887 367.169 382.421 365.579 403.291 353.546C424.161 341.285 426.658 323.12 408.736 312.676C390.813 302.231 359.281 303.82 338.41 315.855C317.539 328.116 315.044 346.28 332.966 356.725Z" fill="white"/>
<path d="M338.871 403.729L338.644 412.358L251.531 362.179V353.55L338.871 403.729Z" fill="#045137"/>
</g>
</g>
<defs>
<clipPath id="clip0_659_7637">
<rect width="359.437" height="355.947" fill="white" transform="translate(0.806641 0.25705)"/>
</clipPath>
</defs>
</svg>
