<svg width="27" height="26" viewBox="0 0 27 26" fill="none" xmlns="http://www.w3.org/2000/svg">
<mask id="mask0_659_7342" style="mask-type:alpha" maskUnits="userSpaceOnUse" x="0" y="6" width="14" height="14">
<circle cx="7.02873" cy="12.8622" r="6.4926" fill="#FCFCFC"/>
</mask>
<g mask="url(#mask0_659_7342)">
<rect width="5.7712" height="15.1494" transform="translate(0.535156 5.64856)" fill="#15925C"/>
<rect width="5.7712" height="15.1494" transform="translate(4.86426 5.64856)" fill="white"/>
<rect width="5.7712" height="15.1494" transform="translate(9.19141 5.64856)" fill="#15925C"/>
</g>
<path d="M20.0151 19.3547C23.6131 19.3547 26.5077 16.4601 26.5077 12.8621C26.5077 9.2641 23.6131 6.36951 20.0151 6.36951C16.4171 6.36951 13.5225 9.2641 13.5225 12.8621C13.5225 16.4601 16.4171 19.3547 20.0151 19.3547Z" fill="#2775CA"/>
<path d="M21.8008 13.8901C21.8008 12.9433 21.2327 12.6187 20.0965 12.4834C19.2849 12.3752 19.1226 12.1588 19.1226 11.78C19.1226 11.4012 19.3931 11.1578 19.9342 11.1578C20.4211 11.1578 20.6917 11.3201 20.8269 11.7259C20.854 11.8071 20.9351 11.8612 21.0163 11.8612H21.4491C21.5573 11.8612 21.6385 11.78 21.6385 11.6719V11.6448C21.5302 11.0496 21.0433 10.5897 20.4211 10.5356V9.88639C20.4211 9.77815 20.34 9.697 20.2047 9.66992H19.7989C19.6907 9.66992 19.6095 9.75108 19.5825 9.88639V10.5086C18.7709 10.6168 18.2569 11.1578 18.2569 11.8342C18.2569 12.7269 18.798 13.0785 19.9342 13.2138C20.6917 13.3491 20.9351 13.5114 20.9351 13.9443C20.9351 14.3771 20.5564 14.6747 20.0424 14.6747C19.339 14.6747 19.0955 14.3771 19.0144 13.9713C18.9874 13.8631 18.9062 13.809 18.825 13.809H18.3651C18.2569 13.809 18.1758 13.8901 18.1758 13.9983V14.0254C18.2839 14.7017 18.7168 15.1886 19.6095 15.3239V15.9732C19.6095 16.0814 19.6907 16.1625 19.8259 16.1896H20.2317C20.34 16.1896 20.4211 16.1084 20.4482 15.9732V15.3239C21.2598 15.1886 21.8008 14.6205 21.8008 13.8901Z" fill="white"/>
<path d="M21.2599 8.39844C21.2869 8.29028 21.3949 8.23605 21.5031 8.29004C22.9909 8.77698 24.1811 9.94045 24.6681 11.4824C25.4797 14.0524 24.073 16.7851 21.5031 17.5967C21.4759 17.6235 21.4217 17.623 21.3947 17.623C21.2867 17.596 21.2326 17.5152 21.2325 17.4072V17.0283C21.2325 16.8931 21.2866 16.8119 21.3947 16.7578C22.5038 16.352 23.3971 15.4858 23.8029 14.3496C24.5871 12.2666 23.5046 9.91362 21.3947 9.15625C21.3136 9.10216 21.2327 8.99386 21.2325 8.88574V8.50684C21.2325 8.45269 21.2328 8.42551 21.2599 8.39844ZM18.6349 8.26367C18.7431 8.29067 18.7979 8.37135 18.798 8.47949V8.8584C18.798 8.99369 18.7431 9.07483 18.6349 9.12891C17.5261 9.53471 16.6335 10.4003 16.2277 11.5361C15.4432 13.6191 16.5251 15.9729 18.6349 16.7305C18.716 16.7846 18.798 16.8935 18.798 16.9746V17.3525C18.798 17.4066 18.7976 17.434 18.7706 17.4609C18.7436 17.5691 18.6356 17.6232 18.5275 17.5693C17.0126 17.0824 15.8494 15.9191 15.3624 14.4043C14.5509 11.8343 15.9575 9.10161 18.5275 8.29004C18.5545 8.26348 18.6078 8.26367 18.6349 8.26367Z" fill="white"/>
<path d="M19.9123 20.419C19.4822 23.1148 16.3647 24.8545 12.9422 24.3084C9.51973 23.7624 7.86991 20.7165 7.86991 20.7165M7.86991 20.7165L10.6619 21.1619M7.86991 20.7165L7.48082 23.1551M6.79409 5.02824C7.22421 2.33239 10.3192 0.589154 13.7642 1.1388C17.896 1.798 19.5233 4.84029 19.5233 4.84029M19.5233 4.84029L19.9123 2.40161M19.5233 4.84029L16.7763 4.40202" stroke="#077753" stroke-width="1.0821" stroke-linecap="round" stroke-linejoin="round"/>
</svg>
