<svg width="24" height="24" viewBox="0 0 24 24" fill="none" xmlns="http://www.w3.org/2000/svg">
<path d="M16.6788 21.4656H7.26924C3.50541 21.4656 2.56445 20.5246 2.56445 16.7608V14.8789C2.56445 11.115 3.50541 10.1741 7.26924 10.1741H16.6788C20.4426 10.1741 21.3836 11.115 21.3836 14.8789V16.7608C21.3836 20.5246 20.4426 21.4656 16.6788 21.4656Z" stroke="#079669" stroke-width="1.69372" stroke-linecap="round" stroke-linejoin="round"/>
<path d="M6.32812 10.1736V8.29174C6.32812 5.17717 7.26908 2.646 11.9739 2.646C16.2082 2.646 17.6196 4.52791 17.6196 7.35078" stroke="#079669" stroke-width="1.69372" stroke-linecap="round" stroke-linejoin="round"/>
<path d="M11.9745 18.1719C13.2737 18.1719 14.3269 17.1187 14.3269 15.8196C14.3269 14.5204 13.2737 13.4672 11.9745 13.4672C10.6753 13.4672 9.62207 14.5204 9.62207 15.8196C9.62207 17.1187 10.6753 18.1719 11.9745 18.1719Z" stroke="#079669" stroke-width="1.69372" stroke-linecap="round" stroke-linejoin="round"/>
</svg>
