<svg width="18" height="18" viewBox="0 0 18 18" fill="none" xmlns="http://www.w3.org/2000/svg">
<mask id="mask0_299_10218" style="mask-type:alpha" maskUnits="userSpaceOnUse" x="0" y="0" width="18" height="18">
<circle cx="9" cy="9" r="9" fill="#FCFCFC"/>
</mask>
<g mask="url(#mask0_299_10218)">
<path d="M9 18C13.9875 18 18 13.9875 18 9C18 4.01247 13.9875 0 9 0C4.01247 0 0 4.01247 0 9C0 13.9875 4.01247 18 9 18Z" fill="#2775CA"/>
<path d="M11.4742 10.4252C11.4742 9.11273 10.6867 8.66272 9.11169 8.47526C7.98669 8.32523 7.76169 8.02526 7.76169 7.5002C7.76169 6.97514 8.13672 6.63773 8.88669 6.63773C9.56169 6.63773 9.93672 6.86273 10.1242 7.42523C10.1617 7.53773 10.2742 7.6127 10.3867 7.6127H10.9867C11.1367 7.6127 11.2492 7.5002 11.2492 7.35026V7.31273C11.0992 6.4877 10.4242 5.85023 9.56169 5.77526V4.87526C9.56169 4.72523 9.44919 4.61273 9.26172 4.5752H8.69922C8.54919 4.5752 8.43669 4.6877 8.39916 4.87526V5.73773C7.27416 5.88776 6.56172 6.63773 6.56172 7.57526C6.56172 8.81276 7.31169 9.3002 8.88669 9.48776C9.93672 9.67523 10.2742 9.90023 10.2742 10.5003C10.2742 11.1003 9.74916 11.5128 9.03672 11.5128C8.06166 11.5128 7.72416 11.1002 7.61166 10.5377C7.57422 10.3878 7.46172 10.3127 7.34922 10.3127H6.71166C6.56172 10.3127 6.44922 10.4252 6.44922 10.5752V10.6128C6.59916 11.5502 7.19919 12.2252 8.43669 12.4128V13.3128C8.43669 13.4627 8.54919 13.5752 8.73666 13.6127H9.29916C9.44919 13.6127 9.56169 13.5002 9.59922 13.3128V12.4128C10.7242 12.2252 11.4742 11.4377 11.4742 10.4252Z" fill="white"/>
<path d="M10.7255 2.8125C10.7629 2.6625 10.9134 2.58721 11.0634 2.66211C13.1257 3.33708 14.776 4.94956 15.4511 7.08691C16.5761 10.6494 14.6258 14.4375 11.0634 15.5625C11.0258 15.5998 10.9505 15.5996 10.913 15.5996C10.7632 15.5621 10.6884 15.4497 10.6884 15.2998V14.7744C10.6885 14.5872 10.7632 14.4743 10.913 14.3994C12.4504 13.8369 13.6884 12.6374 14.2509 11.0625C15.3384 8.17494 13.838 4.91224 10.913 3.8623C10.8006 3.78718 10.6884 3.63721 10.6884 3.4873V2.96191C10.6884 2.88734 10.6883 2.84986 10.7255 2.8125ZM7.08877 2.625C7.23852 2.66254 7.31338 2.77491 7.31338 2.9248V3.4502C7.31326 3.63743 7.23858 3.75028 7.08877 3.8252C5.55134 4.38768 4.3134 5.58718 3.75088 7.16211C2.66332 10.0497 4.16377 13.3124 7.08877 14.3623C7.20117 14.4374 7.31338 14.5878 7.31338 14.7002V15.2246C7.31338 15.2995 7.3137 15.3376 7.27627 15.375C7.23878 15.525 7.08837 15.5994 6.93838 15.5244C4.83855 14.8494 3.22573 13.2375 2.55068 11.1377C1.42568 7.57523 3.37591 3.78711 6.93838 2.66211C6.97594 2.62477 7.05127 2.625 7.08877 2.625Z" fill="white"/>
</g>
</svg>
