<svg width="14" height="14" viewBox="0 0 14 14" fill="none" xmlns="http://www.w3.org/2000/svg">
<path d="M12.6 9.66004V10.16C12.8762 10.16 13.1 9.93618 13.1 9.66004H12.6ZM12.6 6.58004H13.1C13.1 6.3039 12.8762 6.08004 12.6 6.08004V6.58004ZM4.20965 3.63945C3.97736 3.78878 3.91011 4.09813 4.05943 4.33042C4.20876 4.5627 4.51812 4.62995 4.7504 4.48063L4.20965 3.63945ZM8.40002 1.54004L8.7947 1.23307C8.63582 1.0288 8.34733 0.97951 8.12964 1.11945L8.40002 1.54004ZM9.96535 4.36701C10.1349 4.58498 10.449 4.62425 10.667 4.45472C10.885 4.28518 10.9242 3.97104 10.7547 3.75307L9.96535 4.36701ZM12.6 9.66004V9.16004H10.78V9.66004V10.16H12.6V9.66004ZM10.78 6.58004V7.08004H12.6V6.58004V6.08004H10.78V6.58004ZM12.6 6.58004H12.1V9.66004H12.6H13.1V6.58004H12.6ZM9.24002 8.12004H9.74002C9.74002 7.54566 10.2056 7.08004 10.78 7.08004V6.58004V6.08004C9.65336 6.08004 8.74002 6.99338 8.74002 8.12004H9.24002ZM10.78 9.66004V9.16004C10.2056 9.16004 9.74002 8.69442 9.74002 8.12004H9.24002H8.74002C8.74002 9.2467 9.65336 10.16 10.78 10.16V9.66004ZM4.48002 4.06004L4.7504 4.48063L8.6704 1.96063L8.40002 1.54004L8.12964 1.11945L4.20965 3.63945L4.48002 4.06004ZM8.40002 1.54004L8.00535 1.84701L9.96535 4.36701L10.36 4.06004L10.7547 3.75307L8.7947 1.23307L8.40002 1.54004ZM1.96002 4.06004V4.56004H11.48V4.06004V3.56004H1.96002V4.06004ZM11.48 12.46V11.96H1.96002V12.46V12.96H11.48V12.46ZM1.40002 11.9H1.90002V4.62004H1.40002H0.900024V11.9H1.40002ZM1.96002 12.46V11.96C1.92689 11.96 1.90002 11.9332 1.90002 11.9H1.40002H0.900024C0.900024 12.4855 1.3746 12.96 1.96002 12.96V12.46ZM12.04 11.9H11.54C11.54 11.9332 11.5132 11.96 11.48 11.96V12.46V12.96C12.0654 12.96 12.54 12.4855 12.54 11.9H12.04ZM11.48 4.06004V4.56004C11.5132 4.56004 11.54 4.5869 11.54 4.62004H12.04H12.54C12.54 4.03462 12.0654 3.56004 11.48 3.56004V4.06004ZM1.96002 4.06004V3.56004C1.3746 3.56004 0.900024 4.03462 0.900024 4.62004H1.40002H1.90002C1.90002 4.5869 1.92689 4.56004 1.96002 4.56004V4.06004ZM12.04 10.08H11.54V11.9H12.04H12.54V10.08H12.04ZM12.04 4.62004H11.54V6.09004H12.04H12.54V4.62004H12.04Z" fill="#99A2B7"/>
</svg>
