<svg width="24" height="24" viewBox="0 0 24 24" fill="none" xmlns="http://www.w3.org/2000/svg">
<path d="M21.6004 16.5601V17.5601C22.1527 17.5601 22.6004 17.1124 22.6004 16.5601H21.6004ZM21.6004 11.2801H22.6004C22.6004 10.7279 22.1527 10.2801 21.6004 10.2801V11.2801ZM7.13963 6.11896C6.67506 6.41761 6.54056 7.03633 6.83921 7.5009C7.13786 7.96547 7.75658 8.09997 8.22115 7.80132L7.13963 6.11896ZM14.4004 2.64014L15.1897 2.0262C14.872 1.61765 14.295 1.51908 13.8596 1.79896L14.4004 2.64014ZM16.971 7.57408C17.3101 8.01003 17.9384 8.08856 18.3743 7.74949C18.8103 7.41042 18.8888 6.78214 18.5497 6.3462L16.971 7.57408ZM21.6004 16.5601V15.5601H18.4804V16.5601V17.5601H21.6004V16.5601ZM18.4804 11.2801V12.2801H21.6004V11.2801V10.2801H18.4804V11.2801ZM21.6004 11.2801H20.6004V16.5601H21.6004H22.6004V11.2801H21.6004ZM15.8404 13.9201H16.8404C16.8404 13.0144 17.5746 12.2801 18.4804 12.2801V11.2801V10.2801C16.4701 10.2801 14.8404 11.9098 14.8404 13.9201H15.8404ZM18.4804 16.5601V15.5601C17.5746 15.5601 16.8404 14.8259 16.8404 13.9201H15.8404H14.8404C14.8404 15.9305 16.4701 17.5601 18.4804 17.5601V16.5601ZM7.68039 6.96014L8.22115 7.80132L14.9411 3.48132L14.4004 2.64014L13.8596 1.79896L7.13963 6.11896L7.68039 6.96014ZM14.4004 2.64014L13.611 3.25408L16.971 7.57408L17.7604 6.96014L18.5497 6.3462L15.1897 2.0262L14.4004 2.64014ZM3.36039 6.96014V7.96014H19.6804V6.96014V5.96014H3.36039V6.96014ZM19.6804 21.3601V20.3601H3.36039V21.3601V22.3601H19.6804V21.3601ZM2.40039 20.4001H3.40039V7.92014H2.40039H1.40039V20.4001H2.40039ZM3.36039 21.3601V20.3601C3.38248 20.3601 3.40039 20.378 3.40039 20.4001H2.40039H1.40039C1.40039 21.4826 2.27791 22.3601 3.36039 22.3601V21.3601ZM20.6404 20.4001H19.6404C19.6404 20.378 19.6583 20.3601 19.6804 20.3601V21.3601V22.3601C20.7629 22.3601 21.6404 21.4826 21.6404 20.4001H20.6404ZM19.6804 6.96014V7.96014C19.6583 7.96014 19.6404 7.94223 19.6404 7.92014H20.6404H21.6404C21.6404 6.83766 20.7629 5.96014 19.6804 5.96014V6.96014ZM3.36039 6.96014V5.96014C2.27791 5.96014 1.40039 6.83766 1.40039 7.92014H2.40039H3.40039C3.40039 7.94223 3.38248 7.96014 3.36039 7.96014V6.96014ZM20.6404 17.2801H19.6404V20.4001H20.6404H21.6404V17.2801H20.6404ZM20.6404 7.92014H19.6404V10.4401H20.6404H21.6404V7.92014H20.6404Z" fill="#079669"/>
</svg>
