<svg width="21" height="21" viewBox="0 0 21 21" fill="none" xmlns="http://www.w3.org/2000/svg">
<path d="M15.5225 19.9062H6.68501C6.41376 19.9062 6.16877 19.74 6.07252 19.4775C5.97627 19.215 6.04626 18.935 6.25626 18.7512C6.86876 18.2087 7.22751 17.43 7.22751 16.6162C7.22751 15.05 5.95001 13.7725 4.38376 13.7725C3.73626 13.7725 3.12376 13.9912 2.60751 14.4025C2.40626 14.56 2.14377 14.5862 1.91627 14.4812C1.68877 14.3762 1.54877 14.14 1.54877 13.8862V10.0625C1.54877 7.88372 3.31626 6.11621 5.49501 6.11621H15.54C17.7188 6.11621 19.4863 7.88372 19.4863 10.0625V11.3225C19.4863 11.6812 19.1888 11.9787 18.83 11.9787H17.0625C16.7563 11.9787 16.4763 12.0925 16.275 12.3025L16.2663 12.3112C16.0213 12.5475 15.9075 12.8712 15.9338 13.2037C15.9863 13.7812 16.5375 14.245 17.1675 14.245H18.83C19.1888 14.245 19.4863 14.5425 19.4863 14.9012V15.9424C19.4688 18.1387 17.7013 19.9062 15.5225 19.9062ZM8.03251 18.5937H15.5225C16.975 18.5937 18.1563 17.4125 18.1563 15.96V15.575H17.15C15.8288 15.575 14.7088 14.595 14.6038 13.335C14.5338 12.6175 14.7963 11.9087 15.3213 11.3925C15.7763 10.9287 16.3888 10.675 17.045 10.675H18.1563V10.0712C18.1563 8.61873 16.975 7.43747 15.5225 7.43747H5.47751C4.02501 7.43747 2.84376 8.61873 2.84376 10.0712V12.7662C3.33376 12.5737 3.85001 12.4687 4.37501 12.4687C6.66751 12.4687 8.53126 14.3325 8.53126 16.625C8.53126 17.3162 8.35626 17.9987 8.03251 18.5937Z" fill="#079669"/>
<path d="M2.1875 10.7275C1.82875 10.7275 1.53125 10.43 1.53125 10.0713V6.86006C1.53125 5.55631 2.34501 4.36627 3.56126 3.91126L10.5087 1.28627C11.2262 1.02377 12.0313 1.12007 12.6525 1.55757C13.2738 1.99507 13.65 2.7038 13.65 3.4563V6.78129C13.65 7.14004 13.3525 7.43754 12.9938 7.43754C12.635 7.43754 12.3375 7.14004 12.3375 6.78129V3.4563C12.3375 3.1238 12.18 2.8263 11.9088 2.6338C11.6288 2.4413 11.2875 2.39754 10.9725 2.51129L4.02501 5.13629C3.30751 5.40754 2.84375 6.08131 2.84375 6.86006V10.0713C2.84375 10.43 2.54625 10.7275 2.1875 10.7275Z" fill="#079669"/>
<path d="M17.15 15.5749C15.8287 15.5749 14.7087 14.5949 14.6037 13.3349C14.5337 12.6087 14.7962 11.8999 15.3212 11.3837C15.7675 10.9287 16.38 10.6749 17.0362 10.6749H18.8562C19.7225 10.7012 20.3875 11.3836 20.3875 12.2236V14.0262C20.3875 14.8662 19.7225 15.5487 18.8825 15.5749H17.15ZM18.8387 11.9874H17.045C16.7387 11.9874 16.4587 12.1012 16.2575 12.3112C16.0037 12.5562 15.8812 12.8887 15.9162 13.2212C15.9687 13.7987 16.52 14.2624 17.15 14.2624H18.865C18.9787 14.2624 19.0837 14.1574 19.0837 14.0262V12.2236C19.0837 12.0924 18.9787 11.9962 18.8387 11.9874Z" fill="#079669"/>
<path d="M12.25 11.1562H6.125C5.76625 11.1562 5.46875 10.8587 5.46875 10.5C5.46875 10.1413 5.76625 9.84375 6.125 9.84375H12.25C12.6087 9.84375 12.9062 10.1413 12.9062 10.5C12.9062 10.8587 12.6087 11.1562 12.25 11.1562Z" fill="#079669"/>
<path d="M4.375 20.7812C2.0825 20.7812 0.21875 18.9175 0.21875 16.625C0.21875 15.3475 0.787499 14.1662 1.77625 13.3787C2.51125 12.7925 3.43875 12.4688 4.375 12.4688C6.6675 12.4688 8.53125 14.3325 8.53125 16.625C8.53125 17.815 8.015 18.9525 7.1225 19.74C6.3525 20.4137 5.38125 20.7812 4.375 20.7812ZM4.375 13.7812C3.7275 13.7812 3.115 14 2.59875 14.4112C1.925 14.945 1.53125 15.7587 1.53125 16.625C1.53125 18.1912 2.80875 19.4688 4.375 19.4688C5.0575 19.4688 5.72249 19.215 6.25624 18.76C6.86874 18.2175 7.21875 17.4475 7.21875 16.625C7.21875 15.0588 5.94125 13.7812 4.375 13.7812Z" fill="#079669"/>
<path d="M3.4999 18.1562C3.28115 18.1562 3.0624 18.0425 2.9399 17.8413C2.75615 17.5263 2.85239 17.1237 3.16739 16.94L3.94614 16.4763V15.5312C3.94614 15.1725 4.24364 14.875 4.60239 14.875C4.96114 14.875 5.25864 15.1725 5.25864 15.5312V16.8438C5.25864 17.0712 5.13614 17.29 4.94364 17.4038L3.84989 18.06C3.73614 18.13 3.61365 18.1562 3.4999 18.1562Z" fill="#079669"/>
</svg>
