<svg width="18" height="18" viewBox="0 0 18 18" fill="none" xmlns="http://www.w3.org/2000/svg">
<path d="M10.875 12.5625H7.125C6.8175 12.5625 6.5625 12.3075 6.5625 12C6.5625 11.6925 6.8175 11.4375 7.125 11.4375H10.875C11.1825 11.4375 11.4375 11.6925 11.4375 12C11.4375 12.3075 11.1825 12.5625 10.875 12.5625Z" fill="#079669"/>
<path d="M3.90002 7.84491C3.75752 7.84491 3.61502 7.78491 3.50252 7.67991C3.34502 7.52241 3.29252 7.27491 3.38252 7.06491L4.77752 3.73491C4.80752 3.66741 4.82252 3.62241 4.84502 3.58491C5.95502 1.02741 7.37252 0.404908 9.87752 1.36491C10.02 1.41741 10.1325 1.52991 10.1925 1.67241C10.2525 1.81491 10.2525 1.97241 10.1925 2.11491L7.99502 7.21491C7.90502 7.41741 7.70252 7.55241 7.47752 7.55241H5.34002C4.91252 7.55241 4.50752 7.63491 4.11752 7.79991C4.05002 7.82991 3.97502 7.84491 3.90002 7.84491ZM7.95752 2.06241C7.02752 2.06241 6.45752 2.66991 5.86502 4.04991C5.85752 4.07241 5.84252 4.09491 5.83502 4.11741L4.85252 6.44991C5.01752 6.43491 5.17502 6.42741 5.34002 6.42741H7.10252L8.91002 2.22741C8.55752 2.11491 8.24252 2.06241 7.95752 2.06241Z" fill="#079669"/>
<path d="M13.7175 7.7024C13.665 7.7024 13.605 7.6949 13.5525 7.6799C13.275 7.5974 12.9675 7.5524 12.6525 7.5524H7.47749C7.28999 7.5524 7.10999 7.4549 7.00499 7.2974C6.90749 7.1399 6.88499 6.9374 6.95999 6.7649L9.13499 1.7174C9.24749 1.4474 9.56999 1.2674 9.85499 1.3574C9.94499 1.3874 10.0275 1.4249 10.1175 1.4624L11.8875 2.2049C12.9225 2.6324 13.6125 3.0824 14.0625 3.6224C14.1525 3.7274 14.2275 3.8399 14.295 3.9524C14.3775 4.0799 14.4525 4.2374 14.505 4.3949C14.5275 4.4474 14.565 4.5449 14.5875 4.6499C14.7975 5.3549 14.6925 6.2324 14.2425 7.3574C14.1525 7.5674 13.9425 7.7024 13.7175 7.7024ZM8.33249 6.4274H12.66C12.9 6.4274 13.1325 6.4499 13.365 6.4874C13.575 5.8349 13.62 5.3324 13.5 4.9274C13.485 4.8599 13.47 4.8299 13.4625 4.7999C13.4175 4.6799 13.3875 4.6124 13.35 4.5524C13.2975 4.4699 13.26 4.4024 13.2 4.3349C12.8775 3.9449 12.3075 3.5849 11.46 3.2399L9.97499 2.6174L8.33249 6.4274Z" fill="#079669"/>
<path d="M11.925 17.0625H6.075C5.865 17.0625 5.67 17.0475 5.475 17.025C2.8425 16.845 1.3425 15.345 1.1625 12.6825C1.14 12.5175 1.125 12.315 1.125 12.1125V10.65C1.125 8.96249 2.13 7.43999 3.6825 6.76499C4.2075 6.53999 4.77 6.42749 5.3475 6.42749H12.6675C13.095 6.42749 13.5075 6.48749 13.89 6.60749C15.6525 7.13999 16.89 8.80499 16.89 10.65V12.1125C16.89 12.2775 16.8825 12.435 16.875 12.585C16.71 15.5175 15 17.0625 11.925 17.0625ZM5.34 7.55249C4.9125 7.55249 4.5075 7.63499 4.1175 7.79999C2.9775 8.29499 2.2425 9.41249 2.2425 10.65V12.1125C2.2425 12.27 2.2575 12.4275 2.2725 12.5775C2.415 14.715 3.465 15.765 5.5725 15.9075C5.76 15.93 5.91 15.945 6.0675 15.945H11.9175C14.3925 15.945 15.6075 14.8575 15.7275 12.5325C15.735 12.3975 15.7425 12.2625 15.7425 12.1125V10.65C15.7425 9.29249 14.835 8.07749 13.545 7.67999C13.2675 7.59749 12.96 7.55249 12.645 7.55249H5.34Z" fill="#079669"/>
<path d="M1.67999 11.2126C1.37249 11.2126 1.11749 10.9576 1.11749 10.6501V8.45259C1.11749 6.09009 2.78999 4.05009 5.09999 3.60009C5.30249 3.56259 5.51249 3.63759 5.64749 3.79509C5.77499 3.95259 5.81249 4.17759 5.72999 4.36509L4.41749 7.50009C4.35749 7.63509 4.25249 7.74009 4.12499 7.80009C2.98499 8.29509 2.24999 9.41259 2.24999 10.6501C2.24249 10.9576 1.99499 11.2126 1.67999 11.2126ZM4.19999 5.11509C3.23999 5.65509 2.54249 6.60009 2.32499 7.70259C2.65499 7.36509 3.03749 7.08009 3.47249 6.87009L4.19999 5.11509Z" fill="#079669"/>
<path d="M16.32 11.2126C16.0125 11.2126 15.7575 10.9576 15.7575 10.6501C15.7575 9.29258 14.85 8.07758 13.56 7.68008C13.41 7.63508 13.2825 7.53008 13.215 7.38758C13.1475 7.24508 13.14 7.08008 13.2 6.93758C13.5525 6.06008 13.6425 5.42258 13.5 4.92758C13.485 4.86008 13.47 4.83008 13.4625 4.80008C13.365 4.58258 13.4175 4.32758 13.59 4.16258C13.7625 3.99758 14.025 3.96008 14.235 4.07258C15.87 4.92758 16.8825 6.60758 16.8825 8.45258V10.6501C16.8825 10.9576 16.6275 11.2126 16.32 11.2126ZM14.4375 6.81758C14.91 7.03508 15.33 7.34258 15.6825 7.71008C15.54 6.97508 15.1875 6.30758 14.67 5.78258C14.6325 6.09758 14.5575 6.44258 14.4375 6.81758Z" fill="#079669"/>
</svg>
