<svg width="16" height="16" viewBox="0 0 16 16" fill="none" xmlns="http://www.w3.org/2000/svg">
<path d="M3.46654 6.97293C3.33988 6.97293 3.20655 6.91959 3.11321 6.82626C2.97321 6.67959 2.92655 6.46626 3.00655 6.27959L4.24655 3.31959C4.27321 3.25959 4.28655 3.21959 4.30655 3.18626C5.29321 0.912926 6.55321 0.359592 8.77988 1.21293C8.90655 1.25959 9.00655 1.35959 9.05988 1.48626C9.11321 1.61293 9.11321 1.75293 9.05988 1.87959L7.10655 6.41293C7.02655 6.59959 6.84655 6.71293 6.64655 6.71293H4.74655C4.36655 6.71293 4.00654 6.78626 3.65988 6.93293C3.59988 6.95959 3.53321 6.97293 3.46654 6.97293ZM7.07321 1.83293C6.24655 1.83293 5.73988 2.37293 5.21321 3.59959C5.20655 3.61959 5.19321 3.63959 5.18655 3.65959L4.31321 5.73293C4.45988 5.71959 4.59988 5.71293 4.74655 5.71293H6.31321L7.91988 1.97959C7.60655 1.87959 7.32655 1.83293 7.07321 1.83293Z" fill="#9CA3AF"/>
<path d="M12.1933 6.84683C12.1467 6.84683 12.0933 6.84016 12.0467 6.82683C11.7933 6.75349 11.5267 6.71349 11.2467 6.71349H6.64666C6.47999 6.71349 6.31999 6.62683 6.22666 6.48682C6.13999 6.34683 6.11999 6.16683 6.18666 6.01349L8.11999 1.52683C8.21999 1.28683 8.51332 1.12016 8.75999 1.20683C8.83999 1.23349 8.91332 1.26683 8.99332 1.30016L10.5667 1.96016C11.4867 2.34016 12.1 2.74016 12.5 3.22016C12.58 3.31349 12.6467 3.41349 12.7133 3.52016C12.7867 3.63349 12.8533 3.76683 12.9 3.90683C12.92 3.95349 12.9533 4.04016 12.9733 4.13349C13.16 4.76683 13.0667 5.54016 12.6667 6.54016C12.58 6.72683 12.3933 6.84683 12.1933 6.84683ZM7.40666 5.71349H11.2533C11.4667 5.71349 11.6733 5.73349 11.88 5.76683C12.0667 5.18683 12.1067 4.74016 12 4.38016C11.9867 4.32016 11.9733 4.29349 11.9667 4.26683C11.9267 4.16016 11.9 4.10016 11.8667 4.04683C11.82 3.97349 11.7867 3.91349 11.7333 3.85349C11.4467 3.50683 10.94 3.18683 10.18 2.87349L8.86666 2.32683L7.40666 5.71349Z" fill="#9CA3AF"/>
<path d="M10.6 15.1662H5.4C5.21333 15.1662 5.04 15.1529 4.86667 15.1329C2.52667 14.9796 1.19333 13.6396 1.03333 11.2729C1.01333 11.1262 1 10.9462 1 10.7662V9.46622C1 7.96622 1.89333 6.61289 3.27333 6.01289C3.74667 5.81289 4.24 5.71289 4.75333 5.71289H11.26C11.64 5.71289 12.0067 5.76622 12.3467 5.87289C13.9133 6.34622 15.0133 7.82622 15.0133 9.46622V10.7662C15.0133 10.9129 15.0067 11.0529 15 11.1862C14.8533 13.7929 13.3333 15.1662 10.6 15.1662ZM4.74667 6.71289C4.36667 6.71289 4.00667 6.78622 3.66 6.93289C2.64667 7.37289 1.99333 8.36622 1.99333 9.46622V10.7662C1.99333 10.9062 2.00667 11.0462 2.02 11.1796C2.14667 13.0796 3.08 14.0129 4.95333 14.1396C5.12 14.1596 5.25333 14.1729 5.39333 14.1729H10.5933C12.7933 14.1729 13.8733 13.2062 13.98 11.1396C13.9867 11.0196 13.9933 10.8996 13.9933 10.7662V9.46622C13.9933 8.25956 13.1867 7.17956 12.04 6.82622C11.7867 6.75289 11.52 6.71289 11.24 6.71289H4.74667Z" fill="#9CA3AF"/>
<path d="M1.49341 9.96653C1.22007 9.96653 0.993408 9.73987 0.993408 9.46653V7.5132C0.993408 5.4132 2.48008 3.59987 4.53341 3.19987C4.71341 3.16653 4.90007 3.2332 5.02007 3.3732C5.13341 3.5132 5.16674 3.7132 5.09341 3.87987L3.92674 6.66653C3.87341 6.78653 3.78008 6.87987 3.66674 6.9332C2.65341 7.3732 2.00007 8.36653 2.00007 9.46653C1.99341 9.73987 1.77341 9.96653 1.49341 9.96653ZM3.73341 4.54653C2.88007 5.02653 2.26007 5.86653 2.06674 6.84653C2.36007 6.54653 2.70008 6.2932 3.08674 6.10653L3.73341 4.54653Z" fill="#9CA3AF"/>
<path d="M14.5068 9.96652C14.2334 9.96652 14.0068 9.73985 14.0068 9.46652C14.0068 8.25985 13.2001 7.17985 12.0534 6.82652C11.9201 6.78652 11.8068 6.69319 11.7468 6.56652C11.6868 6.43985 11.6801 6.29319 11.7334 6.16652C12.0468 5.38652 12.1268 4.81985 12.0001 4.37985C11.9868 4.31985 11.9734 4.29319 11.9668 4.26652C11.8801 4.07319 11.9268 3.84652 12.0801 3.69985C12.2334 3.55319 12.4668 3.51985 12.6534 3.61985C14.1068 4.37985 15.0068 5.87319 15.0068 7.51319V9.46652C15.0068 9.73985 14.7801 9.96652 14.5068 9.96652ZM12.8334 6.05985C13.2534 6.25319 13.6268 6.52652 13.9401 6.85319C13.8134 6.19985 13.5001 5.60652 13.0401 5.13985C13.0068 5.41985 12.9401 5.72652 12.8334 6.05985Z" fill="#9CA3AF"/>
</svg>
