<svg width="18" height="18" viewBox="0 0 18 18" fill="none" xmlns="http://www.w3.org/2000/svg">
<path d="M13.3051 17.0625H4.69506C2.82756 17.0625 1.31256 15.5475 1.31256 13.68V8.63251C1.31256 6.76501 2.82756 5.25 4.69506 5.25H13.3051C15.1726 5.25 16.6876 6.76501 16.6876 8.63251V9.71251C16.6876 10.02 16.4326 10.275 16.1251 10.275H14.6101C14.3476 10.275 14.1076 10.3725 13.9351 10.5525L13.9276 10.56C13.7176 10.7625 13.6201 11.04 13.6426 11.325C13.6876 11.82 14.1601 12.2175 14.7001 12.2175H16.1251C16.4326 12.2175 16.6876 12.4725 16.6876 12.78V13.6725C16.6876 15.5475 15.1726 17.0625 13.3051 17.0625ZM4.69506 6.375C3.45006 6.375 2.43756 7.38751 2.43756 8.63251V13.68C2.43756 14.925 3.45006 15.9375 4.69506 15.9375H13.3051C14.5501 15.9375 15.5626 14.925 15.5626 13.68V13.35H14.7001C13.5676 13.35 12.6076 12.51 12.5176 11.43C12.4576 10.815 12.6826 10.2075 13.1326 9.76501C13.5226 9.36751 14.0476 9.15001 14.6101 9.15001H15.5626V8.63251C15.5626 7.38751 14.5501 6.375 13.3051 6.375H4.69506Z" fill="white"/>
<path d="M1.87506 9.87001C1.56756 9.87001 1.31256 9.61501 1.31256 9.30751V5.88005C1.31256 4.76255 2.01756 3.75 3.06006 3.3525L9.01506 1.1025C9.63006 0.870004 10.3126 0.952541 10.8451 1.32754C11.3851 1.70254 11.7001 2.31004 11.7001 2.96254V5.81253C11.7001 6.12003 11.4451 6.37503 11.1376 6.37503C10.8301 6.37503 10.5751 6.12003 10.5751 5.81253V2.96254C10.5751 2.67754 10.4401 2.41503 10.2001 2.25003C9.96006 2.08503 9.67506 2.04752 9.40506 2.15252L3.45006 4.40252C2.84256 4.63502 2.43006 5.22755 2.43006 5.88005V9.30751C2.43756 9.62251 2.18256 9.87001 1.87506 9.87001Z" fill="white"/>
<path d="M14.7 13.3499C13.5675 13.3499 12.6075 12.5099 12.5175 11.4299C12.4575 10.8074 12.6825 10.1999 13.1325 9.7574C13.515 9.3674 14.04 9.1499 14.6025 9.1499H16.1625C16.905 9.1724 17.475 9.75737 17.475 10.4774V12.0224C17.475 12.7424 16.905 13.3274 16.185 13.3499H14.7ZM16.1475 10.2749H14.61C14.3475 10.2749 14.1075 10.3724 13.935 10.5524C13.7175 10.7624 13.6125 11.0474 13.6425 11.3324C13.6875 11.8274 14.16 12.2249 14.7 12.2249H16.17C16.2675 12.2249 16.3575 12.1349 16.3575 12.0224V10.4774C16.3575 10.3649 16.2675 10.2824 16.1475 10.2749Z" fill="white"/>
<path d="M10.5001 9.5625H5.25006C4.94256 9.5625 4.68756 9.3075 4.68756 9C4.68756 8.6925 4.94256 8.4375 5.25006 8.4375H10.5001C10.8076 8.4375 11.0626 8.6925 11.0626 9C11.0626 9.3075 10.8076 9.5625 10.5001 9.5625Z" fill="white"/>
</svg>
