<svg width="23" height="23" viewBox="0 0 23 23" fill="none" xmlns="http://www.w3.org/2000/svg">
<path d="M10.5404 16.286V18.1962C10.5404 19.8146 9.03483 21.1225 7.18114 21.1225C5.32746 21.1225 3.8125 19.8146 3.8125 18.1962V16.286C3.8125 17.9045 5.31805 19.0524 7.18114 19.0524C9.03483 19.0524 10.5404 17.895 10.5404 16.286Z" stroke="#079669" stroke-width="1.35498" stroke-linecap="round" stroke-linejoin="round"/>
<path d="M10.539 13.6978C10.539 14.1683 10.4072 14.6011 10.1814 14.9775C9.62625 15.8902 8.48768 16.4642 7.17034 16.4642C5.853 16.4642 4.71443 15.8808 4.15927 14.9775C3.93344 14.6011 3.80176 14.1683 3.80176 13.6978C3.80176 12.8886 4.17812 12.1641 4.78033 11.6371C5.39195 11.1008 6.22938 10.7809 7.16092 10.7809C8.09247 10.7809 8.92995 11.1102 9.54157 11.6371C10.1626 12.1547 10.539 12.8886 10.539 13.6978Z" stroke="#079669" stroke-width="1.35498" stroke-linecap="round" stroke-linejoin="round"/>
<path d="M10.5404 13.6978V16.2855C10.5404 17.9039 9.03483 19.0519 7.18114 19.0519C5.32746 19.0519 3.8125 17.8945 3.8125 16.2855V13.6978C3.8125 12.0794 5.31805 10.7715 7.18114 10.7715C8.11269 10.7715 8.95017 11.1008 9.56179 11.6277C10.164 12.1547 10.5404 12.8886 10.5404 13.6978Z" stroke="#079669" stroke-width="1.35498" stroke-linecap="round" stroke-linejoin="round"/>
<path d="M21.1261 10.7438V12.6822C21.1261 13.1997 20.7121 13.6231 20.1851 13.642H18.3408C17.3246 13.642 16.3931 12.8986 16.3084 11.8824C16.2519 11.2896 16.4777 10.7344 16.8729 10.3486C17.2211 9.99105 17.701 9.78406 18.2279 9.78406H20.1851C20.7121 9.80288 21.1261 10.2263 21.1261 10.7438Z" stroke="#079669" stroke-width="1.35498" stroke-linecap="round" stroke-linejoin="round"/>
<path d="M2.30664 10.3011V8.41914C2.30664 5.85974 3.84981 4.07192 6.24925 3.77081C6.4939 3.73317 6.74796 3.71436 7.01142 3.71436H15.48C15.7247 3.71436 15.9599 3.72375 16.1858 3.76139C18.6134 4.04368 20.1848 5.84092 20.1848 8.41914V9.78354H18.2276C17.7007 9.78354 17.2208 9.99053 16.8726 10.3481C16.4774 10.7339 16.2516 11.2891 16.3081 11.8819C16.3928 12.8981 17.3243 13.6414 18.3405 13.6414H20.1848V15.0058C20.1848 17.8287 18.3029 19.7106 15.48 19.7106H13.1276" stroke="#079669" stroke-width="1.35498" stroke-linecap="round" stroke-linejoin="round"/>
</svg>
